<?xml version="1.0" encoding="utf-8"?>
<!-- Generator: Adobe Illustrator 27.4.1, SVG Export Plug-In . SVG Version: 6.00 Build 0)  -->
<svg version="1.1" id="Layer_1" xmlns="http://www.w3.org/2000/svg" xmlns:xlink="http://www.w3.org/1999/xlink" x="0px" y="0px"
	 width="30px" height="30px" viewBox="0 0 30 30" style="enable-background:new 0 0 30 30;" xml:space="preserve">
<style type="text/css">
	.st0{fill:#E1D2FF;}
	.st1{fill:#A0A0A0;}
	.st2{fill:none;stroke:#A0A0A0;stroke-miterlimit:10;}
</style>
<g id="Layer_3">
	<path class="st0" d="M9.72,13.95C9.34,13.7,9.2,13.73,9.3,14.05l0.29-0.71c-0.24,0.29-1.19,0.25-1.53,0.21
		c-0.62-0.08-0.9-0.47-1.13-1.03c-0.42-1.04,0.44-1.85,1.32-2.3c0.92-0.47,2.32-0.12,3.3-0.03c1.25,0.12,2.49,0.22,3.74,0.31
		c1.2,0.09,2.39,0.19,3.57,0.42c0.86,0.17,2.77,0.43,3.19,1.29c0.2,0.41,0.04,2.82-0.72,2.19c-0.24-0.2,0.03-0.97,0.17-1.15
		c0.08-0.1,0.3-0.24,0.24-0.26c-0.12-0.03-0.32,0.22-0.53,0.21l0.86,0.5l0.01,0.5c0.54-1.16-1.19-2.18-1.73-1.01
		c-0.38,0.83-0.24,1.9,0.85,2.01c0.85,0.09,1.79-0.5,2.2-1.22c1.03-1.81-0.99-3.69-2.74-2.65c-1.46,0.86-1.96,3.4-0.65,4.6
		c1.48,1.36,3.58,0.06,4-1.62c0.22-0.89,0.2-2.04-0.13-2.9c-0.39-1.01-1.34-1.43-2.29-1.8c-2.1-0.8-4.39-0.98-6.62-1.14
		C13.84,8.4,12.7,8.31,11.56,8.2c-1.05-0.1-2.17-0.29-3.22-0.09c-1.73,0.32-3.61,2.07-3.54,3.91C4.83,13,5.36,14.12,6.08,14.8
		c0.81,0.77,2.07,0.85,3.11,0.7c0.99-0.14,2.18-0.5,2.1-1.71c-0.07-1.17-0.94-1.97-2.1-1.76C7.92,12.25,8.46,14.18,9.72,13.95
		L9.72,13.95L9.72,13.95z"/>
	<path class="st0" d="M8.59,13.47c-0.1-0.76-0.3-1.77,0.36-2.35c0.68-0.6,1.76-0.55,2.6-0.56c1.03-0.01,2.06-0.02,3.1-0.03
		c1.12-0.01,2.32-0.15,3.42,0.11l0.27-1.96c-0.71,0.08-1.11,0.43-1.74,0.69c-0.66,0.27-1.55,0.16-2.24,0.15
		c-1.66-0.04-3.31-0.26-4.95-0.48l0.71,1.71c0.49-0.6,0.97-1.2,1.75-1.4c0.62-0.16,1.3-0.09,1.93-0.03
		c1.62,0.14,3.24,0.26,4.87,0.25c0.83-0.01,1.66-0.04,2.48-0.01c0.65,0.02,1.42-0.01,1.84,0.55c0.4,0.54,0.99,3.1,0.03,3.4
		l1.27,0.96c0.02-1.76,0.44-3.67-0.42-5.32c-0.8-1.53-2.56-1.39-3.56-0.15c-0.45,0.55-0.66,1.27-1.12,1.81
		c-0.49,0.57-1.31,0.67-2.01,0.79c-0.9,0.16-1.81,0.43-2.73,0.39c-0.5-0.02-0.98-0.14-1.47-0.25c-0.2-0.05-0.41-0.09-0.61-0.14
		c-0.15-0.03-0.31-0.07-0.46-0.11c-0.22-0.06-0.2-0.04,0.03,0.05l0.26,0.97l0.04-0.14l-0.46,0.6c-0.23,0.03-0.23,0.05-0.01,0.04
		c0.16,0,0.32,0.01,0.48,0.01c0.27,0.01,0.53,0.02,0.8,0.02c0.59,0.02,1.17,0.05,1.76,0.08c1.17,0.07,2.34,0.17,3.51,0.3
		c1.28,0.14,1.27-1.87,0-2c-1.38-0.15-2.77-0.26-4.15-0.33c-0.64-0.03-1.28-0.06-1.92-0.07c-0.49-0.01-1.05-0.07-1.48,0.22
		c-1.06,0.71-0.38,1.9,0.6,2.18c1.21,0.34,2.56,0.66,3.82,0.54c1.08-0.11,2.2-0.33,3.26-0.58c1.09-0.26,1.96-0.8,2.58-1.74
		c0.26-0.4,0.43-0.85,0.7-1.24c0.04-0.06,0.31-0.46,0.43-0.42c-0.15-0.05,0.12,0.62,0.11,0.59c0.34,1.24,0.02,2.63,0.01,3.89
		c-0.01,0.63,0.65,1.16,1.27,0.96c1.86-0.59,2.11-2.78,1.82-4.45c-0.16-0.91-0.49-1.9-1.17-2.54C23.41,7.7,22.3,7.6,21.3,7.55
		c-2.38-0.11-4.73,0.03-7.11-0.21c-1-0.1-2.03-0.19-3,0.1c-1.06,0.31-1.82,1.04-2.5,1.88c-0.58,0.72-0.17,1.59,0.71,1.71
		c1.64,0.22,3.29,0.44,4.95,0.48c0.73,0.02,1.5,0.03,2.22-0.09c0.37-0.06,0.7-0.16,1.03-0.33c0.21-0.11,0.49-0.39,0.73-0.42
		c1.04-0.12,1.45-1.68,0.27-1.96c-1.44-0.34-2.97-0.19-4.44-0.17c-1.36,0.01-2.76-0.06-4.1,0.11c-1.08,0.14-2.13,0.54-2.83,1.41
		c-0.79,0.99-0.78,2.23-0.63,3.42C6.75,14.73,8.75,14.75,8.59,13.47L8.59,13.47L8.59,13.47z"/>
	<path class="st0" d="M19.03,14.1c-2.52-0.13-5.04-0.3-7.56-0.5v2c2.59-0.02,5.28,0.06,7.85,0.41l-0.5-0.14
		c-0.13-0.16-0.15-0.16-0.07-0.02c0.04,0.1,0.09,0.2,0.13,0.3c0.06,0.15,0.13,0.3,0.19,0.46c0.14,0.37,0.28,0.74,0.38,1.12
		c0.07,0.26,0.13,0.51,0.14,0.78c0.01,0.18-0.02,0.22-0.03,0.39c-0.01,0.17-0.24,0.23,0,0.11l0.77-0.1
		c-0.06-0.01-0.29-0.54-0.35-0.7c-0.14-0.37-0.23-0.76-0.34-1.14c-0.23-0.81-0.5-1.71-1.12-2.31c-0.77-0.75-1.78-0.57-2.74-0.43
		c-1.01,0.15-2,0.36-3,0.54c-0.99,0.17-1.96,0.22-2.97,0.25c-1.03,0.03-1.6,0.78-1.68,1.76c-0.08,0.95,0.26,1.92,0.27,2.88
		c0.01,1.02-0.11,2.04-0.23,3.05c-0.12,0.96,1.48,1.4,1.86,0.5c0.43-0.99,0.73-2.01,1.03-3.05c0.14-0.51,0.29-1.01,0.47-1.51
		c0.14-0.39,0.3-0.96,0.59-1.25l-0.44,0.26l0.01-0.01l-0.5-0.14c0.39,0.2,0.66,0.47,1.11,0.57c0.5,0.12,1,0.07,1.5-0.01
		c0.96-0.16,1.89-0.44,2.82-0.74c0.44-0.14,0.94-0.25,1.26-0.6c0.36-0.4,0.39-0.98,0.11-1.42c-0.53-0.83-1.85-0.89-2.71-0.74
		c-0.88,0.15-2,0.68-2,1.72c0,0.96,0.99,1.64,1.73,2.06c0.77,0.44,1.71,0.79,2.61,0.82c1.28,0.05,1.45-1.24,1.41-2.22l-1.96,0.27
		c0.48,2.06,1.12,4.06,2.9,5.35c0.45,0.33,1.1,0.06,1.37-0.36c0.44-0.68,0.54-1.5,0.31-2.28c-0.24-0.8-1.4-1.01-1.83-0.24
		c-0.07,0.11-0.12,0.23-0.16,0.35c-0.06,0.17-0.04,0.17,0.06-0.01l0.44-0.26c0.14-0.03-0.17-0.05-0.23-0.07
		c-0.21-0.05-0.43-0.11-0.63-0.18c-0.37-0.12-0.72-0.29-1.07-0.47c-0.78-0.4-1.52-0.85-2.32-1.2c-0.88-0.39-1.79-0.67-2.71-0.93
		c-0.46-0.13-0.92-0.27-1.4-0.23c-0.53,0.05-0.93,0.37-1.31,0.71c-0.63,0.55-1.47,1.15-1.74,1.97c-0.28,0.83-0.02,1.94,0.07,2.79
		c0.05,0.49,0.14,0.93,0.58,1.23c0.38,0.26,0.8,0.27,1.25,0.28c1.03,0.03,2.06,0.06,3.08,0.09c2.28,0.07,4.57,0.13,6.85,0.2
		c0.95,0.03,1.21-1.08,0.71-1.71c-0.59-0.73-1.46-1.17-2.29-1.56c-0.96-0.45-1.95-0.83-2.94-1.22c-0.93-0.37-1.87-0.73-2.83-1.03
		c-0.87-0.27-2.07-0.79-2.85-0.05c-0.62,0.58-0.7,1.81-0.67,2.61c0.02,0.51,0.21,1,0.66,1.27c0.41,0.24,0.89,0.21,1.34,0.2
		c2.03-0.04,4.05,0.01,5.99,0.65l0.53-1.93c-2.51-0.5-4.71-1.93-7.29-2.13c-1.28-0.1-1.28,1.9,0,2c2.37,0.18,4.45,1.6,6.76,2.06
		c1.26,0.25,1.76-1.52,0.53-1.93c-1.19-0.39-2.42-0.59-3.67-0.68c-0.6-0.04-1.2-0.06-1.8-0.06c-0.48,0-1.19,0.15-1.63-0.01
		l0.44,0.26l-0.1-0.09l0.26,0.44c-0.15-0.38,0.1-0.76,0.08-1.14c0.13-0.33,0-0.29-0.37,0.1l0.21,0.05c0.21,0.13,0.59,0.16,0.83,0.24
		c0.89,0.27,1.77,0.6,2.64,0.94c0.86,0.34,1.72,0.66,2.56,1.04c0.78,0.35,1.63,0.7,2.18,1.39l0.71-1.71
		c-1.75-0.05-3.5-0.1-5.25-0.15c-0.84-0.02-1.67-0.05-2.51-0.07c-0.46-0.01-0.91-0.03-1.37-0.04c-0.23-0.01-0.46-0.01-0.69-0.02
		l-0.23-0.01c-0.26-0.01-0.3-0.01-0.13-0.01l0.36,0.36c0.06,0.13,0.02-0.24,0.02-0.27l-0.05-0.51c-0.03-0.34-0.08-0.68-0.09-1.02
		c0-0.48,0.69-0.9,1.03-1.2c0.1-0.09,0.26-0.29,0.38-0.34c-0.08,0.03,0,0.02,0.08,0.03c0.34,0.02,0.72,0.19,1.05,0.29
		c0.67,0.19,1.35,0.4,1.98,0.7c1.12,0.53,2.16,1.2,3.33,1.65c0.56,0.21,1.22,0.42,1.83,0.4c0.32-0.01,0.62-0.13,0.85-0.35
		c0.23-0.23,0.24-0.47,0.37-0.71l-1.83-0.24c0.09,0.29,0.06,0.47-0.11,0.74l1.37-0.36c-1.29-0.94-1.64-2.7-1.98-4.16
		c-0.26-1.09-2-0.87-1.96,0.27c0.01,0.17,0.07,0.55-0.03,0.68l0.6-0.46c-0.24,0.08-0.98-0.24-1.26-0.37
		c-0.31-0.15-1.06-0.54-1.11-0.77v0.53c-0.19,0.17-0.21,0.22-0.07,0.13c0.06-0.04,0.12-0.06,0.18-0.08c0.13-0.05,0.27-0.08,0.41-0.1
		c0.13-0.01,0.29-0.02,0.42,0c0.23,0.03,0.31,0.22,0.13-0.09l-0.14-0.5l-0.01,0.11l0.29-0.71l-0.09,0.09l0.44-0.26
		c-1.05,0.43-2.25,0.77-3.37,0.96c-0.49,0.08-0.67,0.03-1.07-0.23c-0.52-0.33-1.19-0.34-1.66,0.1c-0.76,0.7-1.09,2.02-1.38,2.98
		c-0.33,1.08-0.57,2.2-1.02,3.24l1.86,0.5c0.15-1.22,0.3-2.46,0.2-3.7c-0.04-0.6-0.2-1.18-0.25-1.78c-0.01-0.1,0.02-0.22,0-0.31
		c-0.04-0.13,0.18-0.22-0.14-0.01c-0.37,0.24,0.11,0.12,0.27,0.12c0.18,0,0.36-0.01,0.54-0.02c1.25-0.06,2.48-0.3,3.7-0.53
		c0.61-0.11,1.21-0.23,1.83-0.32c0.21-0.03,0.51-0.11,0.72-0.07c0.18,0.04,0.23,0.17,0.33,0.37c0.43,0.86,0.53,1.85,0.92,2.73
		c0.42,0.93,1.54,2.22,2.59,1.24c0.8-0.74,0.81-1.98,0.61-2.96c-0.11-0.55-0.31-1.08-0.51-1.59c-0.21-0.51-0.39-1.22-0.8-1.62
		c-0.51-0.49-1.44-0.41-2.1-0.46c-0.68-0.05-1.36-0.1-2.04-0.15c-1.51-0.1-3.02-0.16-4.54-0.15c-1.3,0.01-1.27,1.9,0,2
		c2.52,0.2,5.04,0.37,7.56,0.5C20.32,16.17,20.31,14.17,19.03,14.1L19.03,14.1L19.03,14.1z"/>
	<path class="st0" d="M8.95,24.53c2-0.19,3.99-0.15,5.99,0.04c2.02,0.19,4.03,0.45,6.06,0.3c0.41-0.03,0.59-0.4,0.43-0.75
		c-0.04-0.09-0.07-0.17-0.11-0.26c-0.26-0.59-1.12-0.08-0.86,0.5c0.04,0.09,0.07,0.17,0.11,0.26L21,23.87
		c-2.03,0.14-4.04-0.11-6.06-0.3c-2-0.19-3.99-0.24-5.99-0.04C8.31,23.59,8.31,24.59,8.95,24.53L8.95,24.53L8.95,24.53z"/>
	<path class="st0" d="M8.18,24.98c1.7,0.07,3.4-0.21,5.1-0.12c0.84,0.04,1.66,0.16,2.5,0.15c0.85-0.01,1.69-0.08,2.54-0.03
		c0.64,0.04,0.64-0.96,0-1c-0.85-0.05-1.69,0.02-2.54,0.03c-0.84,0.01-1.67-0.11-2.5-0.15c-1.71-0.08-3.4,0.19-5.1,0.12
		C7.53,23.95,7.53,24.95,8.18,24.98C8.18,24.98,8.18,24.98,8.18,24.98z"/>
	<rect x="8.09" y="23" class="st0" width="14" height="2"/>
</g>
<g id="Layer_2_00000168117933764705678310000003790337799717227404_">
	<path class="st1" d="M9.31,13.05c-0.43,0.54-0.89-0.19-0.59-0.64c0.33-0.5,1.06-0.42,1.53-0.22c0.64,0.28,0.78,0.69,0.66,1.36
		c-0.08,0.48-0.19,1.03-0.57,1.36c-0.35,0.3-0.86,0.39-1.3,0.47c-0.62,0.12-1.3,0.25-1.89-0.03c-0.87-0.41-1.61-1.29-1.96-2.16
		C4.34,11.1,5.67,9.19,7.67,8.5C8.75,8.12,9.89,8.04,11.03,8c1.24-0.05,2.48-0.07,3.73-0.07c1.31,0,2.63,0,3.94,0
		c0.66,0,1.32,0.01,1.98,0.07c0.67,0.06,1.32,0.28,1.99,0.27c0.64-0.01,0.64-1.01,0-1C21.81,7.28,20.94,7,20.09,6.96
		c-0.95-0.05-1.91-0.03-2.86-0.03c-1.82,0-3.64-0.01-5.46,0.04c-2.72,0.08-6.29,0.34-7.52,3.26c-0.56,1.34-0.36,2.9,0.41,4.11
		c0.72,1.14,1.93,2.21,3.35,2.18c1.27-0.03,2.94-0.33,3.55-1.59c0.56-1.17,0.69-2.7-0.52-3.46c-1.15-0.72-3.12-0.56-3.4,1.03
		c-0.24,1.34,1.46,2.41,2.39,1.25C10.42,13.26,9.72,12.55,9.31,13.05L9.31,13.05L9.31,13.05z"/>
	<path class="st1" d="M20.64,7.9c1.35,0.11,2.92,0.42,3.74,1.62c0.15,0.22,0.44,0.32,0.68,0.18c0.22-0.13,0.33-0.46,0.18-0.68
		c-1.04-1.53-2.87-1.97-4.6-2.11c-0.27-0.02-0.5,0.25-0.5,0.5C20.14,7.69,20.37,7.88,20.64,7.9L20.64,7.9L20.64,7.9z"/>
	<path class="st1" d="M19.59,7.94c0.04-0.01,0.08-0.01,0.12-0.02l-0.13,0.02c0.31-0.04,0.62-0.04,0.93,0l-0.13-0.02
		c0.06,0.01,0.13,0.02,0.19,0.03c0.13,0.02,0.26,0.02,0.39-0.05c0.1-0.06,0.2-0.18,0.23-0.3c0.03-0.13,0.02-0.27-0.05-0.39
		c-0.07-0.1-0.17-0.21-0.3-0.23c-0.25-0.05-0.5-0.08-0.75-0.08c-0.25,0-0.51,0.03-0.76,0.07c-0.12,0.02-0.24,0.13-0.3,0.23
		c-0.06,0.11-0.09,0.27-0.05,0.39c0.04,0.12,0.11,0.24,0.23,0.3l0.12,0.05C19.41,7.96,19.5,7.96,19.59,7.94
		C19.59,7.94,19.59,7.94,19.59,7.94z"/>
	<path class="st1" d="M24.42,9.61c0.49,0.42,0.66,1.19,0.74,1.8c0.09,0.69,0.07,1.43-0.13,2.1c-0.37,1.25-1.89,2.03-3.13,2.04
		c-0.64,0-0.64,1,0,1c1.65-0.01,3.51-1.04,4.06-2.66c0.27-0.82,0.29-1.75,0.18-2.6c-0.11-0.83-0.36-1.82-1.02-2.39
		C24.64,8.49,23.93,9.19,24.42,9.61L24.42,9.61L24.42,9.61z"/>
	<path class="st1" d="M22.63,15.56c-0.2-0.04-0.39-0.05-0.59-0.04c-0.19,0.01-0.37,0.04-0.56,0.03c-0.07,0-0.28-0.06-0.35-0.09
		c-0.16-0.06-0.32-0.15-0.47-0.24c-0.29-0.16-0.49-0.3-0.71-0.54c-0.06-0.07-0.06-0.06-0.11-0.13c-0.05-0.07-0.09-0.14-0.12-0.21
		c-0.01-0.01-0.04-0.08-0.02-0.03c-0.01-0.03-0.03-0.07-0.04-0.1c-0.01-0.04-0.03-0.09-0.04-0.13c0-0.01-0.02-0.12-0.01-0.05
		c-0.03-0.27-0.21-0.5-0.5-0.5c-0.25,0-0.53,0.23-0.5,0.5c0.09,0.88,0.66,1.52,1.39,1.97c0.34,0.21,0.72,0.41,1.11,0.5
		c0.22,0.05,0.45,0.06,0.68,0.05c0.1-0.01,0.21-0.02,0.31-0.02c0.08,0,0.22,0,0.27,0.01c0.27,0.05,0.54-0.07,0.62-0.35
		C23.04,15.93,22.89,15.61,22.63,15.56L22.63,15.56L22.63,15.56z"/>
	<path class="st1" d="M19.66,14.26c-0.02-0.3-0.03-0.6-0.03-0.9c0-0.12,0-0.23,0.01-0.35c0.01-0.16,0.01-0.16,0.05-0.31
		c0.01-0.06,0.03-0.12,0.05-0.18c-0.02,0.06,0.04-0.07,0.05-0.09c0.06-0.11,0.08-0.13,0.2-0.24c0,0,0.06-0.05,0.03-0.02
		c-0.04,0.03,0.05-0.03,0.05-0.03c0.05-0.03,0.1-0.06,0.16-0.09c0.02-0.01,0.13-0.06,0.07-0.04c0.06-0.03,0.13-0.05,0.2-0.07
		c0.28-0.09,0.5-0.13,0.78-0.12c0.03,0,0.06,0.01,0.12,0.02c0.03,0.01,0.07,0.02,0.1,0.03c0,0,0.08,0.03,0.04,0.01
		c-0.04-0.02,0.03,0.02,0.03,0.02c0.03,0.02,0.06,0.03,0.09,0.05c0.02,0.01,0.04,0.03,0.06,0.04c0.03,0.02,0.03,0.02,0,0l0.04,0.03
		c0.02,0.02,0.04,0.04,0.05,0.06c0.05,0.06-0.03-0.05,0.01,0.02c0.01,0.02,0.03,0.05,0.04,0.07c0,0,0.03,0.09,0.02,0.03
		c0.02,0.05,0.03,0.11,0.05,0.16c0.01,0.04,0.02,0.07,0.02,0.11c0,0.01,0.01,0.09,0.01,0.04c0.02,0.13,0.02,0.27,0.02,0.4
		c0,0.08-0.03,0.18-0.07,0.24c-0.01,0.02-0.02,0.04-0.04,0.06c0.05-0.06-0.02,0.01-0.03,0.02c-0.04,0.04,0,0.01,0.01,0
		c-0.03,0.02-0.07,0.04-0.1,0.06c-0.05,0.03,0,0.01,0.01,0c-0.04,0.02-0.08,0.02-0.11,0.04c-0.06,0.02,0,0,0.02,0
		c-0.04,0.01-0.08,0-0.12,0c-0.06,0,0,0,0.01,0c-0.04-0.01-0.08-0.02-0.12-0.03c-0.05-0.02,0,0,0.01,0.01
		c-0.04-0.02-0.07-0.04-0.1-0.06c-0.05-0.03,0,0,0.01,0.01c-0.03-0.03-0.06-0.05-0.08-0.08c-0.04-0.04,0,0,0,0.01
		c0-0.01-0.07-0.14-0.04-0.05c-0.1-0.25-0.33-0.43-0.62-0.35c-0.23,0.06-0.45,0.36-0.35,0.62c0.17,0.4,0.43,0.69,0.84,0.85
		c0.37,0.14,0.78,0.1,1.12-0.08c0.77-0.4,0.84-1.32,0.66-2.08c-0.42-1.77-2.99-1.54-3.88-0.31c-0.5,0.69-0.4,1.67-0.36,2.46
		c0.01,0.26,0.22,0.51,0.5,0.5C19.42,14.75,19.68,14.54,19.66,14.26L19.66,14.26L19.66,14.26z"/>
	<path class="st1" d="M20.78,10.72l-7.42,0.07c-1.21,0.01-2.41,0.01-3.62,0.04c-0.81,0.02-1.69,0.26-1.87,1.17
		c-0.13,0.63,0.84,0.9,0.96,0.27c0.1-0.49,0.73-0.43,1.12-0.43c0.53-0.01,1.05-0.01,1.58-0.02l3.04-0.03l6.2-0.06
		C21.43,11.71,21.43,10.71,20.78,10.72C20.78,10.72,20.78,10.72,20.78,10.72z"/>
	<path class="st1" d="M20.37,11.74c0.16-0.02,0.32-0.03,0.48-0.04c0.09,0,0.17,0,0.26,0c0.03,0,0.06,0.01,0.09,0.01
		c0.05,0.01,0.04,0-0.04-0.01c0.02,0,0.04,0.01,0.06,0.01c0.07,0.01,0.14,0.04,0.21,0.06c0.05,0.02,0.04,0.01-0.03-0.01
		c0.02,0.01,0.04,0.02,0.06,0.03c0.04,0.02,0.07,0.04,0.11,0.06c0.03,0.02,0.05,0.04,0.08,0.05c0.04,0.03,0.03,0.02-0.03-0.02
		c0.02,0.01,0.03,0.03,0.05,0.04c0.06,0.06,0.12,0.11,0.18,0.18c0.18,0.19,0.53,0.2,0.71,0c0.19-0.2,0.19-0.5,0-0.71
		c-0.28-0.3-0.63-0.54-1.04-0.63c-0.38-0.08-0.77-0.06-1.15-0.02c-0.14,0.01-0.25,0.05-0.35,0.15c-0.09,0.09-0.15,0.23-0.15,0.35
		C19.89,11.49,20.1,11.77,20.37,11.74L20.37,11.74L20.37,11.74z"/>
	<path class="st1" d="M8.29,11.33c-0.17,0.18-0.33,0.38-0.47,0.58l0.86,0.5c0.05-0.12,0.11-0.22,0.19-0.32l-0.08,0.1
		c0.04-0.05,0.08-0.1,0.12-0.14c0.05-0.05,0.08-0.1,0.1-0.16c0.03-0.06,0.05-0.12,0.04-0.19c0-0.07-0.01-0.13-0.04-0.19
		c-0.02-0.06-0.05-0.12-0.1-0.16l-0.1-0.08c-0.08-0.05-0.16-0.07-0.25-0.07l-0.13,0.02c-0.08,0.02-0.16,0.07-0.22,0.13
		c-0.03,0.03-0.07,0.07-0.1,0.11C8.06,11.52,8,11.59,7.96,11.66c-0.05,0.08-0.1,0.16-0.14,0.25c-0.04,0.06-0.06,0.12-0.06,0.19
		c-0.01,0.07-0.01,0.13,0.01,0.2c0.02,0.07,0.05,0.12,0.09,0.17c0.04,0.05,0.08,0.1,0.14,0.13l0.12,0.05c0.09,0.02,0.18,0.02,0.27,0
		l0.12-0.05c0.08-0.04,0.13-0.1,0.18-0.18c0.04-0.06,0.08-0.11,0.12-0.16l-0.08,0.1c0.08-0.11,0.18-0.21,0.27-0.31
		c0.05-0.05,0.08-0.1,0.1-0.16c0.03-0.06,0.05-0.12,0.04-0.19c0-0.07-0.01-0.13-0.04-0.19c-0.02-0.06-0.05-0.12-0.1-0.16l-0.1-0.08
		c-0.08-0.05-0.16-0.07-0.25-0.07L8.51,11.2C8.42,11.23,8.35,11.27,8.29,11.33L8.29,11.33L8.29,11.33z"/>
	<polygon class="st2" points="11.5,13.5 19.5,13.5 19.5,13.5 	"/>
	<rect x="7.5" y="16.5" class="st2" width="1" height="8"/>
	<rect x="21.5" y="16.5" class="st2" width="1" height="8"/>
	<rect x="10.5" y="17.5" class="st1" width="1" height="7.5"/>
	<rect x="12.5" y="17.5" class="st1" width="1" height="7.5"/>
	<rect x="14.5" y="17.5" class="st1" width="1" height="7.5"/>
	<rect x="16.5" y="17.5" class="st1" width="1" height="7.5"/>
	<rect x="18.5" y="17.5" class="st1" width="1" height="7.5"/>
</g>
</svg>
