<?xml version="1.0" encoding="UTF-8"?><svg xmlns="http://www.w3.org/2000/svg" width="22.53" height="20.37" viewBox="0 0 22.53 20.37"><g id="Layer_3"><path d="m5.79,8.95c-.38-.25-.53-.22-.42.09l.29-.71c-.24.29-1.19.25-1.53.21-.62-.08-.9-.47-1.13-1.03-.42-1.04.44-1.85,1.32-2.3s2.32-.12,3.3-.03c1.25.12,2.49.22,3.74.31s2.39.19,3.57.42c.86.17,2.77.43,3.19,1.29.2.41.04,2.82-.72,2.19-.24-.2.03-.97.17-1.15.08-.1.3-.24.24-.26-.12-.03-.32.22-.53.21l.86.5v.5c.55-1.16-1.17-2.18-1.71-1.01-.38.83-.24,1.9.85,2.01.85.09,1.79-.5,2.2-1.22,1.03-1.81-.99-3.69-2.74-2.65-1.46.86-1.96,3.4-.65,4.6,1.48,1.36,3.58.06,4-1.62.22-.89.2-2.04-.13-2.9-.39-1.01-1.34-1.43-2.29-1.8-2.1-.8-4.39-.98-6.62-1.14-1.14-.08-2.29-.17-3.43-.29-1.05-.1-2.17-.29-3.22-.09-1.73.32-3.61,2.07-3.54,3.91.04.99.56,2.11,1.28,2.79.81.77,2.07.85,3.11.7.99-.14,2.18-.5,2.1-1.71s-.94-1.97-2.1-1.76c-1.26.23-.73,2.15.53,1.93h0Z" fill="#dccaff"/><path d="m4.67,8.47c-.1-.76-.3-1.77.36-2.35s1.76-.55,2.6-.56c1.03-.01,2.06-.02,3.1-.03,1.12-.01,2.32-.15,3.42.11l.27-1.96c-.71.08-1.11.43-1.74.69-.66.27-1.55.16-2.24.15-1.66-.04-3.31-.26-4.95-.48l.71,1.71c.49-.6.97-1.2,1.75-1.4.62-.16,1.3-.09,1.93-.03,1.63.14,3.24.26,4.87.25.83,0,1.66-.04,2.48,0,.65.02,1.42-.01,1.84.55s.99,3.1.03,3.4l1.27.96c.02-1.76.44-3.67-.42-5.32-.8-1.53-2.56-1.39-3.56-.15-.45.55-.66,1.27-1.12,1.81-.49.57-1.31.67-2.01.79-.9.16-1.81.43-2.73.39-.5-.02-.98-.14-1.47-.25-.2-.05-.41-.09-.61-.14-.15-.04-.31-.07-.46-.11-.22-.06-.2-.04.03.05l.26.97.04-.14-.46.6c-.23.03-.23.05-.01.04.16,0,.32,0,.48.01.27,0,.53.02.8.02.59.02,1.17.05,1.76.08,1.17.07,2.34.17,3.51.3,1.28.14,1.27-1.87,0-2-1.38-.15-2.77-.26-4.15-.33-.64-.03-1.28-.06-1.92-.07-.49-.01-1.05-.07-1.48.22-1.06.71-.38,1.9.6,2.18,1.21.34,2.56.66,3.82.54,1.08-.11,2.2-.33,3.26-.58s1.96-.8,2.58-1.74c.26-.4.43-.85.7-1.24.04-.06.31-.46.43-.42-.15-.05.12.62.11.59.34,1.24.02,2.63,0,3.89,0,.63.65,1.16,1.27.96,1.86-.59,2.11-2.78,1.82-4.45-.16-.91-.49-1.9-1.17-2.54-.77-.73-1.88-.83-2.88-.88-2.38-.11-4.73.03-7.11-.21-1-.1-2.03-.19-3,.1-1.06.31-1.82,1.04-2.5,1.88-.58.72-.17,1.59.71,1.71,1.64.22,3.29.44,4.95.48.73.02,1.5.03,2.22-.09.37-.06.7-.16,1.03-.33.21-.11.49-.39.73-.42,1.04-.12,1.45-1.68.27-1.96-1.44-.34-2.97-.19-4.44-.17-1.36.01-2.76-.06-4.1.11-1.08.14-2.13.54-2.83,1.41-.79.99-.78,2.23-.63,3.42.16,1.26,2.16,1.28,2,0h0Z" fill="#dccaff"/><path d="m15.1,9.1c-2.52-.13-5.04-.3-7.56-.5v2c2.59-.02,5.28.06,7.85.41l-.5-.14c-.13-.16-.15-.16-.07-.02.04.1.09.2.13.3.06.15.13.3.19.46.14.37.28.74.38,1.12.07.26.13.51.14.78,0,.18-.02.22-.03.39s-.24.23,0,.11l.77-.1c-.06-.01-.29-.54-.35-.7-.14-.37-.23-.76-.34-1.14-.23-.81-.5-1.71-1.12-2.31-.77-.75-1.78-.57-2.74-.43-1.01.15-2,.36-3,.54s-1.96.22-2.97.25-1.6.78-1.68,1.76.26,1.92.27,2.88c.01,1.02-.11,2.04-.23,3.05s1.48,1.4,1.86.5c.43-.99.73-2.01,1.03-3.05.14-.51.29-1.01.47-1.51.14-.39.3-.96.59-1.25l-.44.26h0c-.17-.05-.34-.1-.5-.14.39.2.66.47,1.11.57.5.12,1,.07,1.5,0,.96-.16,1.89-.44,2.82-.74.44-.14.94-.25,1.26-.6.36-.4.39-.98.11-1.42-.53-.83-1.85-.89-2.71-.74s-2,.68-2,1.72c0,.96.99,1.64,1.73,2.06s1.71.79,2.61.82c1.28.05,1.45-1.24,1.41-2.22l-1.96.27c.48,2.06,1.12,4.06,2.9,5.35.45.33,1.1.06,1.37-.36.44-.68.54-1.5.31-2.28s-1.4-1.01-1.83-.24c-.07.11-.12.23-.16.35-.06.17-.04.17.06,0l.44-.26c.14-.03-.17-.05-.23-.07-.21-.05-.43-.11-.63-.18-.37-.12-.72-.29-1.07-.47-.78-.4-1.52-.85-2.32-1.2-.88-.39-1.79-.67-2.71-.93-.46-.13-.92-.27-1.4-.23-.53.05-.93.37-1.31.71-.63.55-1.47,1.15-1.74,1.97s-.02,1.94.07,2.79c.05.49.14.93.58,1.23.38.26.8.27,1.25.28,1.03.03,2.06.06,3.08.09,2.28.07,4.57.13,6.85.2.95.03,1.21-1.08.71-1.71-.59-.73-1.46-1.17-2.29-1.56-.96-.45-1.95-.83-2.94-1.22-.93-.37-1.87-.73-2.83-1.03-.87-.27-2.07-.79-2.85-.05-.62.58-.7,1.81-.67,2.61.02.51.21,1,.66,1.27.41.24.89.21,1.34.2,2.03-.04,4.05,0,5.99.65l.53-1.93c-2.51-.5-4.71-1.93-7.29-2.13-1.28-.1-1.28,1.9,0,2,2.37.18,4.45,1.6,6.76,2.06,1.26.25,1.76-1.52.53-1.93s-2.42-.59-3.67-.68c-.6-.04-1.2-.06-1.8-.06-.48,0-1.19.15-1.63-.01l.44.26-.1-.09.26.44c-.15-.38.1-.76.08-1.14.13-.33,0-.29-.37.1l.21.05c.21.13.59.16.83.24.89.27,1.77.6,2.63.94s1.72.66,2.56,1.04c.78.35,1.63.7,2.18,1.38l.71-1.71c-1.75-.05-3.5-.1-5.25-.15-.84-.02-1.67-.05-2.51-.07-.46-.01-.91-.03-1.37-.04-.23,0-.46-.01-.69-.02h-.23c-.26-.01-.3-.01-.13-.01l.36.36c.06.13.02-.24.02-.27l-.05-.51c-.03-.34-.08-.68-.09-1.02,0-.48.69-.9,1.03-1.2.1-.09.26-.29.38-.34-.08.03,0,.02.08.03.34.02.72.19,1.05.29.67.19,1.35.4,1.98.7,1.12.53,2.16,1.2,3.33,1.65.56.21,1.22.42,1.83.4.32,0,.62-.13.85-.35s.24-.47.37-.71l-1.83-.24c.09.29.06.47-.11.74l1.37-.36c-1.29-.94-1.64-2.7-1.98-4.16-.26-1.09-2-.87-1.96.27,0,.17.07.55-.03.68l.6-.46c-.24.08-.98-.24-1.26-.37-.31-.15-1.06-.54-1.11-.77v.53c-.19.17-.21.22-.07.13.06-.04.12-.06.18-.08.13-.05.27-.08.41-.1s.29-.02.42,0c.23.03.31.22.13-.09l-.14-.5v.11c.09-.24.19-.47.28-.71l-.09.09.44-.26c-1.05.43-2.25.77-3.37.96-.49.08-.67.03-1.07-.23-.52-.33-1.19-.34-1.66.1-.76.7-1.09,2.02-1.38,2.98-.33,1.08-.57,2.2-1.02,3.24l1.86.5c.15-1.22.3-2.46.2-3.7-.04-.6-.2-1.18-.25-1.78,0-.1.02-.22,0-.31-.04-.13.18-.22-.14-.01-.37.24.11.12.27.12.18,0,.36,0,.54-.02,1.25-.06,2.48-.3,3.7-.53.61-.11,1.21-.23,1.83-.32.21-.03.51-.12.72-.07.18.04.23.17.33.37.43.86.53,1.85.92,2.73.42.93,1.54,2.22,2.59,1.24.8-.74.81-1.98.61-2.96-.11-.55-.3-1.08-.51-1.59s-.38-1.22-.8-1.62c-.51-.49-1.44-.41-2.1-.46s-1.36-.1-2.04-.15c-1.51-.1-3.02-.16-4.54-.15-1.3,0-1.27,1.9,0,2,2.52.2,5.04.37,7.56.5,1.29.07,1.28-1.93,0-2h0Z" fill="#dccaff"/><path d="m5.02,19.53c2-.19,3.99-.15,5.99.04s4.03.45,6.06.3c.41-.03.59-.4.43-.75-.04-.09-.07-.17-.11-.26-.26-.59-1.12-.08-.86.5.04.09.07.17.11.26l.43-.75c-2.03.14-4.04-.11-6.06-.3s-3.99-.24-5.99-.04c-.63.06-.64,1.06,0,1h0Z" fill="#dccaff"/><path d="m4.25,19.98c1.7.07,3.4-.21,5.1-.12.84.04,1.66.16,2.5.15s1.69-.08,2.54-.03c.64.04.64-.96,0-1-.85-.05-1.69.02-2.54.03s-1.67-.11-2.5-.15c-1.71-.08-3.4.19-5.1.12-.64-.02-.64.98,0,1h0Z" fill="#dccaff"/><rect x="4.57" y="17.5" width="14" height="2" fill="none" stroke="#dccaff" stroke-miterlimit="10"/></g><g id="Layer_2"><path d="m5.38,8.05c-.43.54-.89-.19-.59-.64.33-.5,1.06-.42,1.53-.22.64.28.78.69.66,1.36-.08.48-.19,1.03-.57,1.36-.35.3-.86.39-1.3.47-.62.12-1.3.25-1.89-.03-.87-.41-1.61-1.29-1.96-2.16-.85-2.1.48-4.02,2.48-4.71,1.08-.37,2.22-.45,3.35-.5,1.24-.05,2.48-.07,3.73-.07,1.31,0,2.63,0,3.94,0,.66,0,1.32,0,1.98.07s1.32.28,1.99.27.64-1.01,0-1c-.85.01-1.72-.26-2.57-.31-.95-.05-1.91-.03-2.86-.03-1.82,0-3.64-.01-5.46.04-2.72.08-6.29.34-7.52,3.26-.56,1.34-.36,2.9.41,4.11.72,1.14,1.93,2.21,3.35,2.18,1.27-.03,2.94-.33,3.55-1.59.56-1.17.69-2.7-.52-3.46-1.15-.72-3.12-.56-3.4,1.03-.24,1.34,1.46,2.41,2.39,1.25.4-.5-.3-1.21-.71-.71h0Z" fill="#a0a0a0"/><path d="m16.71,2.9c1.35.11,2.92.42,3.74,1.62.15.22.44.32.68.18.22-.13.33-.46.18-.68-1.04-1.53-2.87-1.97-4.6-2.11-.27-.02-.5.25-.5.5,0,.29.23.48.5.5h0Z" fill="#a0a0a0"/><path d="m15.66,2.94s.08-.01.12-.02l-.13.02c.31-.04.62-.04.93,0l-.13-.02c.06,0,.13.02.19.03.13.02.26.02.39-.05.1-.06.2-.18.23-.3.03-.13.02-.27-.05-.39-.07-.1-.17-.21-.3-.23-.25-.05-.5-.08-.75-.08s-.51.03-.76.07c-.12.02-.24.13-.3.23-.06.11-.09.27-.05.39s.11.24.23.3l.12.05c.09.02.18.02.27,0h0Z" fill="#a0a0a0"/><path d="m20.49,4.61c.49.42.66,1.19.74,1.8.09.69.07,1.43-.13,2.1-.37,1.25-1.89,2.03-3.13,2.04-.64,0-.64,1,0,1,1.65-.01,3.51-1.04,4.06-2.66.27-.82.29-1.75.18-2.6s-.36-1.82-1.02-2.39c-.49-.42-1.2.29-.71.71h0Z" fill="#a0a0a0"/><path d="m18.7,10.56c-.2-.04-.39-.05-.59-.04-.19.01-.37.04-.56.03-.07,0-.28-.06-.35-.09-.16-.06-.32-.15-.47-.24-.29-.16-.49-.3-.71-.54-.06-.07-.06-.06-.11-.13s-.09-.14-.12-.21c0-.01-.04-.08-.02-.03-.01-.03-.03-.07-.04-.1-.01-.04-.03-.09-.04-.13,0-.01-.02-.12-.01-.05-.03-.27-.21-.5-.5-.5-.25,0-.53.23-.5.5.09.88.66,1.52,1.39,1.97.34.21.72.41,1.11.5.22.05.45.06.68.05.1,0,.21-.02.31-.02.08,0,.22,0,.27,0,.27.05.54-.07.62-.35.07-.24-.08-.56-.35-.62h0Z" fill="#a0a0a0"/><path d="m15.73,9.26c-.02-.3-.03-.6-.03-.9,0-.12,0-.23.01-.35.01-.16,0-.16.05-.31.01-.06.03-.12.05-.18-.02.06.04-.07.05-.09.06-.11.08-.13.2-.24,0,0,.06-.05.03-.02-.04.03.05-.03.05-.03.05-.03.1-.06.16-.09.02,0,.13-.06.07-.04.06-.03.13-.05.2-.07.28-.09.5-.13.78-.12.03,0,.06,0,.12.02.03,0,.07.02.1.03,0,0,.08.03.04.01s.03.02.03.02c.03.02.06.03.09.05.02.01.04.03.06.04.03.02.03.02,0,0l.04.03s.04.04.05.06c.05.06-.03-.05.01.02.01.02.03.05.04.07,0,0,.03.09.02.03.02.05.03.11.05.16,0,.04.02.07.02.11,0,.01.01.09,0,.04.02.13.02.27.02.4,0,.08-.03.18-.07.24-.01.02-.02.04-.04.06.05-.06-.02.01-.03.02-.04.04,0,0,0,0-.03.02-.07.04-.1.06-.05.03,0,0,.01,0-.04.02-.08.02-.11.04-.05.02,0,0,.02,0-.04,0-.08,0-.12,0-.06,0,0,0,.01,0-.04,0-.08-.02-.12-.03-.05-.02,0,0,0,0-.04-.02-.07-.04-.1-.06-.05-.03,0,0,0,0-.03-.03-.06-.05-.09-.08-.04-.04,0,0,0,0,0,0-.07-.14-.04-.05-.1-.25-.33-.43-.62-.35-.23.06-.45.36-.35.62.17.4.43.69.84.85.37.14.78.1,1.12-.08.77-.4.84-1.32.66-2.08-.42-1.77-2.99-1.54-3.88-.31-.5.69-.4,1.67-.36,2.46.01.26.22.51.5.5.26-.01.52-.22.5-.5h0Z" fill="#a0a0a0"/><path d="m16.86,5.72l-7.42.07c-1.21.01-2.41,0-3.62.04-.81.02-1.69.26-1.87,1.17-.13.63.84.9.96.27.1-.49.73-.43,1.12-.43.53,0,1.05-.01,1.58-.02l3.04-.03,6.2-.06c.64,0,.64-1.01,0-1h0Z" fill="#a0a0a0"/><path d="m16.45,6.74c.16-.02.32-.03.48-.04.09,0,.17,0,.26,0,.03,0,.06,0,.09,0,.05,0,.04,0-.04,0,.02,0,.04,0,.06.01.07.01.14.04.21.06.05.02.04.01-.03-.01.02,0,.04.02.06.03.04.02.07.04.11.06.03.02.05.04.08.05.04.03.03.02-.03-.02.02.01.03.03.05.04.06.06.12.11.18.18.18.19.53.2.71,0s.19-.5,0-.71c-.28-.3-.63-.54-1.04-.63-.38-.08-.77-.06-1.15-.02-.14.01-.25.05-.35.15-.09.09-.15.23-.15.35.01.25.22.53.5.5h0Z" fill="#a0a0a0"/><path d="m4.36,6.33c-.17.18-.33.38-.47.58l.86.5c.05-.12.11-.22.19-.32l-.08.1s.08-.1.12-.14c.05-.05.08-.1.1-.16.03-.06.05-.12.04-.19,0-.07-.01-.13-.04-.19-.02-.06-.05-.12-.1-.16l-.1-.08c-.08-.05-.16-.07-.25-.07l-.13.02c-.08.02-.16.07-.22.13-.03.03-.07.07-.1.11-.06.07-.11.14-.16.21-.05.08-.1.16-.14.25-.04.06-.06.12-.06.19-.01.07-.01.13,0,.2.02.07.05.12.09.17.04.05.08.1.14.13l.12.05c.09.02.18.02.27,0l.12-.05c.08-.04.13-.1.18-.18.04-.06.08-.11.12-.16l-.08.1c.08-.11.18-.21.27-.31.05-.05.08-.1.1-.16.03-.06.05-.12.04-.19,0-.07-.01-.13-.04-.19-.02-.06-.05-.12-.1-.16l-.1-.08c-.08-.05-.16-.07-.25-.07l-.13.02c-.08.02-.16.07-.22.13h0Z" fill="#a0a0a0"/><rect x="7.57" y="8.5" width="8" height="0" fill="none" stroke="#a0a0a0" stroke-miterlimit="10"/><rect x="3.57" y="11.5" width="1" height="8" fill="none" stroke="#a0a0a0" stroke-miterlimit="10"/><rect x="17.57" y="11.5" width="1" height="8" fill="none" stroke="#a0a0a0" stroke-miterlimit="10"/><rect x="6.57" y="12.5" width="1" height="7.5" fill="#a0a0a0"/><rect x="8.57" y="12.5" width="1" height="7.5" fill="#a0a0a0"/><rect x="10.57" y="12.5" width="1" height="7.5" fill="#a0a0a0"/><rect x="12.57" y="12.5" width="1" height="7.5" fill="#a0a0a0"/><rect x="14.57" y="12.5" width="1" height="7.5" fill="#a0a0a0"/></g></svg>