<?xml version="1.0" encoding="UTF-8"?><svg xmlns="http://www.w3.org/2000/svg" width="30" height="30" viewBox="0 0 30 30"><g id="Layer_2"><path d="m15.11,8.92c.06.18.1.36.13.54l-.05-.4c.03.26.04.51,0,.77l2.8-.76c-.08-.15-.15-.3-.22-.46l.15.36c-.05-.11-.09-.23-.13-.34-.05-.2-.14-.37-.27-.51-.11-.16-.25-.29-.42-.39-.17-.11-.36-.17-.56-.18-.2-.04-.4-.04-.6.03l-.36.15c-.23.13-.4.31-.54.54l-.15.36c-.07.27-.07.53,0,.8.09.26.2.51.3.75.06.14.13.27.2.4l.23.3c.14.15.3.25.48.31.12.07.24.1.38.1.2.04.4.04.6-.03l.36-.15.3-.23c.15-.14.25-.3.31-.48.09-.18.14-.37.13-.58.03-.22.03-.45,0-.68-.04-.35-.08-.7-.19-1.04-.05-.2-.14-.37-.27-.51-.11-.16-.25-.29-.42-.39-.17-.11-.36-.17-.56-.18-.2-.04-.4-.04-.6.03l-.36.15c-.23.13-.4.31-.54.54l-.15.36c-.07.27-.07.53,0,.8h0Z" fill="#939393"/><path d="m16.95,8.2c-.18-.99-.49-2.02-1.28-2.71-.95-.81-2.07-.95-3.2-.45l1.51,2.59c.67-.48,1.33-.97,2-1.45.26-.19.61-.53.87-.66.02,0,.41-.08.32-.07.03,0,.43.03.3,0-.08-.02.18.15.04.03.12.11.22.23.32.36.21.25.4.5.64.71.15.13.4.34.59.44.02.01.25.12.11.03.17.12.03.18.03,0,0,0,0,.45,0,.28-.08.82-.36,1.61-.42,2.44s.02,1.66-.1,2.47c-.05.37-.25.96-.51,1.24-.69.74-1.26,1.73-.61,2.72.62.93,1.98,1,2.59,0,.11-.18.21-.34.35-.5.52-.62.61-1.52,0-2.12-.54-.54-1.59-.62-2.12,0-.3.35-.58.71-.82,1.11h2.59l-.07-.11.2.76c-.01.17-.07.31-.16.44.08-.08.15-.15.23-.23.16-.18.32-.37.45-.57.27-.39.46-.84.6-1.29.27-.84.32-1.76.33-2.63s.11-1.69.29-2.57c.2-.96.28-1.97-.23-2.86-.27-.46-.66-.78-1.08-1.08-.29-.2-.4-.32-.67-.66-.65-.79-1.4-1.29-2.44-1.38-.46-.04-.93.03-1.38.13-.57.12-.96.42-1.42.75-.78.57-1.57,1.14-2.35,1.71-.65.48-.98,1.3-.54,2.05s1.31.87,2.05.54c-.14.1-.28.11-.41.06.17.05.2.06.08.02-.09-.03.06.06.09.11.18.3.24.79.31,1.17.15.8,1.11,1.25,1.85,1.05.84-.23,1.2-1.05,1.05-1.85h0Z" fill="#939393"/><path d="m18.92,6.27l-.56-.79c-.55-.78-1.62-1.03-2.36-.3-1.54,1.53-2.41,3.59-2.49,5.75-.05,1.53,2.04,1.99,2.8.76.57-.94,1.15-1.88,1.72-2.82.06-.1.19-.25.22-.36.05-.15-.14.11-.02.01.34-.28-.64.34-.9.18-.02-.01-.18-.11-.16-.15.02-.03.17.35.11.19s.05.23.05.22c-.04-.17,0-.09,0,.04,0,.14,0,.28-.02.41-.03.27.03-.17-.02.1-.03.14-.05.27-.08.41-.05.25-.11.49-.16.73-.11.49-.23.98-.36,1.47-.27,1.02-.56,1.84-1,2.68h2.59c-.09-.15-.1-.16-.04,0-.03-.09-.05-.17-.07-.26.06.31,0-.16,0-.24,0-.36.04-.73.01-1.09-.06-.8-.29-1.53-.65-2.24-.28-.56-.64-1.07-.98-1.6-.17-.26-.34-.53-.48-.81-.03-.05-.25-.55-.13-.24-.07-.16-.12-.33-.16-.5-.21-.76-1.07-1.3-1.85-1.05s-1.27,1.03-1.05,1.85c.39,1.41,1.34,2.48,2,3.75.03.06.23.55.12.23.04.12.09.24.12.37.02.09.07.59.06.24,0,.19,0,.39,0,.58-.02.88-.01,1.77.5,2.53.59.89,2.04,1.06,2.59,0,.66-1.25,1.11-2.6,1.45-3.97s.86-2.97.44-4.39c-.5-1.7-2.57-3.08-4.07-1.56-.5.5-.83,1.22-1.2,1.82-.4.65-.8,1.3-1.2,1.96l2.8.76c0-.2.02-.4.04-.6-.04.28.06-.29.07-.34.04-.19.1-.39.16-.58.02-.05.22-.56.12-.34.16-.37.36-.72.58-1.05.06-.08.11-.16.17-.24-.08.11-.07.09.05-.05.14-.15.27-.3.41-.44l-2.36-.3.56.79c.45.64,1.33,1,2.05.54.63-.41,1.03-1.37.54-2.05h0Z" fill="#939393"/><path d="m12.23,7.71c-.22,1.7-1.85,3.05-2.97,4.2-.37.38-.75.74-.82,1.29s.18,1.03.5,1.47c.42.58,1.09,1.26,1.14,2.01.03.54.44,1,1,1,.52,0,1.03-.46,1-1-.06-.96-.48-1.75-1.04-2.51-.14-.19-.28-.37-.41-.56-.04-.06-.1-.19-.15-.22,0-.04-.02-.06-.05-.06l-.14.41s1.03-1.06,1.12-1.16c1.35-1.4,2.57-2.87,2.82-4.86.07-.54-.51-1-1-1-.6,0-.93.46-1,1h0Z" fill="#939393"/><path d="m9.69,16.09v1.47c.66-.09,1.31-.18,1.97-.27-.1-.41-.15-.81-.16-1.23-.04-1.28-2.01-1.29-2,0,.01,1.07-.23,2-.58,3.01-.3.88-.37,1.91.44,2.56.76.6,2,.47,2.91.41,1.17-.08,2.33-.31,3.44-.67l-.77-1.83h-.08c.24.55.47,1.12.71,1.69.67-.86,1.9-1.05,2.74-1.73.89-.72,1.5-1.74,1.74-2.86.07-.32.03-.75-.26-.97-2.29-1.79-3.44-4.58-5.53-6.56-.36-.34-1.07-.43-1.41,0-1,1.25-1.94,2.54-2.82,3.88-.72,1.1.98,2.02,1.73,1.01.52-.7,1.2-1.19,1.98-1.56l-1.47-1.13c-.09.65-.52,1.11-.83,1.68-.35.65-.52,1.33-.38,2.06s.4,1.36.38,2.13c-.03.84-.31,1.61-.75,2.32-.32.51-.04,1.36.6,1.47,2.29.39,4.61-.45,6.01-2.35.77-1.05.98-2.25.28-3.39-.74-1.21-1.63-2.35-2.44-3.51-.53-.76-1.49-.56-1.83.24-.52,1.23-.81,2.53-.87,3.86-.06,1.13-.08,2.69.98,3.41s2.23.19,2.66-.93c.45-1.19.23-2.51-.24-3.66-.32-.77-1.34-1.03-1.83-.24-.79,1.29-1.29,2.7-1.48,4.2s.03,3.03-.55,4.39l1.83.24c-.07-.35-.14-.7-.21-1.06-.24-1.19-1.85-.77-1.96.27-.08.71-.19,1.42-.32,2.12-.12.63.27,1.27.96,1.27,2.9-.02,5.8,0,8.7.05,1.29.02,1.29-1.98,0-2-2.9-.05-5.8-.06-8.7-.05l.96,1.27c.17-.88.3-1.76.39-2.65l-1.96.27c.07.35.14.7.21,1.06.16.8,1.49,1.03,1.83.24.61-1.41.65-2.84.74-4.35s.49-2.93,1.29-4.24l-1.83-.24c.24.6.47,1.25.41,1.91-.01.14-.1.32-.09.45l-.06.16.36-.11c.05-.09-.1-.74-.1-.84-.06-1.48.23-2.89.81-4.25l-1.83.24c.59.84,1.18,1.69,1.76,2.53.24.35.55.7.74,1.08.21.42.05.73-.21,1.1-.84,1.2-2.43,1.85-3.87,1.6l.6,1.47c.91-1.46,1.23-3.21.87-4.9-.15-.73-.43-1.09-.03-1.77.38-.64.83-1.23.93-1.99.12-.88-.63-1.53-1.47-1.13-1.1.52-1.97,1.3-2.7,2.27l1.73,1.01c.78-1.2,1.61-2.36,2.5-3.48h-1.41c2.09,1.98,3.24,4.77,5.53,6.56l-.26-.97c-.2.96-.71,1.71-1.58,2.18s-1.77.73-2.39,1.53c-.55.7-.2,1.62.71,1.71.41.04.74-.06,1.09-.26.98-.54.32-2.18-.77-1.83-.76.25-1.54.45-2.34.55-.42.05-.85.08-1.28.08-.19,0-.38,0-.57,0-.13,0-.43-.1-.36.04.06.1.2-.46.25-.59.13-.36.26-.72.35-1.1.19-.77.27-1.56.26-2.35h-2c.02.59.09,1.18.23,1.76.26,1.11,1.97.85,1.96-.27v-1.47c0-1.29-2-1.29-2,0h0Z" fill="#939393"/><path d="m15.96,23.9c-.05-.16-.1-.33-.13-.5-.01-.06-.02-.15,0-.04,0-.09-.01-.17-.02-.26,0-.15,0-.31.01-.46.01-.17,0,0,.01-.09.02-.08.03-.17.05-.25.04-.15.08-.3.14-.44.06-.17-.1.19.04-.09.03-.06.06-.12.09-.18.18-.33.24-.41.54-.69l-1.71-.71c-.02.55-.23,1.13-.62,1.54-.49.52-1.19.86-1.63,1.56s.3,1.77,1.13,1.47c.51-.18.98-.38,1.37-.76.34-.33.58-.74.81-1.14.51-.87,1.07-1.71,1.68-2.51l-1.37.36c.29.21.58.41.9.58.54.3,1.33.05,1.47-.6.08-.35.12-.69.1-1.05l-1.71.71s.2.23.1.1c.05.07.09.14.13.21.1.18.14.28.18.36.16.4.3.8.5,1.18.44.82,1.21,1.51,1.82,2.21l-.16-1.21-.05.07.36-.36c.15-.06.31-.06.46,0l-.1-.05c-.13-.09-.3-.15-.45-.2-.27-.1-.55-.14-.83-.17-.23-.02-.47-.04-.71-.05-.22,0,.05.03-.14-.02-.05-.01-.32-.09-.27-.07.06.02.04,0-.06-.04.06.05.06.05.01,0-.05-.05-.05-.05,0,.02-.06-.08-.12-.16-.19-.24-.22-.23-.48-.39-.81-.42-.42-.04-.8.12-1.05.47-.18.24-.26.55-.36.83-.16.46.15,1.01.58,1.18.5.2.94,0,1.25-.41s.36-.95.32-1.44c-.02-.19-.04-.38-.04-.57,0-.17-.03.02.01-.05.08-.13-.21.22,0,.05l-1.57-.2c.56.8,1.12,1.59,1.68,2.39.31.44.87.65,1.37.36.44-.26.67-.92.36-1.37-.56-.8-1.12-1.59-1.68-2.39-.39-.56-1.05-.64-1.57-.2-.44.37-.61.96-.6,1.52,0,.19.04.39.05.58,0,.1.02.2,0,.3.02-.1,0-.1-.02.02.04-.1.02-.09-.04,0l1.83.77c.06-.16.11-.33.18-.49l-.26.44.06-.07-.44.26.07-.02h-.53c-.16-.03-.49-.43-.13,0,.07.08.13.14.21.21.22.18.44.3.7.4.43.17.9.2,1.35.23.21.01.36.02.49.05.15.04.31.14.51.22.66.27,1.35.07,1.75-.53.25-.39.13-.89-.16-1.21-.56-.64-1.23-1.24-1.6-1.99-.07-.15,0,0-.04-.09-.03-.08-.06-.16-.09-.24-.09-.24-.19-.48-.29-.71-.17-.38-.41-.73-.71-1.03-.59-.59-1.75-.18-1.71.71,0,.19,0,.35-.03.52l1.47-.6c-.31-.18-.61-.37-.9-.58-.47-.35-1.07-.03-1.37.36-.53.69-1.03,1.42-1.48,2.17-.19.31-.35.66-.57.95-.11.14-.34.28-.61.38l1.13,1.47c.12-.19.4-.4.64-.58.4-.31.75-.62,1.05-1.03.54-.72.81-1.61.84-2.51s-1.1-1.29-1.71-.71c-1.3,1.25-1.81,3.24-1.24,4.95.17.51.69.85,1.23.7.5-.14.87-.72.7-1.23h0Z" fill="#939393"/></g><g id="Layer_1"><path d="m22.96,25.42l-3.59-6.32c.62-.72,1.02-1.54.97-2.56.42-.17.78-.42,1.06-.75.05-.06.08-.13.09-.21.04-.45.16-1.18.3-2.02.69-4.18,1.2-8.04-.05-9.25-.21-.2-.56-.41-1.07-.37l-1.5-1.81c-.07-.09-.3-.12-.3-.12h-3.28s-.18.01-.25.07l-4.04,3.4c-.06.05-.1.11-.12.19-.34,1.16.13,1.95.61,2.37l-4.09,5.11s0,.01-.01.02c-.06.08-.08.17-.09.26h0s.01,0,.01,0c0,0,.03.02.03.02h0s-.03,0-.05,0h0c.03.06.05.12.09.17l1.32,1.86-.22,1.36s0,0,0,0l-.24,1.47c-1.15,2-.39,3.24.45,3.93.05.04.12.07.18.08.57.09,1.19.14,1.85.16l-.53,3.08c-.02.11.01.23.09.32.07.09.18.14.3.14h11.74c.14,0,.27-.08.33-.19.07-.12.07-.27,0-.39h0ZM13.52,7.07l1.1.78-1.28,5.21-4.55-.07,4.74-5.92Zm-4.38,11.72l2.56.06s0,0,0,0c.21,0,.38-.17.39-.38,0-.21-.16-.39-.38-.4l-2.35-.06.12-.77,3.47-.09,1.42,1.16c.07.06.16.09.25.09.11,0,.22-.05.3-.14.14-.17.11-.41-.05-.54l-1.53-1.26c-.07-.06-.16-.09-.26-.09l-3.47.09.17-1.07c.02-.1,0-.2-.07-.29l-.98-1.37,4.88.09h0c.18,0,.33-.12.38-.29l1.42-5.77c.04-.15-.02-.32-.15-.41l-1.61-1.15c-.17-.12-.4-.09-.53.07l-.89,1.11c-.25-.23-.56-.68-.38-1.44l3.85-3.23h2.95l1.52,1.83c.09.11.23.16.37.13.35-.07.52.05.62.14,1.07,1.03.26,5.93-.17,8.56-.13.78-.24,1.47-.3,1.94-.24.25-.55.43-.93.54,0,0,0,0,0,0-.24.07-.5.11-.8.12l1.61-9.05c.04-.21-.1-.41-.31-.45-.21-.04-.41.1-.45.31l-1.69,9.5c-.03.16.05.33.21.41.05.03.11.04.16.04.1,0,.2,0,.29,0,.27,0,.52-.02.75-.06-.02,1.44-1.24,2.4-2.64,3.49-.45.35-.92.72-1.35,1.11-2.43.39-4.5.46-6.15.22-.53-.46-1.06-1.24-.27-2.73h0Zm2.19,6.43l.47-2.71s0-.02,0-.04c1.21-.02,2.54-.15,3.99-.39.07-.01.14-.05.2-.1.43-.4.92-.78,1.39-1.15.48-.38.97-.76,1.41-1.17l3.15,5.55h-10.62s0,0,0,0Z"/><path d="m17.48,6.35c.19,0,.36-.15.38-.34.02-.21-.13-.4-.34-.43l-2.84-.33c-.21-.03-.4.13-.43.34-.02.21.13.4.34.43l2.84.33s.03,0,.04,0h0Z"/></g></svg>