<?xml version="1.0" encoding="UTF-8"?><svg xmlns="http://www.w3.org/2000/svg" width="30" height="30" viewBox="0 0 30 30"><g id="Layer_3"><path d="m12.4,1.95c-.45-.09-.87.13-1.09.54-.17.32-.26.7-.36,1.04s-.19.69-.25,1.04c-.04.23-.06.45,0,.68.05.21.16.39.29.56.16.21.54.18.71,0,.2-.22.17-.49,0-.71.07.09-.05-.14-.01-.03,0,0-.04-.16-.02-.05-.03-.14,0-.2.03-.34.05-.26.12-.53.19-.79s.15-.52.23-.77c.02-.04.03-.09.05-.13-.03.09.04-.07.05-.09-.05.08.04-.07-.02.01.05-.03.05-.03,0,0-.03,0-.06,0-.08,0,.26.05.55-.07.62-.35.06-.25-.07-.56-.35-.62h0Z" fill="#ffdabb"/><path d="m12.7,2.96c.37.04.74-.01,1.11.01.18.01.39.07.51.21-.05-.06.04.08.03.06.01.03.02.1.02.11.01.17,0,.26-.03.42-.06.34-.15.68-.24,1.02-.05.16-.1.32-.15.48-.03.08-.05.17-.09.24.02-.04,0,.02-.02.03.01-.01.02-.03.04-.04.05-.01-.12.02-.08.01-.09.02-.19.02-.28.03-.19.02-.38.03-.56.04s-.38,0-.57,0c-.06,0-.2-.03-.26,0l.14.11c.11.13.16.16.13.08,0-.04,0-.03,0,.01v-.06c0-.31-.02-.62,0-.93.02-.18.03-.26.06-.44.03-.17.08-.33.13-.5.08-.24.25-.57.42-.76l-.85-.35c-.04.5-.12,1-.23,1.49-.12.54-.27,1.05-.02,1.57.16.32.71.33.86,0,.22-.48.35-.99.53-1.49.13-.38.31-.73.62-1.01l-.84-.49c-.08.54-.3,1.04-.46,1.56s-.39,1.39.18,1.72c.24.14.53.04.68-.18.6-.89,1.03-1.9,1.27-2.95l-.98-.13c-.1.94-.29,1.87-.55,2.78-.07.26.09.54.35.62s.54-.09.62-.35c.29-1,.48-2.02.58-3.05.03-.24-.21-.46-.43-.49s-.49.11-.55.36c-.22.98-.61,1.88-1.17,2.71l.68-.18c.08.04.12.1.14.18,0,.04,0,.03,0-.04,0-.05,0-.1,0-.15,0-.09.02-.15.04-.26.05-.21.11-.41.18-.62.14-.42.3-.83.37-1.27.03-.22-.02-.44-.23-.56s-.44-.07-.61.08c-.39.34-.63.8-.82,1.28s-.28.96-.49,1.42h.86s-.02-.09-.01-.02c0-.04,0-.08,0-.12,0-.11.01-.13.04-.25.05-.23.11-.45.15-.68.1-.49.16-.99.21-1.49.04-.42-.58-.68-.85-.35-.55.66-.8,1.45-.89,2.29-.04.38-.05.77-.02,1.15.03.27.13.53.38.66.22.12.5.1.74.1.49,0,.99-.03,1.47-.11.22-.03.42-.11.58-.28.18-.19.26-.44.34-.68.14-.43.26-.86.36-1.3s.18-.9.03-1.32c-.17-.46-.58-.77-1.05-.88-.51-.12-1.03-.01-1.54-.07-.27-.03-.5.25-.5.5,0,.3.23.47.5.5h0Z" fill="#ffdabb"/><path d="m12.31,7.76c.53.21,1.12.55,1.71.44.7-.13,1.23-.85.98-1.56-.17-.47-.59-.79-1.1-.72-.44.07-.93.48-.87.98.08.68.14,1.49.48,2.1s.97.88,1.59,1.09c.57.19,1.17.3,1.76.45.26.07.54.14.79.25.07.03.5.28.47.31-.03.03-.06-.15-.05-.13.02-.09.02-.09,0-.02-.04.12,0,.07.1-.15.1-.1.22-.13.34-.11l-.13-.03c-.13-.05-.28-.08-.41-.13-.56-.2-1.08-.53-1.58-.85s-1.01-.69-1.5-1.04c-.42-.3-.76-.61-.9-1.11-.28-1-1.6-.89-1.93,0-.22.61-.46,1.22-.82,1.77-.3.46-.72.86-1.04,1.32-.37.54-.57,1.17-.57,1.83s.22,1.3.2,1.97c-.02.54.47,1,1,1,.56,0,.98-.46,1-1,.02-.62-.16-1.21-.19-1.83-.03-.48.14-.79.44-1.16.4-.49.81-.95,1.11-1.51.32-.59.56-1.24.79-1.87h-1.93c.44,1.6,2,2.51,3.32,3.35,1.08.7,3.14,2,4.25.73.52-.6.55-1.5.12-2.16s-1.16-.99-1.88-1.22-1.42-.33-2.11-.54c-.15-.05-.45-.12-.53-.22-.09-.12-.1-.43-.13-.58-.03-.17-.06-.33-.08-.5l-1.96.27.03.09v-.53l-.02.09.26-.44.05-.02.5-.14c-.26.02-.77-.28-1.05-.39-.5-.2-1.1.22-1.23.7-.16.57.19,1.03.7,1.23h0Z" fill="#ffdabb"/><path d="m9.53,13.56c.05.39.1.78.21,1.16.05.16.1.31.16.47.05.12.1.25.15.37.06.14.07.17.04.09v-.53.07c.22-.23.45-.47.68-.7h-.04c.26.05.51.08.77.11l-.04-.03.46,1.13v-.03c-.23.23-.46.47-.69.7,1.11-.22,1.52-1.3,1.79-2.26.23-.83.45-1.75.99-2.42.08-.1.24-.24.33-.34.07-.08.11-.03.05-.06-.13-.04-.18-.04-.16.02.01.05.05.07.12.08.14.15.39.26.55.38s.33.24.49.37c.76.6,1.45,1.27,2.09,1.98l-.26-.97c-.06.26-.09.53-.19.78l.26-.44.05-.03.5-.14s.08.02.09.03c-.04-.06-.21-.13-.28-.17-.15-.09-.29-.19-.44-.29-.29-.2-.57-.41-.84-.63-.58-.49-1.12-1.03-1.61-1.61-.53-.63-1.43-.19-1.67.44-.54,1.42-.87,2.88-1.04,4.38-.04.39.34.9.73.96.53.09.97-.02,1.36-.41.21-.21.43-.54.54-.67.09-.11.18-.22.28-.31-.11.09.23-.06.07-.04-.08,0,.12.03.17.05.11.04.14.06.25.12.26.14.39.24.59.44.23.23.31.45.55.7.37.39.98.46,1.45.19s.58-.73.64-1.21c.06-.54-.5-1-1-1-.59,0-.94.46-1,1l.15-.36.44-.26-.09.03h.53l-.09-.02.44.26c.19.17-.06-.09-.11-.15-.11-.15-.22-.29-.34-.43-.16-.18-.33-.33-.51-.48-.51-.4-1.09-.74-1.74-.84s-1.28.11-1.78.56c-.17.15-.32.33-.46.51.16-.2-.33.43-.2.26-.04.06-.09.11-.14.17-.12.11-.09.11.09,0h.53l-.1-.02.73.96c.15-1.32.49-2.62.97-3.85l-1.67.44c.86,1.01,1.86,1.89,2.96,2.63.63.42,1.37.9,2.13.45.36-.22.52-.61.61-1.01.05-.22.13-.48.13-.71,0-.33-.18-.57-.38-.81-.88-1-1.92-1.88-3.01-2.64-.7-.49-1.45-.9-2.29-.46-.58.31-1.06.87-1.41,1.42-.41.64-.67,1.39-.88,2.12-.1.35-.18.7-.29,1.04-.03.11-.09.25-.14.32.04-.06-.07.07-.07.06.07-.04.1-.05-.04-.02-.32.06-.64.38-.7.7v.03c-.1.47.06.86.45,1.13.25.17.57.19.85.11.32-.09.63-.36.7-.7.15-.73-.39-1.43-.48-2.16-.07-.54-.41-1-1-1-.49,0-1.07.46-1,1h0Z" fill="#ffdabb"/><path d="m12.03,17.62c1.3.29,2.5-.09,3.68-.63.06-.03.57-.24.57-.27.01.18-.39-.14-.07.05.07.04.15.07.22.11.33.17.61.33.64.62.05.52-.19,1.11-.25,1.62-.08.59-.1,1.17-.07,1.77.03.63.11,1.25.22,1.87,0,.02.08.56.09.56,0,0,.28-.25.17-.16-.06.05-.02-.04.06.03.1.08-.11-.08-.09-.05-.11-.14-.17-.3-.22-.47-.16-.56-.15-1.17-.09-1.74.12-1.12.51-2.19.75-3.29.11-.52.23-1.06.06-1.59-.24-.71-.96-1.07-1.68-.89-.58.14-.94.62-1.38.98-.37.3-.87.23-1.32.37-.63.19-1.17.64-1.35,1.29s-.23,1.34-.34,1.99c-.24,1.41-.5,2.81-.78,4.21-.1.53.15,1.08.7,1.23.49.14,1.12-.17,1.23-.7.36-1.81.69-3.63.99-5.45.03-.2.09-.42.1-.62l.03-.12-.09.14s-.01-.03.07-.04c.19-.02.65-.09.93-.16.46-.11.85-.36,1.2-.67.21-.18.41-.49.68-.52h-.53l-.35-.4v-.07s-.02.18,0,.04c-.03.23-.09.47-.15.7-.11.46-.23.92-.35,1.38-.23.9-.43,1.83-.46,2.76s.1,1.92.61,2.67,1.39,1.2,2.28.95,1.39-1.11,1.29-2.04-.3-1.8-.3-2.74c0-.42.02-.84.1-1.25.09-.47.22-.94.24-1.43.03-.95-.47-1.7-1.22-2.24-.34-.24-.75-.45-1.15-.58-.58-.19-1.07,0-1.59.24-.77.37-1.67.83-2.55.63-.53-.12-1.08.16-1.23.7-.14.5.17,1.11.7,1.23h0Z" fill="#ffdabb"/><path d="m11.39,20.07c-.65,2.09-1.31,4.18-1.96,6.27-.23.74.52,1.42,1.23,1.23.33-.09.6-.25.85-.48.38-.36.39-1.06,0-1.41-.41-.38-1.01-.38-1.41,0,.04-.04.24-.09.04-.03l1.23,1.23c.66-2.09,1.31-4.18,1.96-6.27.16-.5-.18-1.11-.7-1.23-.54-.12-1.06.16-1.23.7h0Z" fill="#ffdabb"/><path d="m11.88,26.83c.83-.22,1.61-.6,2.42-.86.34-.11.69-.21,1.04-.24.19-.01.4-.02.59,0-.06,0,.15.03.12.03.06.01.13.03.19.05.13.05.09.02-.12-.09l-.29-.71v.07c.11-.24.2-.47.3-.71l-.06.07.44-.26c-.65.17-1.36.2-2.02.29l.53,1.93c.68-.26,1.37-.49,2.06-.69.65-.19,1.34-.29,1.97-.54.85-.34,1.27-1.14,1.09-2.04-.14-.68-.59-1.27-1.02-1.8-.88-1.08-1.92-2.03-2.96-2.95-.56-.5-1.23-1.32-2.07-1.11-.88.22-1.01,1.18-1.19,1.94-.39,1.64-.64,3.32-.76,5-.05.72.9,1.29,1.5.86.94-.67,1.41-1.88,1.85-2.92.23-.54.44-1.09.57-1.67.15-.68.08-1.68-.8-1.81-.7-.1-1.18.27-1.27.96-.2,1.57-.22,3.15-.07,4.72.05.54.42,1,1,1,.5,0,1.05-.46,1-1-.15-1.57-.12-3.15.07-4.72l-1.27.96h.07c-.15-.08-.29-.16-.44-.25l.05.05-.26-.44s0-.12.01-.15c-.04.06-.04.2-.06.27-.05.2-.1.4-.17.59-.11.33-.24.65-.39.97-.16.33-.32.66-.49.99-.09.17-.17.33-.27.49-.06.09-.12.19-.16.21l1.5.86c.06-.93.17-1.85.33-2.76.08-.45.17-.9.27-1.35.05-.24.11-.47.17-.71.03-.12.06-.23.09-.35l.04-.14c.07-.22.04-.19-.09.08l-.44.26.1-.03h-.53c-.15-.12-.17-.13-.08-.05.04.03.07.06.11.09.09.08.18.15.26.23.18.16.35.31.53.47.37.33.73.66,1.09,1,.64.62,1.32,1.25,1.84,1.98.12.17.24.36.34.55-.04-.09.06.14.02.06,0-.06,0-.03,0,.09l.05-.2c.05-.09.23-.12.12-.12-.09,0-.19.05-.27.07-.23.06-.47.11-.7.18-.98.26-1.95.57-2.9.93-.51.19-.85.68-.7,1.23s.69.77,1.23.7c.42-.06.84-.11,1.26-.17.47-.06.92-.07,1.27-.44.46-.48.34-1.24-.17-1.62-.38-.29-.91-.38-1.38-.43-1.66-.18-3.1.75-4.65,1.16-1.24.33-.71,2.26.53,1.93h0Z" fill="#ffdabb"/></g><g id="Layer_2"><path d="m12.53,8.43c.1-.6-.05-1.16-.38-1.67-.29-.45-.7-.81-.99-1.26s-.37-1.01-.25-1.52c.05-.24.2-.45.3-.68.14-.3.21-.63.34-.94.12-.29.28-.26.57-.28.31-.02.62-.03.94-.03.51,0,1.18.01,1.42.55s.33,1.15.3,1.73c-.03.61-.27,1.19-.32,1.8s.09,1.51.52,2.01,1.25.51,1.87.62.9-.86.27-.96c-.31-.05-.63-.1-.94-.16-.33-.06-.47-.11-.57-.44s-.17-.66-.14-.99.14-.67.21-1c.14-.67.16-1.34.03-2.01-.11-.59-.32-1.28-.81-1.66s-1.2-.46-1.82-.46c-.58,0-1.36-.08-1.88.21-.58.32-.62,1.08-.87,1.62-.13.27-.29.52-.36.82-.08.33-.08.68-.06,1.02.04.69.34,1.23.77,1.76.37.45,1.03,1.03.92,1.68s.86.9.96.27h0Z" fill="#a0a0a0"/><path d="m16.98,8.78c.74.05,1.47.26,1.77.97.16.37.28.76.4,1.14.07.22.13.44.17.67.02.11.04.21.06.32,0,.03,0,.05,0,.08,0,.04,0,.07.01.11,0,.06,0,.05.01-.04l.23-.3h-.03c.08,0,.17-.03.25-.05-.24.01-.49-.01-.73-.02-.27,0-.5.24-.5.5,0,.28.23.49.5.5.16,0,.33.01.49.02s.34.02.49-.06c.38-.21.28-.64.23-.99-.1-.64-.31-1.25-.52-1.85-.1-.28-.21-.58-.38-.83s-.4-.47-.66-.64c-.53-.35-1.18-.47-1.8-.51-.27-.02-.5.24-.5.5,0,.28.23.48.5.5h0Z" fill="#a0a0a0"/><path d="m18.68,12.09c-.22,2.11-.29,4.32-.24,6.44.02.94.06,1.92.38,2.81.08.22,1.18,2.36,1.19,2.36-.57.3-.07,1.16.5.86.94-.49.3-1.54-.06-2.19-.55-.98-.91-1.87-.98-3.01s-.04-2.37.02-3.56.06-2.49.2-3.72c.07-.64-.93-.63-1,0h0Z" fill="#a0a0a0"/><path d="m12.02,25.04c1.17-.41,2.3-.74,3.54-.8s2.17-.54,3.07-1.31c.49-.42-.22-1.12-.71-.71-.39.33-.83.63-1.31.81s-1,.19-1.53.22c-1.15.07-2.25.44-3.33.81-.6.21-.34,1.18.27.96h0Z" fill="#a0a0a0"/><path d="m11.62,8.21c-.83.88-1.92,1.54-2.52,2.63s-.44,2.49-.21,3.69c.18.96.48,2.61,1.74,2.65,1.07.03,2.07-.88,2.46-1.82.24-.58.3-1.26,0-1.83-.15-.29-.39-.5-.64-.69-.18-.14-.61-.36-.53-.64.16-.62-.8-.89-.96-.27-.15.58.13,1.1.58,1.46.22.18.53.33.67.59s.11.57.02.84c-.14.46-.46.86-.87,1.11-.19.11-.56.32-.79.23-.21-.09-.31-.41-.38-.6-.22-.64-.37-1.31-.44-1.98-.07-.61-.14-1.3.06-1.9.41-1.19,1.69-1.89,2.51-2.76.44-.47-.26-1.18-.71-.71h0Z" fill="#a0a0a0"/><path d="m12.49,14.2c-.65-.08-1.33.18-1.79.64-.19.18-.2.53,0,.71s.51.2.71,0c.05-.05.1-.09.15-.14l-.1.08c.12-.09.25-.17.39-.23l-.12.05c.15-.06.3-.1.46-.13l-.13.02c.14-.02.29-.02.43,0,.12.01.27-.07.35-.15.09-.09.15-.23.15-.35s-.05-.26-.15-.35c-.1-.1-.21-.13-.35-.15h0Z" fill="#a0a0a0"/><path d="m15.33,14.34c.26.39.65.66,1.11.79.49.13,1.02.08,1.51-.04.25-.06.43-.36.35-.62s-.34-.42-.62-.35c-.1.03-.2.04-.31.06-.06,0-.05,0,.02,0-.02,0-.04,0-.06,0-.05,0-.09,0-.14.01-.1,0-.21,0-.31,0s.09.02-.02,0c-.04,0-.09-.02-.13-.03-.07-.02-.14-.05-.21-.07.14.04.01,0-.02-.02s-.07-.04-.11-.06c0,0-.07-.06-.08-.05.06.05.07.05.03.02-.02-.01-.03-.03-.05-.04-.03-.03-.06-.06-.09-.09-.03-.04-.03-.03.02.03-.01-.02-.02-.03-.04-.05-.15-.22-.45-.33-.68-.18-.22.14-.34.45-.18.68h0Z" fill="#a0a0a0"/><path d="m14.2,14.66c-.04.07-.09.13-.14.19l.08-.1c-.18.23-.38.43-.61.61l.1-.08c-.06.05-.13.1-.19.14-.11.07-.19.17-.23.3-.03.12-.02.28.05.39s.17.2.3.23.27.02.39-.05c.45-.3.82-.67,1.12-1.12.07-.1.08-.27.05-.39s-.12-.24-.23-.3c-.12-.06-.26-.09-.39-.05s-.22.12-.3.23h0Z" fill="#a0a0a0"/><path d="m14.94,20.05h.45c.07,0,.13-.01.19-.04.06-.02.12-.05.16-.1.05-.05.08-.1.1-.16.03-.06.05-.12.04-.19l-.02-.13c-.02-.08-.07-.16-.13-.22l-.1-.08c-.08-.05-.16-.07-.25-.07h-.45c-.07,0-.13.01-.19.04-.06.02-.12.05-.16.1-.05.05-.08.1-.1.16-.03.06-.05.12-.04.19l.02.13c.02.08.07.16.13.22l.1.08c.08.05.16.07.25.07h0Z" fill="#a0a0a0"/><path d="m11.34,17.47c.08.85-.5,1.65-.82,2.4-.35.81-.64,1.64-.78,2.51-.06.41-.05.84-.12,1.24-.08.43-.32.77-.54,1.13-.19.31-.3.64-.27,1.01.04.49.18.89.08,1.39-.12.63.84.9.96.27.08-.44.11-.87.03-1.31-.04-.23-.12-.42-.05-.65.06-.18.22-.36.31-.52.48-.8.43-1.57.58-2.46s.48-1.76.86-2.58c.36-.77.83-1.54.74-2.43-.06-.63-1.06-.64-1,0h0Z" fill="#a0a0a0"/><path d="m8.89,26.79c-.05.45-.03.93.3,1.29.3.32.72.41,1.13.26.46-.17.8-.58,1.2-.85s.87-.5,1.37-.6c.56-.12,1.08,0,1.63.08.5.07,1,.05,1.5-.04,1.05-.2,2.01-.73,2.92-1.27.55-.33.05-1.19-.5-.86-.77.45-1.56.9-2.44,1.11s-1.67-.08-2.55-.08c-.76,0-1.51.25-2.16.63-.36.21-.67.46-.99.72-.06.05-.28.26-.35.24-.15-.06-.06-.52-.04-.63.07-.64-.93-.63-1,0h0Z" fill="#a0a0a0"/><path d="m18.86,25.7c.49-.3,1-.59,1.48-.91.28-.19.52-.41.64-.74.13-.34.04-.72-.19-.99-.17-.2-.53-.19-.71,0-.19.21-.18.5,0,.71-.05-.07-.06-.08-.04-.05,0,.01.01.02.02.03,0,0-.04-.13-.02-.04.02.06-.02.04,0-.05,0,.02,0,.04,0,.06,0,.06.03-.13,0-.04,0,.03-.01.05-.02.08-.02.08.05-.09.01-.04-.01.02-.02.04-.03.06-.04.08.06-.06.01-.02-.02.02-.03.04-.05.05-.02.02-.04.04-.07.06-.07.06.07-.05.02-.01-.09.06-.18.12-.27.18-.43.26-.86.53-1.3.79-.22.14-.33.45-.18.68s.45.32.68.18h0Z" fill="#a0a0a0"/></g></svg>