<?xml version="1.0" encoding="UTF-8"?><svg xmlns="http://www.w3.org/2000/svg" width="30" height="30" viewBox="0 0 30 30"><g id="Layer_2"><path d="m16.48,11.26c-.04-.18-.01.09,0,.12-.02-.02,0-.12,0-.15,0-.05.01-.1,0-.15.02.28-.03.21,0,.08.01-.05.03-.1.04-.14.01-.04.08-.21,0-.03s0,.02.02-.02c.02-.05.05-.09.07-.13.06-.1.12-.19.19-.29.09-.14-.02.04-.06.07.04-.03.06-.08.1-.12.14-.16.28-.32.42-.48.32-.37.65-.76.86-1.21.09-.19.16-.39.27-.57.12-.21.28-.39.38-.6.3-.59.17-1.39-.45-1.72-.57-.3-1.4-.17-1.72.45-.11.21-.26.4-.38.6s-.2.43-.3.64c-.05.1-.11.2-.17.29-.03.05-.07.1-.11.15-.1.14.02-.04.06-.08-.17.16-.31.37-.47.54-.35.4-.71.82-.93,1.31-.31.68-.43,1.36-.26,2.09.16.64.91,1.08,1.55.88.67-.22,1.05-.86.88-1.55h0Z" fill="#f2eed6"/><path d="m7.02,11.14l-.06.24c-.05.17-.06.33-.02.5,0,.17.06.32.15.47.08.15.19.26.32.35.12.11.26.19.43.23l.33.04c.23,0,.44-.06.64-.17l.25-.2c.16-.16.26-.34.32-.56l.06-.24c.05-.17.06-.33.02-.5,0-.17-.06-.32-.15-.47-.08-.15-.19-.26-.32-.35-.12-.11-.26-.19-.43-.23l-.33-.04c-.23,0-.44.06-.64.17l-.25.2c-.16.16-.26.34-.32.56h0Z" fill="#f2eed6"/><path d="m7.19,11.43c-.27,1.06-.53,2.16-.43,3.27.09.98.63,2.01.3,2.98l1.65.22c-.05-.52-.11-1.04-.16-1.56-.11-1.05-1.76-1.09-1.68,0,.06.77.13,1.57.03,2.35-.08.64-.28,1.26-.27,1.91,0,.69.16,1.38.16,2.08,0,.75-.07,1.49-.15,2.23-.04.35.28.73.62.81,1.23.3,2.44-.23,3.69-.06s2.42.5,3.64.14c1.29-.39,2.5-1.3,3.66-1.96s2.49-1.25,3.55-2.08c.93-.73,1.06-1.81,1.02-2.93-.06-1.48-.15-2.96-.22-4.44-.06-1.21.04-2.59-.45-3.72-.23-.52-.59-.96-.87-1.46-.35-.62-.54-1.28-.65-1.97-.18-1.06-1.79-.61-1.62.45s.56,1.98,1.12,2.86c.3.47.57.88.65,1.44s.08,1.15.11,1.72c.06,1.25.12,2.5.19,3.75.05.99.43,2.46-.5,3.11-.99.69-2.13,1.22-3.17,1.82s-2.13,1.44-3.26,1.8c-1.01.32-2.14-.07-3.15-.2-.53-.07-1.04-.08-1.57-.01-.57.07-1.14.27-1.71.13l.62.81c.07-.74.15-1.49.15-2.23,0-.7-.16-1.38-.16-2.08,0-.64.21-1.27.27-1.91.08-.78.02-1.56-.03-2.35h-1.68c.05.52.11,1.04.16,1.56.1.93,1.32,1.15,1.65.22s.11-1.84-.11-2.78c-.28-1.2-.05-2.29.24-3.46.26-1.05-1.35-1.49-1.62-.45h0Z" fill="#f2eed6"/><path d="m20.96,5.5c-.35-.43-.69-1-1.25-1.16-.31-.09-.66-.02-.97.05-.27.06-.52.16-.77.27-.86.37-1.59,1.02-2.24,1.68l1.43.59c0-.1,0-.09-.01.02,0-.05.02-.09.03-.13-.04.09-.05.09,0,0,.05-.09.05-.08-.03.01.1-.1.05-.07-.16.08-.1.01-.09.02,0,.01.11,0,.22,0,.33,0,.42,0,.84,0,1.25,0,.11,0,.23.01.33,0,.31.02.16-.13-.46-.44.01.04.02.07.03.11.03.13.05.27.08.4.09.48.31.83.7,1.12.16.12.47.14.65.08.22-.07.37-.2.5-.39.23-.33.47-.65.7-.98h-1.45c-.06-.14,0,.01.02.04.02.06.04.12.06.18.04.12.06.24.09.36,0,.05.02.1.02.15-.03-.17,0,0,0,.04.01.13.02.25.02.38,0,.5-.04,1-.1,1.49-.05.44.42.86.84.84.5-.02.79-.37.84-.84.13-1.2.17-2.37-.34-3.5-.12-.26-.45-.42-.72-.42-.32,0-.55.17-.72.42-.23.33-.47.65-.7.98l1.15-.3c.05.02.09.06.12.11.04.05.04.06.02.02-.1-.15.02.03,0,.03-.01,0-.06-.25-.07-.28-.03-.18-.06-.36-.12-.54-.16-.46-.51-.73-1-.76-.27-.02-.55,0-.82,0s-.53,0-.79,0c-.3,0-.62-.03-.91.05-.71.19-1.05.96-1.07,1.64-.02.73.93,1.11,1.43.59.27-.27.54-.54.84-.78.04-.03.07-.06.11-.09-.07.06-.07.06,0,0,.08-.05.15-.11.23-.16.15-.1.3-.19.46-.27.07-.04.15-.07.22-.11-.19.08.09-.03.13-.04.09-.03.18-.06.27-.08.05-.01.09-.02.14-.03.1-.02.09-.02-.01,0,.15,0,.1-.02-.15-.07-.08-.06-.08-.06-.02,0,.06.09.14.17.2.25l.43.52c.28.34.9.31,1.19,0,.33-.36.3-.82,0-1.19h0Z" fill="#f2eed6"/><path d="m10.38,8.78c-.21.3-.51.52-.85.64l.65,1.53.72-.5-.85-1.45-1.4.99c-.87.61-.09,2.02.85,1.45,1.57-.96,3.12-1.96,4.72-2.88.21-.12.58-.36.84-.27.19.07.24.35.35.52.41.61,1.27.78,1.81.21.11-.11.18-.25.25-.38l.08-.2c.04-.07.01-.07-.09,0,.07.06.21.31.28.45.36.75.6,1.57.84,2.37.26.87.49,1.74.72,2.62.21.82.41,1.61.1,2.43h1.62c-.55-1.74-.7-3.56-.39-5.35l-1.4.37c.7.79,1.02,1.79.98,2.84s1.64,1.08,1.68,0c.05-1.5-.49-2.9-1.47-4.02-.4-.45-1.3-.24-1.4.37-.36,2.1-.25,4.21.39,6.25.26.83,1.33.76,1.62,0,.38-.98.23-2.02-.02-3.02-.26-1.05-.54-2.1-.86-3.14-.42-1.35-1.1-4.32-3.12-3.77-.39.11-.71.37-.9.73-.22.39-.25.37.26.33s.44-.05.22-.4c-.47-.77-1.43-1.02-2.27-.8-.94.24-1.81.94-2.63,1.44-1.02.62-2.04,1.25-3.05,1.87l.85,1.45,1.4-.99c.87-.62.05-2.07-.85-1.45l-.72.5c-.72.5-.31,1.88.65,1.53.78-.29,1.37-.74,1.86-1.42.63-.88-.82-1.72-1.45-.85h0Z" fill="#f2eed6"/><path d="m15.79,7.64c-3.37.6-6.42,2.36-7.43,5.8-.47,1.6-.9,3.27-1.21,4.91-.16.84-.18,1.62-.1,2.46.04.38.11.81.06,1.2-.07.51-.23.92-.07,1.46.34,1.14,1.42,1.32,2.44,1.33s1.97,0,2.95,0c.8,0,1.62.02,2.41-.17.89-.22,1.72-.72,2.53-1.13,1.32-.67,2.8-1.29,3.82-2.41,1.27-1.4,1.47-3.12,1.12-4.92-.32-1.65-.84-3.37-1.54-4.9-.74-1.61-2.23-2.74-4.06-2.38-.89.18-1.63.69-2.31,1.27-.6.52-1.23,1.01-1.81,1.54-1.23,1.11-1.14,2.79-1.98,4.12-.97,1.52-1.77,3.16-1.41,5.02.4,2.07,2.54,2.86,4.35,2.01.66-.31,1.22-.8,1.84-1.19.77-.48,1.5-.98,2.06-1.7,1.02-1.29,1.77-2.91,2.38-4.43.37-.91.63-1.87.7-2.85.1-1.32-.72-2.27-2.03-2.38-1.95-.15-3.7,1.05-4.77,2.59-.9,1.3-2.33,4.56-.49,5.63s3.96-1.19,4.67-2.62c.75-1.53-.76-3.05-2.3-2.3-2.15,1.06-4.65,3.1-3.76,5.82.28.87,1.15,1.42,2.06,1.17s1.56-.8,2.29-1.32c.22-.16.45-.32.7-.4.21-.07.43-.1.64-.15.25-.05.23.04.03-.03l-.74-.43c-.06-.06.1.22.12.28.08.22.03.04.06-.01-.49.76-.16,1.85.6,2.3.81.47,1.8.16,2.3-.6,1.12-1.74-.06-5.05-2.39-4.86-.93.08-1.89.3-2.69.79-.63.39-1.21,1.05-1.82,1.21l2.06,1.17c-.28-.87,1.59-1.71,2.22-2.03l-2.3-2.3c-.28.58-.7,1.11-1.25,1.27h.89l-.11-.02,1,.77-.08-.13.23.85c.04-.61.5-1.83,1-2.45.23-.27.51-.51.83-.67.16-.08.2-.1.38-.14.21-.05.27-.07.17-.04.32.02.28-.02-.12-.1l-.77-1c-.05-.13.05-.23-.01.14-.02.12-.05.24-.07.36-.08.35-.18.69-.29,1.03-.23.66-.55,1.28-.87,1.9-.31.58-.59,1.21-.98,1.75s-.92.81-1.46,1.16c-.46.3-.97.79-1.44.97-.18.07-.18-.04-.11,0-.01,0,.65.23.5.27.04-.01,0-.29.02-.46.07-.67.43-1.23.78-1.78.43-.67.83-1.33,1.09-2.09.16-.49.16-1.16.45-1.57.11-.15.32-.27.47-.38.41-.31.78-.63,1.16-.98.27-.25.68-.65.94-.71-.03,0-.27-.28.1.04-.09-.08-.05-.05.08.1-.06-.07-.09-.14.07.13.1.17.19.35.27.53.48,1.12.96,2.76,1.2,4.1.08.46.1,1.05-.06,1.36-.23.45-.59.7-1.04.98-.66.41-1.38.74-2.07,1.1-.62.31-1.27.75-1.96.91-.72.16-1.58.05-2.32.05-.94,0-1.91.07-2.84-.02l.85.23-.13-.08.77,1-.03-.15v.89c.17-.72.25-1.41.2-2.14-.05-.64-.16-1.29-.06-1.93.24-1.44.68-2.88,1.04-4.3.28-1.12.67-2.02,1.56-2.71,1.05-.81,2.4-1.14,3.69-1.36.89-.16,1.4-1.25,1.17-2.06-.26-.94-1.17-1.33-2.06-1.17h0Z" fill="#f2eed6"/><path d="m15.59,8.01c1.62,0,1.62-2.52,0-2.52s-1.62,2.52,0,2.52h0Z" fill="#f2eed6"/></g><g id="Layer_1"><path d="m17.8,4c-.07,0-.14.02-.2.05l-3.94,2.27-7.23,4.17c-.12.07-.2.2-.2.34l.04,14.76c0,.22.18.39.4.39h8.15s.14,0,.2-.04c2.54-1.47,5.08-2.93,7.62-4.4.02-.01.04-.03.06-.05.01,0,.02-.02.03-.03.07-.07.1-.17.09-.27v-8.96c.02-.07,0-.14-.04-.2l-.73-1.28v-5.53c0-.14-.08-.27-.2-.34l-1.51-.87c-.06-.03-.13-.05-.2-.05h-2.34,0Zm.1.81h2.13l.83.48-1.75,1.01h-3.78l2.58-1.49Zm3.33,1.15v3.46l-1.5-2.6,1.5-.87Zm-7.21,1.11h4.97l3.05,5.3v8.63l-4.58,2.65h-8.84v-11.17l5.4-5.41Zm.43.77c-.14,0-.24.05-.31.13-.07.08-.1.18-.1.28,0,.21.14.41.42.41h3.89c.28,0,.42-.2.42-.41,0-.1-.03-.2-.1-.28-.07-.08-.17-.13-.31-.13h-3.89Zm-3.02.69l-3.51,3.51c-.07.07-.12.17-.11.28v11.72c0,.22.17.4.39.38h7.88l-1.37.81h-7.67v-14.15l4.39-2.55Zm1.49.89c-.13,0-.24.05-.3.13-.07.08-.1.18-.1.28,0,.21.13.41.4.41h6.27c.27,0,.4-.2.4-.41,0-.1-.03-.2-.1-.28-.07-.08-.17-.13-.3-.13h-6.27Zm-1.58,1.58c-.13,0-.24.05-.3.13-.07.08-.1.18-.1.28,0,.21.13.41.4.41h8.76c.27,0,.4-.2.4-.41,0-.1-.03-.2-.1-.28-.07-.08-.17-.13-.3-.13h-8.76Zm-1.56,1.63c-.27,0-.4.19-.4.38s.13.38.4.38h11.05c.27,0,.4-.19.4-.38s-.13-.38-.4-.38h-11.05Zm0,1.58c-.27,0-.4.19-.4.38s.13.38.4.38h11.05c.27,0,.4-.19.4-.38s-.13-.38-.4-.38h-11.05Zm0,1.58c-.27,0-.4.19-.4.38s.13.38.4.38h11.05c.27,0,.4-.19.4-.38s-.13-.38-.4-.38h-11.05Zm0,1.58c-.27,0-.4.19-.4.38s.13.38.4.38h11.05c.27,0,.4-.19.4-.38s-.13-.38-.4-.38h-11.05Zm0,1.58c-.27,0-.4.19-.4.38s.13.38.4.38h11.05c.27,0,.4-.19.4-.38s-.13-.38-.4-.38h-11.05Zm0,1.54c-.27,0-.4.2-.4.41s.13.41.4.41h10.03c.14,0,.24-.05.3-.13.07-.08.1-.18.1-.28,0-.21-.13-.41-.4-.41h-10.03Zm0,1.58c-.27,0-.4.2-.4.41s.13.41.4.41h7.29c.14,0,.24-.05.3-.13.07-.08.1-.18.1-.28,0-.21-.13-.41-.4-.41h-7.29Z" fill="#9f9e9e"/></g></svg>