<?xml version="1.0" encoding="utf-8"?>
<!-- Generator: Adobe Illustrator 27.5.0, SVG Export Plug-In . SVG Version: 6.00 Build 0)  -->
<svg version="1.1" xmlns="http://www.w3.org/2000/svg" xmlns:xlink="http://www.w3.org/1999/xlink" x="0px" y="0px" width="792px"
	 height="612px" viewBox="0 0 792 612" style="enable-background:new 0 0 792 612;" xml:space="preserve">
<style type="text/css">
	.st0{display:none;}
	.st1{fill:#C792B4;}
	.st2{display:inline;fill:#FFFFFF;}
	.st3{display:inline;fill:#C792B4;}
	.st4{fill:#C692B4;}
</style>
<g id="Layer_1">
	<g id="Layer_1_00000129910022462658565210000006387396708514705063_" class="st0">
	</g>
	<g id="Layer_3">
		<path class="st1" d="M245.4,491.6l-0.4,21.9c0,0-13.7,8.2-11.6,11.2c2.1,3,11.8,3.4,11.8,3.4l41.6-1c0,0-0.2-1.3-2.4-5.2
			s-16.1-11.2-16.1-11.2l6.6-1.9l0.2-12.2l10.9-35.8c-1.5-3.8,8.4-27,8.4-27c0.56-0.8,1.17-1.52,1.81-2.22
			c-3.2-0.87-6.59-1.6-9.91-1.98c-12.92-1.48-31.67,13.76-32.18,14.18c-0.86,7-1.91,16.65-2.02,23.22
			C252,478.5,245.4,491.6,245.4,491.6z"/>
		<path class="st1" d="M315.7,438.3c7.38,0.91,14.78,0.63,21.97-0.72l1.23-13.71c-1.27,0.12-29.89-6.12-42.68,7.72
			c9.43,2.57,17.29,6.42,17.29,6.42L315.7,438.3z"/>
		<path class="st1" d="M334.1,527.3c0,0,46.9,1.3,58.7,0.9c11.8-0.3,12-2.8,12-2.8l-14.2-6.9C373.9,514.9,364,505,364,505l-0.2-32.1
			c0,0,4.1-43.5,5.8-46.5c1.7-3,6.7-26,6.9-28.2c0.2-2.2,0-13.9,2.3-15.8c1.3-1.07,0.15-2.9-1.1-4.3l-6.3,36.1l-3.1,9.7
			c-9.08,6.96-19.6,11.6-30.63,13.68L330,523.2L334.1,527.3z"/>
		<path class="st1" d="M379.19,369c-0.81,2.72-1.94,5.19-3.49,7.2c0,0,1.03,0.82,2,1.9l1.5-8.6L379.19,369z"/>
		<path class="st1" d="M268.4,266.4c2.13-7.68,2.75-9,2.93-9.19c-0.26,0.04-1.43,0.27-4.47,1.31l1.45,8.28
			C268.34,266.67,268.37,266.52,268.4,266.4z"/>
		<path class="st1" d="M297.3,255.2c3.1-0.13,0.96-1.61-3.44-3.6c-1.34,1.16-3.55,1.97-6.86,2.3C287,253.9,287.4,255.6,297.3,255.2z
			"/>
		<path class="st1" d="M378.6,332.8l0.59,36.2C383.48,354.54,378.6,332.8,378.6,332.8z"/>
		<path class="st1" d="M266.4,404.7l1.1-15.2l-2.6-1.5c0,0,2.2-6,1.9-11.4c-0.4-5.4-0.8-23.4,5.8-28.3c0,0-4.5-11.4-1.7-18.9
			s2.4-19.7,2.4-19.7s-0.22-0.93-0.56-2.51l-17.41,127.59C255.73,433.23,260.29,415.69,266.4,404.7z"/>
		<path class="st1" d="M364.5,180.6c-5.8,9.4-11.6,4.3-11.6,4.3c-10.3,0-13.5-2.6-13.5-2.6l-21-0.2l-13.65-2.97
			c13.93,4.42,30.28,10.3,38.15,12.17c13.5,3.2,13.1-3,13.1-3c12.4-2.3,40.1-19.7,40.1-19.7c-1.9-2.3,4.4-10.9,4.4-10.9
			c16.6-12.2,17.4-16.3,17.4-16.3c13.2-0.6,11.1-2.8,11.1-2.8s-8.5,0.8-12.6,1.7c-4.2,0.9-21.4,13.1-21.4,13.1l-0.56-1.64
			c-4.25,8.49-10.04,18.54-10.04,18.54S373.6,181.3,364.5,180.6z"/>
		<path class="st1" d="M282.6,173.9c-0.74-0.03-1.46-0.04-2.16-0.05l24.31,5.28C294.81,175.98,286.1,173.57,282.6,173.9z"/>
		<path class="st1" d="M394.44,151.76c2.61-5.21,4.63-9.82,4.4-11.17c-3.16,2.28-5.62,4.01-6.64,4.62L394.44,151.76z"/>
		<path class="st1" d="M509,510.8v-2c0,0,1.5-1.5,1.3-5.6c-0.2-4.1-2.7-6.2-3.7-7.7c-0.43-0.6-2.53-2.71-4.79-4.92
			c-9.83-13.94-11.52-31.96-10.94-48.6c0.2-5.77,0.65-11.53,1.1-17.29c0.06-0.76-0.26-1.29-0.73-1.6l0.06-10.59l0.7-0.5
			c0,0,0.6-22.1,0.8-25c0.2-2.9-1.5-5.9-1.5-5.9c-0.9-2.9-8.6-15-8.6-15l1.1-25.9l2.7-10.7l3.7-9c5.8-4.9,7.7-16.7,7.7-16.7
			s0.3-15.2-3.4-19.8c-3.7-4.6-2.7-13-2.7-13c4.7-2.8,2.6-6.3,2.6-6.3l-5.2-4.7c7.7-3.2,4.9-10.9,4.9-10.9l-4.8-6.3
			c0,0,4.1-11.7,3.7-20.5c-0.4-8.8,9.1-13.6,9.1-13.6l-0.7-7.5c6.5-0.5,9-7.3,9-7.3v-15.3c0,0,3.3-13.1,3.8-13.3s9.2-20.8,9.2-20.8
			c5.5-6.1,5.5-21.8,5.5-21.8s1.5-7-3-11.5s-16.9-8.4-16.9-8.4c-2.8,1.3-6,2.7-6,2.7c-13.5,6.8-19.3,2.7-19.3,2.7l0.1-13.1
			c-0.9-2.8,3.4-20.1,3.4-20.1s-0.3-16.4-0.7-17c-0.4-0.7-0.3-2.7-0.3-2.7c3.8-0.5,4.1-4.2,4.1-4.2v-7.5l-2.7-0.2
			c0,0-11.5-10.1-14.1-11c-2.6-1-5.8-1.1-5.8-1.1l-0.1-1.1c10.1,1.2,12-1.6,12-1.6v-2.7h-11.5c0,0-7.7,6.9-9.1,6.8
			c-1.4-0.1-1.2-3.3-1.2-3.3c2.5-0.9,3.8-3.5,3.8-3.5h-5.8l-1.1,1.4v5.8h-4.9c-0.6,1.4-3.8,2.7-3.8,2.7c-0.7,4.8,1.5,6.9,1.5,6.9
			v1.4c-6.2,2.6-12.5,10.5-12.5,10.5V81c0,0-11.1,15.8-53.5,22.6c-42.4,6.8-44.4,5.5-44.4,5.5s3.4-6.7,3.9-10.6
			c0.5-3.9,0.7-8.3,0-15.8s-5.2-14-5.2-14s-5.5-10.3-14.3-10.8s-7,0.4-7,0.4l2.8,0.8c5.2,1.1,15.7,10.7,15.7,10.7s4,4.9,3.9,9.6
			c-0.2,4.7-4.9,7.2-4.9,7.2s-9.6,1.7-19.9,1.6c-10.3-0.1-25.7-2-25.7-2v-0.9c3,0.9,14.5-2.5,22.2-4.4c7.7-1.9,19.8-10.2,19.4-10.1
			c-0.4,0.2-15.7,5.6-15.7,5.6c-9.9,5.3-26.4,7.5-26.4,7.5v-3.5c-3.7-1.9-3.2-4.8-3.2-4.8c0.5-6.1,9.1-9.4,9.1-9.4
			c9.2-2.1,12.6-7,12.6-7c-13.4,1.6-13.1,4-18.4,6.5s-10.7,13.8-11.4,15.1c-0.7,1.3-2.2,0.4-2.2,0.4l-6.1-5.1c-3.1-0.7-2.5,2-2.5,2
			l7.1,4.2v1.5h-1.8l-2.2-2.1v2.7l-6,5.1c0,0,0.9,3.6,8.6,2.7c7.9-1.2,4.7-3.4,4.7-3.4s-5.6-1-2.4-2.1s4.7,3.6,4.7,3.6l-0.2,15.2
			c0,0.7,0.3,1.3,0.9,1.6c0.7,0.4,1.3,1.3,0.8,3.4c-0.9,3.6-12.4,12.7-20.8,19.3c-8.4,6.5-10.5,15.7-10.5,15.7l-2.1,0.2
			c-0.2,12.9,1.7,13.3,1.7,13.3c0-3.7,1.5-4.3,1.5-4.3c3.19,13.56,7.16,22.68,10.5,28.57c0.64-2.11,1.89-3.96,3.92-5.46
			c-4.92-13.88-14.11-29.32-14.11-29.32c8.3-16.1,21.6-26.6,21.6-26.6c13.7-0.8,23.6,9.7,23.6,9.7l-3.6,0.9c0,0,1.5,0.7,4.5,1.3
			s37.9,19.7,37.9,19.7s-5.1-7.1-10.7-9.7c-5.6-2.6-8.2-6.9-8.2-6.9l-1.1-3.6l-1.3-0.2c0,0-34.5-15.4-31.3-16.5
			c3.2-1.1,15-10.3,15-10.3s-0.8,4,0,6.2c0.8,2.3,3.6,1.7,3.6,1.7s2.1-3.4-1.3-9c-3.4-5.6-5.2-12.2-4.5-13.5
			c0.7-1.3,5.4,2.6,5.4,2.6c8.4,5.2,9.9-3.6,9.9-3.6h27c0,0,1.3-4.7,0,8.1c-1.3,12.8-2.2,14.8-8.6,22.7c-6.3,7.9-26.2-4.7-26.2-4.7
			l9.4,7.7c0,0-3.2,6.2,0,4.5c3.2-1.7,16.9,4.1,16.9,4.1l12.4,23c0,0,1.1,2.8,7.5,3c6.4,0.2,4.5-3.4,4.5-3.4l-9-0.8
			c1.9-3.6,0-4.7,0-4.7l-0.8-3.6c0,0,8-3,16.8-11.6c2.11-2.06,3.64-3.32,4.75-4.06c-5.2,2.59-10.38,5.21-15.53,7.9
			c-0.17,0.09-0.35,0.15-0.54,0.19c-1.04,0.95-2.16,1.8-3.44,2.46c-1.4,0.73-2.82,0.05-3.36-1.37c-1.82-4.84-3.84-9.69-4.49-14.82
			c-3.38-2.76-2.25-9.77,3.38-9.84c11.44-0.13,22.8-2.44,33.72-5.78c1.16-0.35,2.2-0.32,3.1-0.04c18.72-4.91,37.18-10.94,55.75-16.4
			c0.62-0.54,1.22-1.09,1.79-1.69c0.35-0.37,0.67-0.75,0.99-1.14c0.08-0.12,0.17-0.23,0.25-0.35c0.14-0.21,0.28-0.42,0.42-0.64
			c0.28-0.46,0.54-0.94,0.76-1.42c0.03-0.1,0.07-0.17,0.07-0.18c0.02-0.04,0.03-0.08,0.05-0.12c0.1-0.28,0.2-0.57,0.28-0.86
			c0.2-0.66,0.62-1.16,1.16-1.46c0.35-0.88,0.67-1.77,0.94-2.68c0.01-0.13,0.03-0.25,0.03-0.38c0.01-0.92,0.74-1.59,1.63-1.63
			c0.88-0.04,1.64,0.78,1.63,1.63c0,0.01,0,0.02,0,0.03c0.14,0.24,0.24,0.49,0.27,0.78c0.33,2.8-0.1,5.75-0.87,8.44
			c-0.56,1.95-1.36,3.93-2.51,5.63c0.77-0.14,1.56-0.24,2.35-0.32c3.06-0.28,6.15-0.13,9.21-0.13c2.1,0,2.1,3.27,0,3.26
			c-5.15-0.01-10.38-0.36-15.19,1.59c-0.26,0.32-0.65,0.55-1.16,0.6c-0.07,0.01-0.15,0.02-0.22,0.03c-0.02,0.01-0.03,0.01-0.05,0.02
			c-0.43,0.22-0.84,0.24-1.2,0.13c-2.3,0.37-4.54,1.15-6.74,1.97c-9.32,3.89-18.97,6.94-28.44,10.43c-0.9,0.33-1.8,0.67-2.7,1.02
			c-0.2,0.08-0.39,0.16-0.58,0.24c-0.02,0.01-0.03,0.01-0.05,0.02c-0.66,0.31-1.32,0.62-1.98,0.93c-4.92,2.35-9.84,4.71-14.75,7.08
			c-4.09,1.98-8.18,3.98-12.25,6c1.56-0.37,1.13,1.51,1.13,1.51l16.1-8.1c0,0,24.2-10.5,28.3-12.6c4.1-2.1,18.2-2.1,18.2-2.1
			c10.9,3.2,7.5,3.9,7.5,3.9l-49.3,31.7l-8.6,0.6c0,0-2.8,5.6-7.9,7.7c-5,2.1-12.7,7.5-12.7,7.5c-3.8-3.8-9,6.2-9,6.2l-0.9-3.9
			c0,0-8.2,22.3-3,15.4c5.3-6.9,24.6-18.9,24.6-18.9l1.3-4.9c0,0,11.1-3.8,10.7-3.6c-0.4,0.2,17.2-12.9,18.4-10.1
			c0.02,0.05,0.02,0.12,0.04,0.18c10.29-7.41,28.06-20.68,28.06-20.68c7.5-2.1,10.3-5.7,13.9-7.9c3.6-2.2,0.2-6.9,0.8-4.3
			c0.6,2.6-2.6,4.3-2.6,4.3c1.8-0.7-0.6-6.9-0.6-6.9s5.8-2.8,10.5-1.7s0.6,7.1,0.6,7.1l6.2,2.8c3.2-4.1-3.4-14.6-3.4-14.6
			c17.4,6.6,27.7-1.5,27.7-1.5c-3.8,6.6-0.6,16.5-0.6,16.5s0,0,3.9-2.1c3.9-2.1,5.4,1.5,5.4,1.5l-4.3,3.2c0,0-1.9,2,0.4,2.8
			c2.3,0.8,15.2-7.1,15.2-7.1c4.5,17.9,17.8,32.1,17.8,32.1c-3.2,4.2-10.5,35.1-10.5,35.1c-6-2-32.1-32.4-32.1-32.4
			c9.5-0.3,6.2-4.5,6.2-4.5l-9.4,2.4l-11.1-13.1v4.3c0,0,6.5,5.8,5.6,9.7c-1,3.9-7.9,2.4-9.2,2.6s-4.1-9.2-4.9-9s2.6,12.2,2.6,12.2
			s-4.69,3.79-7.02,5.66c3.95-2.8,9.12-2.26,9.12-2.26s7.2,6.7,6.8,5.6c-0.3-1.1-4.1-10.5-4.1-10.5l10-1.3l4.2,6.3
			c0,0,18.7,16.2,16,17.5s-3.5,11.4-3.5,11.4l-2.4,1.8c-9.7-14.4-15.9-13.1-14.9-13.1s12.7,16,12.7,16l0.1,2.8c0,0-0.9-0.5-2.4,3.7
			c-1.6,4.2,2.2,2.4,2.2,2.4l3.5-3.7l5.6,6.7c-0.1,3.8-6.9,15.9-6.9,15.9l-0.3-5.3c0,0,3-8.1,3-11.8c0-3.6-1.7-1.8-1.7-1.8
			l-4.9,12.5l-0.4-8l-2.8,3L477,215l1.2,5.3l-4.2-7l0.8-23.6c-3.7-2.5-5.8,18-5.8,18c-3.7-4.6-8.9-12.5-8.9-12.5
			c0.4,9,15.6,30.1,15.6,30.1c10,10.5,10.8,30.9,10.8,30.9c-5-2-13.6-18-13.6-18c-1-0.2,0.3-9.1,0.3-9.1c-1.1,1.9-3.8,2-3.8,2
			c-1.6-4.1-18.8-25.9-18.8-25.9c-2.3,6.1,9.1,24.9,9.1,24.9s6.3,4.9,2.2,7.7c-4.1,2.8-21.5,17.9-17.3,18.3
			c4.2,0.5,12.9-9.1,12.9-9.1s-5.3,24.1-1.1,23.8c4.2-0.3,4.1-4.1,4.1-4.1s-1-29.2,4.1-27.1c5.1,2.1,5.8,10.7,5.8,10.7l-0.7,44.2
			c0,0,11.9,6.6,14.1,19.3c2.3,12.6-3.2,11.8-3.2,11.8c-2.9-13.9-8.4-12.9-8.4-12.9s2.3,4,4.1,10.8s8,7.9,8,7.9
			c-3.1,13.8-7.3,14.5-7.3,14.5l-0.6-4.1l-2.1,0.1l0.6,4.5c0,0,1.2,6.3-0.7,5.9c-1.9-0.4-13.1-22.8-13.1-22.8
			c-1.2,6.8,17.5,43.2,22.6,51.5c5.1,8.3,1.7,30.1,1.7,30.1l-1.3-0.3c0.7-1.7-3.5-8.9-3.5-8.9s-12.5-12.3-15.6-14.3
			c-3.1-2-3.4-10-3.4-10c-8.4-1.8-11.5-15-11.5-15l-6.2-20.2l-3.1-4.8c0,0,0.7,8,2.1,12.4c1.4,4.4,1,9.7,1,9.7l-3.2,2.2l-0.6-15.2
			c-3-4.1-5.5-0.4-5.5-0.4s0.5,5.4,0.1,11c-0.4,5.6-2.5-2.7-2.5-2.7l0.7-27l-2.7-3.4L428,327c0,0-0.5,20.3-3.8,20
			c-3.3-0.3-3-18.7-3-18.7l2.4-26.2l-1.7,2.5c0,0-5.2,27.6-10,22.5c-4.8-5.1-1-21.8-2.1-24.6c-1.1-2.8,9.4-29.8,9.4-29.8
			s-4.5-1-7.3,9.8c-2.9,10.8-7.5,17-7.5,17s-8.1-18.3-3.7-12.4c4.4,5.9,4.8,3.4,4.8,3.4s-0.7-11.8-0.4-19.8s8-15.2,8-15.2
			c6.8,19,13.8,20.5,13.8,20.5c0.7-5.9-4.6-12.7-6.6-14.9c-2-2.3-8.9-9.3-8.9-9.3l-9.6,16.2c-6.5-11.6-2.7-18.6-3.5-23.8
			s7.4-14.2,7.4-14.2c0.6,3.8,3.4,5.5,3.4,5.5c8.19,0.25,8.98,2.18,9.01,2.8c0.14-1.99,1.25-18.66,0.69-19.6c-0.6-1,1.4-7.9,1.4-7.9
			l3.1,8.2l0.4,5.9l-2.8-2.2c0,0-2,3.2,0.1,5.6c2.1,2.4,10.4,2.8,10.4,2.8l-1.1-2.1l0.1-14.3c0,0,4.8-6.6,2.4-6.2
			c-2.4,0.4-5.6,5.9-5.6,5.9c-6.3-4.3-7.7-38-7.7-38s0,0,3,2.1c2.9,2.1,2.2-0.4,2.2-0.4s-13-24.4-6.2-25.2
			c6.7-0.8,14.6,4.5,14.6,4.5c1.4,22.4,9.3,23.2,9.3,23.2c0.1-7.4-10.7-34.7-10.7-34.7s-1.9,0-0.7,3s-0.3,3.7-0.3,3.7
			s-11.3-1.4-10.3-2.7s2.5-5.1,2.5-5.1c-10.7,2.1-29.4,28.7-29.4,28.7c4.2,8,21.1,14.2,21.1,14.2s-4.5,13-19.7,25
			c-15.1,12-15,40.8-15,40.8s2.4,46.8,2.4,60.2c0,13.3,4.1,33.3,6.3,36.8c2.2,3.5,8.4,27.8,8.4,27.8c0.6,2.9-1.2,17.5-1.2,17.5
			l0.5,19.1c0,0,0,6.9,4.1,5.1c4.1-1.8,1.6,3.4,1.6,3.4l0.6,24.4c0,0,8.4,36.5,8.2,40.6c-0.2,4.1-25.6,21-30.1,23.1s-1.1,2-1.1,2
			l62.3,0.6l52.6-0.1l16.2,0.2c0,0,9,0.6,14.5,0.8s3.4,1.6,3.4,1.6l-88.9,0.6l-44,0.1c1.6,2.7,5.4,3.5,5.4,3.5l15.7,0.1
			c3.8,1.9,0.1,3.4,0.1,3.4l-7.6-0.2v1.5l126.4-0.8v-14H509z M447.71,93.84c-0.3,0.3-0.73,0.48-1.15,0.48
			c-0.22,0-0.43,0.02-0.65,0.04c-0.52,0.09-1.04,0.23-1.53,0.43c-0.09,0.04-0.18,0.08-0.27,0.12c-0.41,0.2-0.81,0.27-1.26,0.16
			c-0.42-0.09-0.75-0.4-0.98-0.75c-0.22-0.35-0.27-0.87-0.16-1.26c0.1-0.37,0.4-0.8,0.75-0.98c1.29-0.64,2.65-1.03,4.1-1.04
			c0.44,0,0.84,0.19,1.15,0.48c0.32,0.29,0.46,0.73,0.48,1.15C448.21,93.09,448,93.56,447.71,93.84z M482.31,83.95
			c-1.8,6.29-6.35,11.22-12.6,13.23c-13.67,4.38-21.04-7.38-25.75-18.17c-1.26-2.88-2.19-5.71-2.43-8.58
			c-0.13-0.2-0.24-0.41-0.29-0.65c-0.75-3.45-1.92-6.84-2.15-10.38c-0.25-3.86,1.15-7.32,3.71-10.18c0.84-0.94,2.43-0.85,3.28,0
			c0.92,0.92,0.84,2.35,0,3.28c-1.01,1.12-1.72,2.33-2.08,3.63c-0.1,0.37-0.18,0.74-0.24,1.12c0,0.01,0,0.01,0,0.02
			c0,0.02,0,0.05-0.01,0.11c-0.01,0.17-0.03,0.33-0.03,0.5c-0.03,0.67-0.01,1.35,0.06,2.02c0.01,0.13,0.03,0.28,0.05,0.44
			c2.92-5.4,7.77-9.66,11.93-14.07c1.21-1.28,2.73-1.13,3.82-0.32c5.47-1.25,11.22-1.19,15.38,3.09c3.75,3.87,4.93,9.57,5.94,14.65
			C482.18,70.27,484.22,77.3,482.31,83.95z M472.59,43.19c-2.93-0.77-6.06-1.17-9.06-1.61c-2.97-0.44-5.99-0.66-8.99-0.44
			c-1.26,0.09-2.32-1.14-2.32-2.32c0-1.32,1.07-2.23,2.32-2.32c3.35-0.25,6.68,0.09,9.99,0.57c3.07,0.45,6.29,0.85,9.29,1.65
			c2.38,0.63,4.66,1.62,6.7,3c2.04,1.37,3.95,2.92,6.01,4.25c2.51,1.61,0.18,5.63-2.34,4.01C480.36,47.51,477.1,44.38,472.59,43.19z
			 M515.67,134.66c0.06-2.35,0.38-4.69,0.7-7.02c-1.27,0.56-2.99,0.13-4.03-0.68c-3.74-2.91-6.32-6.94-7.14-11.62
			c-0.25-1.44,0.19-2.72,1.14-3.51c0.54-0.76,1.41-1.3,2.63-1.3h3.37c2.33,0,3.38,1.72,3.27,3.44c0.21,0.13,0.41,0.27,0.59,0.45
			c0.53,0.52,0.96,1.06,1.33,1.61c1.08-2.23,4.21-1.95,5.66-0.16c0.86,0.13,1.67,0.64,2.21,1.65c3.53,6.5,2.05,17.45-5.41,20.43
			C517.93,138.78,515.62,136.7,515.67,134.66z M505.2,505.1l-9.9,0.1c-6.1,1.4-11.5,1.2-13.9,1.1c-2.4-0.1-5.1-2.1-5.1-2.1
			s0.3,0.6,0.4,2.5c0.1,1.9-2.4,3.2-2.4,3.2h-40.6c2.8-2.9,1.7-9.3,2-10.6s-1.6-6.3-1.6-6.3l0.4-11.6l-2.5-3.9l0.6-12.2l4-30.1
			c0,0,0.2-19.7-0.6-21.9c-0.9-2.2-6.6-21.8-7.9-25.3c-1.4-3.6,1.8-15.3,1.8-15.3l1.7,0.1c0,0-1.2,2.7,5.5,8.1
			c6.6,5.4,14.7,20.6,15,21.3c0.3,0.7,5.9,19.7,7.1,26.4c1.2,6.7,3,11.5,4.1,17.8c1.1,6.3,8.4,21.3,8.4,21.3
			c2.1,6.7-1.8,17.8-1.8,17.8l0.4,3.2c0,0,0,0,2.5,1s3,7.7,3,7.7l2.8,5l-0.5-20c0,0-2.3-11.7-2.3-13.3c0-1.6-2.7-10.2-2.7-10
			s-9.7-26.9-9.7-26.9c-3.6-5.4-7.9-30.2-7.9-30.2c15.6,10.4,30.1,13.9,30.1,13.9l-0.03,1.61c0.1,0.1,0.2,0.21,0.28,0.36
			c3.32,5.65,3.76,12.36,1.32,18.29c-0.9,16.05-0.51,32.27,6.05,47.22c2.04,4.65,4.7,8.96,7.92,12.88c0.5,0.6,1.1,0.76,1.65,0.63
			c1.34,2.11,2.4,3.91,2.4,3.91V505.1z"/>
		<path class="st1" d="M277.16,173.89c1.05-0.04,2.13-0.06,3.28-0.04L277,173.1C277.06,173.31,277.11,173.58,277.16,173.89z"/>
		<path class="st1" d="M265.2,192.6c0,0-3.03-2.49-6.9-9.33c-2.59,8.55,4.88,21.24,11.22,30.91c-2.73-11.82-3.54-15.09-3.77-15.87
			c0.61,0.23,6.61,2.81,7.85,16.28c0.14,1.58,0.26,2.84,0.35,3.86l21.95,25.14c0,0,2.33,1.98-0.34,3.98c0.02,0.61-0.04,1.2-0.2,1.75
			c1.29,0.09,3.14-0.13,3.14-0.13l3.9-2.4L277,199.4c0,0,0.98-20.05,0.16-25.51c-7.1,0.26-11.9,1.69-14.94,3.92
			C264.17,183.35,265.46,188.64,265.2,192.6z"/>
		<path class="st1" d="M252,249.2c0.4,4.9,10.1,5.8,10.1,5.8l-0.2,2.4c-5.5,3.2-4.7,4.7-4.7,4.7s-3.4,1.3,4.5-1.7
			c2.14-0.82,3.82-1.43,5.16-1.88l-2.05-11.7C260.84,246.25,251.69,245.36,252,249.2z"/>
		<path class="st1" d="M254.36,441.87l0.97-7.09c-0.02,0.07-0.03,0.12-0.03,0.12S254.89,437.73,254.36,441.87z"/>
		<path class="st1" d="M295.1,247.9c0.17-0.11,0.32-0.21,0.46-0.32c-0.31-8.42-16.97-22.01-18.56-21.58
			c-0.51-1.15-1.51-2.79-2.8-4.76c-0.05-0.56-0.13-1.46-0.25-2.78l-0.05-0.06c0,0,0.16,1.71,0.27,2.8
			c-1.32-2.02-2.95-4.41-4.65-7.01c0.09,0.4,0.18,0.79,0.28,1.21c2.9,12.64,1.01,21.73-0.87,26.86c6.74,2.3,18.36,6.37,24.93,9.34
			c0.76-0.66,1.25-1.42,1.5-2.27C294.18,249.24,293.48,248.9,295.1,247.9z"/>
		<path class="st1" d="M264.81,246.81c1.09,0.16,1.79,0.29,1.79,0.29s1.16-1.65,2.33-4.84c-3.15-1.07-5.23-1.76-5.23-1.76
			L264.81,246.81z"/>
		<path class="st1" d="M272.74,307.19l1.16-8.49l-5.59-31.9C266.22,275.55,271.05,299.4,272.74,307.19z"/>
	</g>
	<g id="Tracing" class="st0">
		<path class="st2" d="M450.4,95.2L441,76.5c0,0-0.7-1.4,1.7-1.3s3-2.2,3-2.2l-3.7-3.2c0,0,3.3-10.7,3.7-11.7c0.4-1-1.6,0-1.6,0
			s-2.1-6.7,8.2-11.2c10.3-4.5,13.2-4.8,13.2-4.8v-2.2c0,0-2.7,0.1-10.4,1.5l-1.9-0.1l-0.5-1.4l-2.1-1.1c0,0-3.4-2.2,0.6-2.8
			c3.9-0.6,5.8,0,5.8,0s0,2.4,0.7,2.7s1.5-1.3,1.5-1.3l8.3,0.3l1.7-1.9c0,0,9.3,1.5,15.5,10.5H480c0,0-6.8-5.3-12-3.5
			c0,0,7.9,3.9,10.7,5.2c2.8,1.3,2.2,7.6,2.2,7.6s-15.3-8.7-26.3-9.6c0,0,21.7,7.8,20.6,10.4c0,0-3.8-2.1-9.1,1.3
			c0,0-2.2,0.4-6.6-0.7c0,0-0.8,3.2,6.2,3.7c7,0.4,10.3-1.1,10.3-1.1s0.7-1.7,2.7,2s3.4,15.2,3.4,15.2s-0.1,20.4-17,22.1
			C465,98.4,454.6,101,450.4,95.2z"/>
		<path class="st3" d="M353.6,193l0.7,25.9c0,0,2.1,7.5,4.4,8.6c0,0-5.9,1.1-15.9,2.1s15.9,2.9,15.9,2.9s-21.3,2.6-7.6,0.3l7.6-0.3
			l1.5,30.4c0,0,7.5,3.4,6.3,9.3c-1.1,5.9,1.3,43.6,1.3,43.6s2.2,14.6,4.8,0c0,0,1.7,7.2,2.8,9.6c1.1,2.4,2.8,0,2.8,0
			s0.6-22.5-3.8-33.3l-6-21.8c0,0-6.6-26.9-5.6-32.8s-4.9-35.2-4.9-35.2L353.6,193z"/>
		<path class="st3" d="M301.9,211.6v6.9c0,0,31.1,41.8,29.5,40.5C330.6,258.3,327.1,252.1,301.9,211.6z"/>
		<path class="st3" d="M335.8,264.7c0,0,14.2,15.7,25.9,15.5c0,0-1.8-10.9-13.8-11.2S335.8,264.7,335.8,264.7z"/>
		<path class="st2" d="M282.6,292.9c0,0,4.9-12.7,11.7-13.6C294.3,279.2,287.5,292.5,282.6,292.9z"/>
		<path class="st2" d="M282.6,308.3c0,0,0.6-7.6,8.9-13.9c0,0,3-3,4.2-5.1s0,5.3,0,5.3S284.2,305.5,282.6,308.3z"/>
		<path class="st2" d="M285.7,325.8c0,0,8.6-16.3,11.5-17.4C300.2,307.2,292.6,324.7,285.7,325.8z"/>
		<path class="st2" d="M282,344.8c0,0,4.6-8.6,8-8.2S283,345,282,344.8z"/>
		<path class="st2" d="M281.6,90.1l0.6,19.8c0,0,2.3,2.1,6.5-6l-2.5-0.7c0,0,1.8-3.3,1.8-5.5c-0.1-2.2,0.4-5.8,1.3-6.3
			S284.7,88.4,281.6,90.1z"/>
		<path class="st2" d="M296.5,77c0,0,9.3-6,15.3-8C317.9,67,304.1,79.4,296.5,77z"/>
		<path class="st2" d="M381,107.2c0,0,17.9-3.3,28.9-8.6s25.9-14.9,25.9-14.9s-2,14.2-13.6,13.4c0,0-1.3,5.1,7.5,7.9
			c8.7,2.8,7.9,2.7,7.9,2.7l-19-0.6c0,0-13.7-0.4-22.5,6.8c-6.9,5.7-39.6,14.4-50.2,25.8c-3.7,4,12-13.3,8.4-17.4
			C343.6,110.4,316.4,112.1,381,107.2z"/>
		<path class="st2" d="M427.2,100.9c0,0,11-10,16.2-9.3c0,0-4.8,6.5-10,7.5s2.5,2.4,2.5,2.4S432.8,105.7,427.2,100.9z"/>
		<path class="st2" d="M441.9,97.4c0,0,4.8-1.5,4.6-2.1s3,1.4,0.7,2.7C445,99.2,441.9,97.4,441.9,97.4z"/>
		<path class="st2" d="M448.7,63.5v-4.2c0,0-2.5-1.4-2.1,2.1c0.4,3.5,0.4,3.5,0.4,3.5s3.5,2.5,9.8,0s3.9-3.4,3.9-3.4s-3.8-1.3-8.4,2
			C452.3,63.5,448.7,63.5,448.7,63.5z"/>
		<path class="st2" d="M439.2,125.3c0,0,1.8-6.3,5.8-8.9c4.1-2.7-1.7-2.6-1.7-2.6l-2.5,1.4c0,0-0.1-4.1,4.2-3
			c4.3,1.1,3.1,4.9,3.1,4.9s-4.9,6.4-4.4,8.2c0.5,1.9,2.8-1,2.8-1s-0.8,5.3-5.7,8.6c0,0-2.1,4.9-1.7,5.6s-2.8,0-2.8,0l-2.2,1.5
			c0,0,8-12.1,9.2-13.2S439.2,125.3,439.2,125.3z"/>
		<path class="st2" d="M503.5,107.1h8.2c0,0,2.1,3,3.8,10.7c0,0,1.5,2.2,1.5-6.9c0,0,3.6,1.1,5.6,3.9c0,0,2.6-0.8,1.1,3.2l-0.9,15.5
			c0,0-3.4,13.9-7.9,2.4l-1.1-9.2c0,0-2.1,3.9-3.8,1.7C508.4,126.2,504.8,121.4,503.5,107.1z"/>
		<path class="st2" d="M451.4,116.4l6.9,11.3v3.8C458.3,131.5,449.5,123.7,451.4,116.4z"/>
		<path class="st2" d="M464.5,122.5h4.1c0,0,4.3-3.4,6.4-2.8s-6,5.2-6,5.2s-4.5,0.7-4.5-1.4"/>
		<path class="st2" d="M491.1,173.9l4.1,2.8l-2.1,18.7l-4.3-6.2v-4.6l3.2-2.3c0,0-5.4-0.2-3.2-4.3
			C491.1,173.9,491.1,173.9,491.1,173.9z"/>
		<path class="st2" d="M496.5,180.2v7.9c0,0,3.4,0.1,2.8-7.9H496.5z"/>
		<path class="st2" d="M503.5,143.9c0,0,3.6,1.1,4.1-2.1C508.2,138.6,503.5,143.9,503.5,143.9z"/>
		<path class="st2" d="M509.3,146.1c0,0-6.8,2.6-4.5,6.4C507,156.2,509.3,146.1,509.3,146.1z"/>
		<path class="st2" d="M452.5,159.2c0,0,10.3,21.9,16.5,22.1C475.2,181.5,452.5,159.2,452.5,159.2z"/>
		<path class="st2" d="M432.6,181.4c0,0,0.2,21.4-1.7,22.5S442.9,203.7,432.6,181.4z"/>
		<path class="st2" d="M399,218.9h4.1c0,0-3,15-4.1,14.2s-1.9-14.2-0.9-14.2S399,218.9,399,218.9z"/>
		<path class="st2" d="M408,212.1c0,0,3,4.1,3,6.7c0,2.6,0,11.9,0,11.9S402.8,222,408,212.1z"/>
		<path class="st2" d="M391,280.2c0,0-0.8,7.3,3,7.9S391,280.2,391,280.2z"/>
		<path class="st2" d="M399.6,303.6c4.5-0.2,4.9,8.6,3,9.2s-3-8.2-3-8.2C399.6,303.6,399.6,303.6,399.6,303.6z"/>
		<path class="st2" d="M474.7,259.5l3.7,5.3c0,0-0.3,17.3-1.8,17.3S473.6,266.4,474.7,259.5z"/>
		<path class="st2" d="M432.2,278.4c0,0,4.1-2.9,2,1.8c-2.1,4.7-1.3,29.3-1.3,29.3s-4.8-4.5-4.8-7.2
			C428.2,299.6,428.7,279.7,432.2,278.4z"/>
		<path class="st2" d="M434.8,245.9c0,0,17.5,54,29.9,57.1c0,0-24.5-49.8-27.8-57.8C433.5,237.2,434.8,245.9,434.8,245.9z"/>
		<path class="st2" d="M450.9,388.9c0,0,14.8,12.4,17.6,12.7S458.4,405.8,450.9,388.9z"/>
		<path class="st2" d="M401.3,356.2c0,0,0.7-10.3,2.4-11.4c1.7-1.1,5.9,9.7,5.9,9.7s2.4,20.8-5.1,21.8c0,0-4.1-9-3.2-12.7
			c0,0,6.9-1.8,5.1-9.4C406.4,354.2,403.4,355.9,401.3,356.2z"/>
		<path class="st2" d="M399.5,385.7c0,0,3.2-3,2.7,0.7s-1.8,2.5-1.8,2.5l-0.8,4.2C399.5,393.1,397.9,386.7,399.5,385.7z"/>
		<path class="st2" d="M402.2,413.7l1.1-14.9c0,0,6.9-21.9,6.7-23.8c-0.2-1.8,6.2-0.6,5.8,2.4c-0.4,3,0,7.7,0,7.7
			s-10,22.5-10.2,23.3s-1.2,6.6-1.2,6.6S402,416.3,402.2,413.7z"/>
		<path class="st2" d="M404.7,436.7h1.8c0,0,1-2.8,2.6-0.8s-1.5,8.6-1.5,8.6S405.1,443.1,404.7,436.7z"/>
		<path class="st2" d="M405.6,428.6c0,0,11.3-41.1,13.2-41.9c1.8-0.8,4.4,11.8,4.4,11.8s-7.3,22.5-15.3,28.7
			C407.8,427.2,409.4,431.2,405.6,428.6z"/>
		<path class="st2" d="M421.8,415.4c0,0,5.8-4,3,1.9s-4.2,6.2-4.2,6.2s-0.4,6.2-1.7,0.8C417.6,419,421.8,415.4,421.8,415.4z"/>
		<path class="st3" d="M488.6,434.9c0,0-2.2,15,0,22.8c2.2,7.7,1.1,18.3,1.1,18.3l3.4,2.8v-24.5
			C493.1,454.3,491.3,435.3,488.6,434.9z"/>
		<path class="st2" d="M263.1,422.3c0,0,4.1,3.6,5.2,3.4s-3.8,4.1-3.8,4.1l-1.5,2.6C263.1,432.4,260.1,430.2,263.1,422.3z"/>
		<path class="st2" d="M268.5,419.9l1.3,3.9l3.8-2C273.6,421.8,275.8,419.3,268.5,419.9z"/>
		<path class="st2" d="M265.2,443.7c0,0,5.1-14.4,14.1-21.4c9-6.9,15-14.2,15-14.2s3.4,0.9,2.8,4.7s-1.5,7-1.5,7
			s-12.4,2.5-19.1,12.6C269.7,442.5,265.2,443.7,265.2,443.7z"/>
		<path class="st2" d="M264,462.2c0,0-1.5-6.6,2.4-9.8c3.9-3.2,7.4-7.5,7.4-7.5S272.9,452.7,264,462.2z"/>
		<path class="st2" d="M290.7,427.4c0,0-3.6,8.8-5.6,9c-2.1,0.2-0.4,1.7,0,1.5S295.5,433.2,290.7,427.4z"/>
		<path class="st2" d="M279.4,403.9h-5.5l4.2,13.5c0,0,9.4-9.4,13.9-10.7c0,0,2.8-11.4,6-15s6.6-11.8,6.6-11.8v-6.4
			c0,0-8.9,1.1-16.5-5.4c0,0,1.1,14.1,0,18.2c0,0,10.4-9.2,14.9-6.8C302.9,379.5,280.2,392.5,279.4,403.9z"/>
		<path class="st2" d="M340.5,408c0,0,3.2-9.6,7.9-9.9C353.1,397.7,340.5,408,340.5,408z"/>
		<path class="st2" d="M338.9,394.8c0,0,10.9-7.4,16.1-10.2c5.2-2.8,2.8-3.5,6.6-3c0,0,0.9-2.2-2.6-1.9c-3.6,0.4-5.1,2.8-5.1,2.8
			s-3.6-3.1-9.6,4.1S338.9,394.8,338.9,394.8z"/>
		<path class="st2" d="M337.4,464.3c0,0-0.9,10.5,1.7,9.2S337.4,464.3,337.4,464.3z"/>
	</g>
	<path class="st1" d="M277,173.1c0,0,2.6-75.5-7.3-51.3C251.2,166.9,277,173.1,277,173.1z"/>
	<path class="st4" d="M372.59,301.24c0-0.21-0.08-0.38-0.17-0.52c-1.8-29.33-6.42-58.49-13.84-86.93
		c-2.13-8.15-4.48-16.24-7.06-24.27c-0.39-1.22-2.32-0.7-1.93,0.53c9.11,28.37,15.43,57.63,18.79,87.24
		c0.95,8.37,1.66,16.77,2.15,25.18c0.01,0.18,0.07,0.33,0.15,0.47c0.83,14.76,8.07,28.63,7.06,43.56c-0.09,1.28,1.91,1.28,2,0
		C380.79,330.96,372.92,316.63,372.59,301.24z"/>
	<path class="st4" d="M446.61,53.97c1.05-1.63,1.95-3.35,2.84-5.08c0.25-0.48,0.12-1.09-0.36-1.37c-0.25-0.15-0.52-0.17-0.76-0.09
		c-0.12-0.13-0.26-0.25-0.46-0.29c-1.67-0.41-2.77,1.12-3.18,2.53c-0.24,0.84-0.43,1.7-0.58,2.56c-0.19,0.71-0.29,1.44-0.3,2.18
		c-0.02,0.17-0.04,0.35-0.06,0.52c-0.01,0.13,0.02,0.26,0.08,0.39c0.01,0.1,0.02,0.21,0.03,0.31c-0.05,0.15-0.11,0.3-0.16,0.45
		c-0.38,1.23,1.55,1.76,1.93,0.53c0.03-0.09,0.07-0.18,0.1-0.27c0,0,0,0,0,0C445.98,55.53,446.28,54.74,446.61,53.97z"/>
</g>
<g id="Layer_2">
</g>
</svg>
