<?xml version="1.0" encoding="utf-8"?>
<!-- Generator: Adobe Illustrator 26.3.1, SVG Export Plug-In . SVG Version: 6.00 Build 0)  -->
<svg version="1.1" id="Layer_1" xmlns="http://www.w3.org/2000/svg" xmlns:xlink="http://www.w3.org/1999/xlink" x="0px" y="0px"
	 viewBox="0 0 792 612" style="enable-background:new 0 0 792 612;" xml:space="preserve">
<style type="text/css">
	.st0{display:none;}
	.st1{fill:#C792B4;}
	.st2{fill:#FFFFFF;}
</style>
<g id="Layer_1_00000129910022462658565210000006387396708514705063_" class="st0">
	
		<image style="display:inline;overflow:visible;enable-background:new    ;" width="690" height="815" xlink:href="../368CBBC89A62D953.jpg"  transform="matrix(0.7193 0 0 0.6337 158.3015 39.0108)">
	</image>
</g>
<g id="Layer_3">
	<path class="st1" d="M338.9,423.8c1.7,0.9-32.3-7.5-44.5,10c0,0-9.9,23.2-8.4,27l-10.9,35.8l-0.2,12.2l-6.6,1.9
		c0,0,13.9,7.3,16.1,11.2s2.4,5.2,2.4,5.2l-41.6,1c0,0-9.7-0.4-11.8-3.4s11.6-11.2,11.6-11.2l0.4-21.9c0,0,6.6-13.1,6.7-24.6
		c0.2-11.4,3.2-32.1,3.2-32.1s4.7-18.7,11.1-30.2l1.1-15.2l-2.6-1.5c0,0,2.2-6,1.9-11.4c-0.4-5.4-0.8-23.4,5.8-28.3
		c0,0-4.5-11.4-1.7-18.9s2.4-19.7,2.4-19.7s-7.7-33.2-4.9-43.3c2.8-10.1,3-9.2,3-9.2s-1.9,0.2-9.7,3.2c-7.9,3-4.5,1.7-4.5,1.7
		s-0.8-1.5,4.7-4.7l0.2-2.4c0,0-9.7-0.9-10.1-5.8c-0.4-4.9,14.6-2.1,14.6-2.1s7.9-11.2,3.2-31.7c-4.7-20.4-4.1-17.1-4.1-17.1
		s6.6,2.1,7.9,16.3c1.3,14.2,0.3,3.8,0.3,3.8l22,25.2c0,0,2.6,2.2-0.8,4.3s3.4,1.3,3.4,1.3l3.9-2.4L277,199.4c0,0,1.1-22.4,0-26.3
		l41.4,9l21,0.2c0,0,3.2,2.6,13.5,2.6c0,0,5.8,5.1,11.6-4.3c9.1,0.7,19.9-10.3,19.9-10.3s15.6-27.1,14.4-29.9
		c-1.2-2.8-18.8,10.3-18.4,10.1s-10.7,3.6-10.7,3.6l-1.3,4.9c0,0-19.3,12-24.6,18.9c-5.2,6.9,3-15.4,3-15.4l0.9,3.9
		c0,0,5.2-10,9-6.2c0,0,7.7-5.4,12.7-7.5c5.1-2.1,7.9-7.7,7.9-7.7l8.6-0.6l49.3-31.7c0,0,3.4-0.7-7.5-3.9c0,0-14.1,0-18.2,2.1
		s-28.3,12.6-28.3,12.6l-16.1,8.1c0,0,1.2-5.2-7.6,3.4c-8.8,8.6-16.8,11.6-16.8,11.6l0.8,3.6c0,0,1.9,1.1,0,4.7l9,0.8
		c0,0,1.9,3.6-4.5,3.4c-6.4-0.2-7.5-3-7.5-3l-12.4-23c0,0-13.7-5.8-16.9-4.1c-3.2,1.7,0-4.5,0-4.5l-9.4-7.7c0,0,19.9,12.6,26.2,4.7
		c6.4-7.9,7.3-9.9,8.6-22.7s0-8.1,0-8.1h-27c0,0-1.5,8.8-9.9,3.6c0,0-4.7-3.9-5.4-2.6c-0.7,1.3,1.1,7.9,4.5,13.5s1.3,9,1.3,9
		s-2.8,0.6-3.6-1.7c-0.8-2.2,0-6.2,0-6.2s-11.8,9.2-15,10.3s31.3,16.5,31.3,16.5l1.3,0.2l1.1,3.6c0,0,2.6,4.3,8.2,6.9
		c5.6,2.6,10.7,9.7,10.7,9.7s-34.9-19.1-37.9-19.7c-3-0.6-4.5-1.3-4.5-1.3l3.6-0.9c0,0-9.9-10.5-23.6-9.7c0,0-13.3,10.5-21.6,26.6
		c0,0,18,30.2,17.1,44.1c0,0-10.5-8.6-17.4-37.9c0,0-1.5,0.6-1.5,4.3c0,0-1.9-0.4-1.7-13.3l2.1-0.2c0,0,2.1-9.2,10.5-15.7
		c8.4-6.6,19.9-15.7,20.8-19.3c0.5-2.1-0.1-3-0.8-3.4c-0.6-0.3-0.9-0.9-0.9-1.6l0.2-15.2c0,0-1.5-4.7-4.7-3.6
		c-3.2,1.1,2.4,2.1,2.4,2.1s3.2,2.2-4.7,3.4c-7.7,0.9-8.6-2.7-8.6-2.7l6-5.1v-2.7l2.2,2.1h1.8v-1.5l-7.1-4.2c0,0-0.6-2.7,2.5-2
		l6.1,5.1c0,0,1.5,0.9,2.2-0.4c0.7-1.3,6.1-12.6,11.4-15.1s5-4.9,18.4-6.5c0,0-3.4,4.9-12.6,7c0,0-8.6,3.3-9.1,9.4
		c0,0-0.5,2.9,3.2,4.8v3.5c0,0,16.5-2.2,26.4-7.5c0,0,15.3-5.4,15.7-5.6c0.4-0.1-11.7,8.2-19.4,10.1c-7.7,1.9-19.2,5.3-22.2,4.4v0.9
		c0,0,15.4,1.9,25.7,2c10.3,0.1,19.9-1.6,19.9-1.6s4.7-2.5,4.9-7.2c0.1-4.7-3.9-9.6-3.9-9.6s-10.5-9.6-15.7-10.7l-2.8-0.8
		c0,0-1.8-0.9,7-0.4s14.3,10.8,14.3,10.8s4.5,6.5,5.2,14s0.5,11.9,0,15.8c-0.5,3.9-3.9,10.6-3.9,10.6s2,1.3,44.4-5.5
		C423.9,96.8,435,81,435,81V54.6c0,0,6.3-7.9,12.5-10.5v-1.4c0,0-2.2-2.1-1.5-6.9c0,0,3.2-1.3,3.8-2.7h4.9v-5.8l1.1-1.4h5.8
		c0,0-1.3,2.6-3.8,3.5c0,0-0.2,3.2,1.2,3.3c1.4,0.1,9.1-6.8,9.1-6.8h11.5v2.7c0,0-1.9,2.8-12,1.6l0.1,1.1c0,0,3.2,0.1,5.8,1.1
		c2.6,0.9,14.1,11,14.1,11l2.7,0.2v7.5c0,0-0.3,3.7-4.1,4.2c0,0-0.1,2,0.3,2.7c0.4,0.6,0.7,17,0.7,17s-4.3,17.3-3.4,20.1l-0.1,13.1
		c0,0,5.8,4.1,19.3-2.7c0,0,3.2-1.4,6-2.7c0,0,12.4,3.9,16.9,8.4s3,11.5,3,11.5s0,15.7-5.5,21.8c0,0-8.7,20.6-9.2,20.8
		c-0.5,0.2-3.8,13.3-3.8,13.3v15.3c0,0-2.5,6.8-9,7.3l0.7,7.5c0,0-9.5,4.8-9.1,13.6s-3.7,20.5-3.7,20.5l4.8,6.3
		c0,0,2.8,7.7-4.9,10.9l5.2,4.7c0,0,2.1,3.5-2.6,6.3c0,0-1,8.4,2.7,13s3.4,19.8,3.4,19.8s-1.9,11.8-7.7,16.7l-3.7,9l-2.7,10.7
		l-1.1,25.9c0,0,7.7,12.1,8.6,15c0,0,1.7,3,1.5,5.9s-0.8,25-0.8,25l-0.7,0.5l-0.1,16.9c0,0-2.4,1.6-2.5,4.1s-3.4-2.5-3.4-2.5
		l0.3-15.1c0,0-14.5-3.5-30.1-13.9c0,0,4.3,24.8,7.9,30.2c0,0,9.7,27.1,9.7,26.9s2.7,8.4,2.7,10s2.3,13.3,2.3,13.3l0.5,20l-2.8-5
		c0,0-0.5-6.7-3-7.7s-2.5-1-2.5-1l-0.4-3.2c0,0,3.9-11.1,1.8-17.8c0,0-7.3-15-8.4-21.3s-2.9-11.1-4.1-17.8s-6.8-25.7-7.1-26.4
		s-8.4-15.9-15-21.3c-6.7-5.4-5.5-8.1-5.5-8.1l-1.7-0.1c0,0-3.2,11.7-1.8,15.3c1.3,3.5,7,23.1,7.9,25.3c0.8,2.2,0.6,21.9,0.6,21.9
		l-4,30.1l-0.6,12.2l2.5,3.9l-0.4,11.6c0,0,1.9,5,1.6,6.3s0.8,7.7-2,10.6h40.6c0,0,2.5-1.3,2.4-3.2s-0.4-2.5-0.4-2.5s2.7,2,5.1,2.1
		s7.8,0.3,13.9-1.1l9.9-0.1v-4.3c0,0-4.7-8-6.8-10s-2.9-6.3-2.9-6.3s10.1,9.6,11.1,11c1,1.5,3.5,3.6,3.7,7.7s-1.3,5.6-1.3,5.6v2
		h26.3h0.4v14l-126.4,0.8v-1.5l7.6,0.2c0,0,3.7-1.5-0.1-3.4l-15.7-0.1c0,0-3.8-0.8-5.4-3.5l44-0.1l88.9-0.6c0,0,2.1-1.4-3.4-1.6
		s-14.5-0.8-14.5-0.8l-16.2-0.2l-52.6,0.1l-62.3-0.6c0,0-3.4,0.1,1.1-2s29.9-19,30.1-23.1s-8.2-40.6-8.2-40.6l-0.6-24.4
		c0,0,2.5-5.2-1.6-3.4c-4.1,1.8-4.1-5.1-4.1-5.1l-0.5-19.1c0,0,1.8-14.6,1.2-17.5c0,0-6.2-24.3-8.4-27.8c-2.2-3.5-6.3-23.5-6.3-36.8
		c0-13.4-2.4-60.2-2.4-60.2s-0.1-28.8,15-40.8c15.2-12,19.7-25,19.7-25s-16.9-6.2-21.1-14.2c0,0,18.7-26.6,29.4-28.7
		c0,0-1.5,3.8-2.5,5.1s10.3,2.7,10.3,2.7s1.5-0.7,0.3-3.7s0.7-3,0.7-3s10.8,27.3,10.7,34.7c0,0-7.9-0.8-9.3-23.2
		c0,0-7.9-5.3-14.6-4.5c-6.8,0.8,6.2,25.2,6.2,25.2s0.7,2.5-2.2,0.4c-3-2.1-3-2.1-3-2.1s1.4,33.7,7.7,38c0,0,3.2-5.5,5.6-5.9
		c2.4-0.4-2.4,6.2-2.4,6.2l-0.1,14.3l1.1,2.1c0,0-8.3-0.4-10.4-2.8s-0.1-5.6-0.1-5.6l2.8,2.2l-0.4-5.9l-3.1-8.2c0,0-2,6.9-1.4,7.9
		s-0.7,19.8-0.7,19.8s0.8-2.7-9-3c0,0-2.8-1.7-3.4-5.5c0,0-8.2,9-7.4,14.2c0.8,5.2-3,12.2,3.5,23.8l9.6-16.2c0,0,6.9,7,8.9,9.3
		c2,2.2,7.3,9,6.6,14.9c0,0-7-1.5-13.8-20.5c0,0-7.7,7.2-8,15.2s0.4,19.8,0.4,19.8s-0.4,2.5-4.8-3.4s3.7,12.4,3.7,12.4
		s4.6-6.2,7.5-17c2.8-10.8,7.3-9.8,7.3-9.8s-10.5,27-9.4,29.8s-2.7,19.5,2.1,24.6c4.8,5.1,10-22.5,10-22.5l1.7-2.5l-2.4,26.2
		c0,0-0.3,18.4,3,18.7s3.8-20,3.8-20l2.2-2.8l2.7,3.4l-0.7,27c0,0,2.1,8.3,2.5,2.7c0.4-5.6-0.1-11-0.1-11s2.5-3.7,5.5,0.4l0.6,15.2
		l3.2-2.2c0,0,0.4-5.3-1-9.7s-2.1-12.4-2.1-12.4l3.1,4.8l6.2,20.2c0,0,3.1,13.2,11.5,15c0,0,0.3,8,3.4,10s15.6,14.3,15.6,14.3
		s4.2,7.2,3.5,8.9l1.3,0.3c0,0,3.4-21.8-1.7-30.1c-5.1-8.3-23.8-44.7-22.6-51.5c0,0,11.2,22.4,13.1,22.8s0.7-5.9,0.7-5.9l-0.6-4.5
		l2.1-0.1l0.6,4.1c0,0,4.2-0.7,7.3-14.5c0,0-6.2-1.1-8-7.9s-4.1-10.8-4.1-10.8s5.5-1,8.4,12.9c0,0,5.5,0.8,3.2-11.8
		c-2.2-12.7-14.1-19.3-14.1-19.3l0.7-44.2c0,0-0.7-8.6-5.8-10.7c-5.1-2.1-4.1,27.1-4.1,27.1s0.1,3.8-4.1,4.1s1.1-23.8,1.1-23.8
		s-8.7,9.6-12.9,9.1c-4.2-0.4,13.2-15.5,17.3-18.3c4.1-2.8-2.2-7.7-2.2-7.7s-11.4-18.8-9.1-24.9c0,0,17.2,21.8,18.8,25.9
		c0,0,2.7-0.1,3.8-2c0,0-1.3,8.9-0.3,9.1c0,0,8.6,16,13.6,18c0,0-0.8-20.4-10.8-30.9c0,0-15.2-21.1-15.6-30.1c0,0,5.2,7.9,8.9,12.5
		c0,0,2.1-20.5,5.8-18l-0.8,23.6l4.2,7L477,215l-0.1-10.1l2.8-3l0.4,8l4.9-12.5c0,0,1.7-1.8,1.7,1.8c0,3.7-3,11.8-3,11.8l0.3,5.3
		c0,0,6.8-12.1,6.9-15.9l-5.6-6.7l-3.5,3.7c0,0-3.8,1.8-2.2-2.4c1.5-4.2,2.4-3.7,2.4-3.7l-0.1-2.8c0,0-11.7-16-12.7-16
		s5.2-1.3,14.9,13.1l2.4-1.8c0,0,0.8-10.1,3.5-11.4s-16-17.5-16-17.5l-4.2-6.3l-10,1.3c0,0,3.8,9.4,4.1,10.5
		c0.4,1.1-6.8-5.6-6.8-5.6s-5.6-0.6-9.6,2.6c-3.9,3.2,7.5-6,7.5-6s-3.4-12-2.6-12.2c0.8-0.2,3.6,9.2,4.9,9c1.3-0.2,8.2,1.3,9.2-2.6
		c0.9-3.9-5.6-9.7-5.6-9.7v-4.3l11.1,13.1l9.4-2.4c0,0,3.3,4.2-6.2,4.5c0,0,26.1,30.4,32.1,32.4c0,0,7.3-30.9,10.5-35.1
		c0,0-13.3-14.2-17.8-32.1c0,0-12.9,7.9-15.2,7.1s-0.4-2.8-0.4-2.8l4.3-3.2c0,0-1.5-3.6-5.4-1.5s-3.9,2.1-3.9,2.1s-3.2-9.9,0.6-16.5
		c0,0-10.3,8.1-27.7,1.5c0,0,6.6,10.5,3.4,14.6l-6.2-2.8c0,0,4.1-6-0.6-7.1c-4.7-1.1-10.5,1.7-10.5,1.7s2.4,6.2,0.6,6.9
		c0,0,3.2-1.7,2.6-4.3c-0.6-2.6,2.8,2.1-0.8,4.3c-3.6,2.2-6.4,5.8-13.9,7.9c0,0-30.4,22.7-34.7,25.3l2.8,8.2
		c0,0,17.2-12.2,21.4-13.1c4.1-0.9,12.6-1.7,12.6-1.7s2.1,2.2-11.1,2.8c0,0-0.8,4.1-17.4,16.3c0,0-6.3,8.6-4.4,10.9
		c0,0-27.7,17.4-40.1,19.7c0,0,0.4,6.2-13.1,3s-51.9-18.2-60.3-17.4c-49.9-1.9-9.9,42.3-5.6,52.1c2.2-0.6,33.2,25.6,10,27.9
		c0,0,0.4,1.7,10.3,1.3c9.9-0.4-33.6-14.7-33.6-14.7l10.2,58.2l-19.8,145.1c0,0,19.1-15.7,32.2-14.2s27.2,8.4,27.2,8.4l2.2,0.3
		c18.7,2.3,37.6-2.9,52.6-14.4l3.1-9.7l7.8-44.7l-0.6-36.7c0,0,6.9,30.7-2.9,43.4c0,0,5.4,4.3,3.1,6.2s-2.1,13.6-2.3,15.8
		s-5.2,25.2-6.9,28.2s-5.8,46.5-5.8,46.5L364,505c0,0,9.9,9.9,26.6,13.5l14.2,6.9c0,0-0.2,2.5-12,2.8c-11.8,0.4-58.7-0.9-58.7-0.9
		l-4.1-4.1"/>
</g>
<g id="Tracing">
	<path class="st2" d="M450.4,95.2L441,76.5c0,0-0.7-1.4,1.7-1.3s3-2.2,3-2.2l-3.7-3.2c0,0,3.3-10.7,3.7-11.7c0.4-1-1.6,0-1.6,0
		s-2.1-6.7,8.2-11.2c10.3-4.5,13.2-4.8,13.2-4.8v-2.2c0,0-2.7,0.1-10.4,1.5l-1.9-0.1l-0.5-1.4l-2.1-1.1c0,0-3.4-2.2,0.6-2.8
		c3.9-0.6,5.8,0,5.8,0s0,2.4,0.7,2.7s1.5-1.3,1.5-1.3l8.3,0.3l1.7-1.9c0,0,9.3,1.5,15.5,10.5H480c0,0-6.8-5.3-12-3.5
		c0,0,7.9,3.9,10.7,5.2c2.8,1.3,2.2,7.6,2.2,7.6s-15.3-8.7-26.3-9.6c0,0,21.7,7.8,20.6,10.4c0,0-3.8-2.1-9.1,1.3
		c0,0-2.2,0.4-6.6-0.7c0,0-0.8,3.2,6.2,3.7c7,0.4,10.3-1.1,10.3-1.1s0.7-1.7,2.7,2s3.4,15.2,3.4,15.2s-0.1,20.4-17,22.1
		C465,98.4,454.6,101,450.4,95.2z"/>
	<path class="st1" d="M353.6,193l0.7,25.9c0,0,2.1,7.5,4.4,8.6c0,0-5.9,1.1-15.9,2.1s15.9,2.9,15.9,2.9s-21.3,2.6-7.6,0.3l7.6-0.3
		l1.5,30.4c0,0,7.5,3.4,6.3,9.3c-1.1,5.9,1.3,43.6,1.3,43.6s2.2,14.6,4.8,0c0,0,1.7,7.2,2.8,9.6c1.1,2.4,2.8,0,2.8,0
		s0.6-22.5-3.8-33.3l-6-21.8c0,0-6.6-26.9-5.6-32.8s-4.9-35.2-4.9-35.2L353.6,193z"/>
	<path class="st1" d="M301.9,211.6v6.9c0,0,31.1,41.8,29.5,40.5C330.6,258.3,327.1,252.1,301.9,211.6z"/>
	<path class="st1" d="M335.8,264.7c0,0,14.2,15.7,25.9,15.5c0,0-1.8-10.9-13.8-11.2S335.8,264.7,335.8,264.7z"/>
	<path class="st2" d="M282.6,292.9c0,0,4.9-12.7,11.7-13.6C294.3,279.2,287.5,292.5,282.6,292.9z"/>
	<path class="st2" d="M282.6,308.3c0,0,0.6-7.6,8.9-13.9c0,0,3-3,4.2-5.1s0,5.3,0,5.3S284.2,305.5,282.6,308.3z"/>
	<path class="st2" d="M285.7,325.8c0,0,8.6-16.3,11.5-17.4C300.2,307.2,292.6,324.7,285.7,325.8z"/>
	<path class="st2" d="M282,344.8c0,0,4.6-8.6,8-8.2S283,345,282,344.8z"/>
	<path class="st2" d="M281.6,90.1l0.6,19.8c0,0,2.3,2.1,6.5-6l-2.5-0.7c0,0,1.8-3.3,1.8-5.5c-0.1-2.2,0.4-5.8,1.3-6.3
		S284.7,88.4,281.6,90.1z"/>
	<path class="st2" d="M296.5,77c0,0,9.3-6,15.3-8C317.9,67,304.1,79.4,296.5,77z"/>
	<path class="st2" d="M381,107.2c0,0,17.9-3.3,28.9-8.6s25.9-14.9,25.9-14.9s-2,14.2-13.6,13.4c0,0-1.3,5.1,7.5,7.9
		c8.7,2.8,7.9,2.7,7.9,2.7l-19-0.6c0,0-13.7-0.4-22.5,6.8c-6.9,5.7-39.6,14.4-50.2,25.8c-3.7,4,12-13.3,8.4-17.4
		C343.6,110.4,316.4,112.1,381,107.2z"/>
	<path class="st2" d="M427.2,100.9c0,0,11-10,16.2-9.3c0,0-4.8,6.5-10,7.5s2.5,2.4,2.5,2.4S432.8,105.7,427.2,100.9z"/>
	<path class="st2" d="M441.9,97.4c0,0,4.8-1.5,4.6-2.1s3,1.4,0.7,2.7C445,99.2,441.9,97.4,441.9,97.4z"/>
	<path class="st2" d="M448.7,63.5v-4.2c0,0-2.5-1.4-2.1,2.1c0.4,3.5,0.4,3.5,0.4,3.5s3.5,2.5,9.8,0s3.9-3.4,3.9-3.4s-3.8-1.3-8.4,2
		C452.3,63.5,448.7,63.5,448.7,63.5z"/>
	<path class="st2" d="M439.2,125.3c0,0,1.8-6.3,5.8-8.9c4.1-2.7-1.7-2.6-1.7-2.6l-2.5,1.4c0,0-0.1-4.1,4.2-3
		c4.3,1.1,3.1,4.9,3.1,4.9s-4.9,6.4-4.4,8.2c0.5,1.9,2.8-1,2.8-1s-0.8,5.3-5.7,8.6c0,0-2.1,4.9-1.7,5.6s-2.8,0-2.8,0l-2.2,1.5
		c0,0,8-12.1,9.2-13.2S439.2,125.3,439.2,125.3z"/>
	<path class="st2" d="M503.5,107.1h8.2c0,0,2.1,3,3.8,10.7c0,0,1.5,2.2,1.5-6.9c0,0,3.6,1.1,5.6,3.9c0,0,2.6-0.8,1.1,3.2l-0.9,15.5
		c0,0-3.4,13.9-7.9,2.4l-1.1-9.2c0,0-2.1,3.9-3.8,1.7C508.4,126.2,504.8,121.4,503.5,107.1z"/>
	<path class="st2" d="M451.4,116.4l6.9,11.3v3.8C458.3,131.5,449.5,123.7,451.4,116.4z"/>
	<path class="st2" d="M464.5,122.5h4.1c0,0,4.3-3.4,6.4-2.8s-6,5.2-6,5.2s-4.5,0.7-4.5-1.4"/>
	<path class="st2" d="M491.1,173.9l4.1,2.8l-2.1,18.7l-4.3-6.2v-4.6l3.2-2.3c0,0-5.4-0.2-3.2-4.3
		C491.1,173.9,491.1,173.9,491.1,173.9z"/>
	<path class="st2" d="M496.5,180.2v7.9c0,0,3.4,0.1,2.8-7.9H496.5z"/>
	<path class="st2" d="M503.5,143.9c0,0,3.6,1.1,4.1-2.1C508.2,138.6,503.5,143.9,503.5,143.9z"/>
	<path class="st2" d="M509.3,146.1c0,0-6.8,2.6-4.5,6.4C507,156.2,509.3,146.1,509.3,146.1z"/>
	<path class="st2" d="M452.5,159.2c0,0,10.3,21.9,16.5,22.1C475.2,181.5,452.5,159.2,452.5,159.2z"/>
	<path class="st2" d="M432.6,181.4c0,0,0.2,21.4-1.7,22.5S442.9,203.7,432.6,181.4z"/>
	<path class="st2" d="M399,218.9h4.1c0,0-3,15-4.1,14.2s-1.9-14.2-0.9-14.2S399,218.9,399,218.9z"/>
	<path class="st2" d="M408,212.1c0,0,3,4.1,3,6.7c0,2.6,0,11.9,0,11.9S402.8,222,408,212.1z"/>
	<path class="st2" d="M391,280.2c0,0-0.8,7.3,3,7.9S391,280.2,391,280.2z"/>
	<path class="st2" d="M399.6,303.6c4.5-0.2,4.9,8.6,3,9.2s-3-8.2-3-8.2C399.6,303.6,399.6,303.6,399.6,303.6z"/>
	<path class="st2" d="M474.7,259.5l3.7,5.3c0,0-0.3,17.3-1.8,17.3S473.6,266.4,474.7,259.5z"/>
	<path class="st2" d="M432.2,278.4c0,0,4.1-2.9,2,1.8c-2.1,4.7-1.3,29.3-1.3,29.3s-4.8-4.5-4.8-7.2
		C428.2,299.6,428.7,279.7,432.2,278.4z"/>
	<path class="st2" d="M434.8,245.9c0,0,17.5,54,29.9,57.1c0,0-24.5-49.8-27.8-57.8C433.5,237.2,434.8,245.9,434.8,245.9z"/>
	<path class="st2" d="M450.9,388.9c0,0,14.8,12.4,17.6,12.7S458.4,405.8,450.9,388.9z"/>
	<path class="st2" d="M401.3,356.2c0,0,0.7-10.3,2.4-11.4c1.7-1.1,5.9,9.7,5.9,9.7s2.4,20.8-5.1,21.8c0,0-4.1-9-3.2-12.7
		c0,0,6.9-1.8,5.1-9.4C406.4,354.2,403.4,355.9,401.3,356.2z"/>
	<path class="st2" d="M399.5,385.7c0,0,3.2-3,2.7,0.7s-1.8,2.5-1.8,2.5l-0.8,4.2C399.5,393.1,397.9,386.7,399.5,385.7z"/>
	<path class="st2" d="M402.2,413.7l1.1-14.9c0,0,6.9-21.9,6.7-23.8c-0.2-1.8,6.2-0.6,5.8,2.4c-0.4,3,0,7.7,0,7.7s-10,22.5-10.2,23.3
		s-1.2,6.6-1.2,6.6S402,416.3,402.2,413.7z"/>
	<path class="st2" d="M404.7,436.7h1.8c0,0,1-2.8,2.6-0.8s-1.5,8.6-1.5,8.6S405.1,443.1,404.7,436.7z"/>
	<path class="st2" d="M405.6,428.6c0,0,11.3-41.1,13.2-41.9c1.8-0.8,4.4,11.8,4.4,11.8s-7.3,22.5-15.3,28.7
		C407.8,427.2,409.4,431.2,405.6,428.6z"/>
	<path class="st2" d="M421.8,415.4c0,0,5.8-4,3,1.9s-4.2,6.2-4.2,6.2s-0.4,6.2-1.7,0.8C417.6,419,421.8,415.4,421.8,415.4z"/>
	<path class="st1" d="M488.6,434.9c0,0-2.2,15,0,22.8c2.2,7.7,1.1,18.3,1.1,18.3l3.4,2.8v-24.5C493.1,454.3,491.3,435.3,488.6,434.9
		z"/>
	<path class="st2" d="M263.1,422.3c0,0,4.1,3.6,5.2,3.4s-3.8,4.1-3.8,4.1l-1.5,2.6C263.1,432.4,260.1,430.2,263.1,422.3z"/>
	<path class="st2" d="M268.5,419.9l1.3,3.9l3.8-2C273.6,421.8,275.8,419.3,268.5,419.9z"/>
	<path class="st2" d="M265.2,443.7c0,0,5.1-14.4,14.1-21.4c9-6.9,15-14.2,15-14.2s3.4,0.9,2.8,4.7s-1.5,7-1.5,7s-12.4,2.5-19.1,12.6
		C269.7,442.5,265.2,443.7,265.2,443.7z"/>
	<path class="st2" d="M264,462.2c0,0-1.5-6.6,2.4-9.8c3.9-3.2,7.4-7.5,7.4-7.5S272.9,452.7,264,462.2z"/>
	<path class="st2" d="M290.7,427.4c0,0-3.6,8.8-5.6,9c-2.1,0.2-0.4,1.7,0,1.5S295.5,433.2,290.7,427.4z"/>
	<path class="st2" d="M279.4,403.9h-5.5l4.2,13.5c0,0,9.4-9.4,13.9-10.7c0,0,2.8-11.4,6-15s6.6-11.8,6.6-11.8v-6.4
		c0,0-8.9,1.1-16.5-5.4c0,0,1.1,14.1,0,18.2c0,0,10.4-9.2,14.9-6.8C302.9,379.5,280.2,392.5,279.4,403.9z"/>
	<path class="st2" d="M340.5,408c0,0,3.2-9.6,7.9-9.9C353.1,397.7,340.5,408,340.5,408z"/>
	<path class="st2" d="M338.9,394.8c0,0,10.9-7.4,16.1-10.2c5.2-2.8,2.8-3.5,6.6-3c0,0,0.9-2.2-2.6-1.9c-3.6,0.4-5.1,2.8-5.1,2.8
		s-3.6-3.1-9.6,4.1S338.9,394.8,338.9,394.8z"/>
	<path class="st2" d="M337.4,464.3c0,0-0.9,10.5,1.7,9.2S337.4,464.3,337.4,464.3z"/>
</g>
<path class="st1" d="M277,173.1c0,0,2.6-75.5-7.3-51.3C251.2,166.9,277,173.1,277,173.1z"/>
</svg>
