<?xml version="1.0" encoding="utf-8"?>
<!-- Generator: Adobe Illustrator 27.4.1, SVG Export Plug-In . SVG Version: 6.00 Build 0)  -->
<svg version="1.1" xmlns="http://www.w3.org/2000/svg" xmlns:xlink="http://www.w3.org/1999/xlink" x="0px" y="0px" width="30px"
	 height="30px" viewBox="0 0 30 30" style="enable-background:new 0 0 30 30;" xml:space="preserve">
<style type="text/css">
	.st0{fill:#F2A0C5;}
	.st1{fill:#A0A0A0;}
</style>
<g id="Layer_3">
	<g>
		<path class="st0" d="M12.4,1.95c-0.45-0.09-0.87,0.13-1.09,0.54c-0.17,0.32-0.26,0.7-0.36,1.04c-0.1,0.34-0.19,0.69-0.25,1.04
			c-0.04,0.23-0.06,0.45,0,0.68c0.05,0.21,0.16,0.39,0.29,0.56c0.16,0.21,0.54,0.18,0.71,0c0.2-0.22,0.17-0.49,0-0.71
			c0.07,0.09-0.05-0.14-0.01-0.03c0-0.01-0.04-0.16-0.02-0.05c-0.03-0.14,0-0.2,0.03-0.34c0.05-0.26,0.12-0.53,0.19-0.79
			c0.07-0.26,0.15-0.52,0.23-0.77c0.02-0.04,0.03-0.09,0.05-0.13c-0.03,0.09,0.04-0.07,0.05-0.09c-0.05,0.08,0.04-0.07-0.02,0.01
			c0.05-0.03,0.05-0.03,0.01-0.01c-0.03,0.01-0.06,0.01-0.08,0c0.26,0.05,0.55-0.07,0.62-0.35C12.81,2.32,12.68,2.01,12.4,1.95
			L12.4,1.95z"/>
	</g>
	<g>
		<path class="st0" d="M12.7,2.96C13.07,3,13.43,2.95,13.8,2.97c0.18,0.01,0.39,0.07,0.51,0.21c-0.05-0.06,0.04,0.08,0.03,0.06
			c0.01,0.03,0.02,0.1,0.02,0.11c0.01,0.17,0,0.26-0.03,0.42c-0.06,0.34-0.15,0.68-0.24,1.02c-0.05,0.16-0.1,0.32-0.15,0.48
			c-0.03,0.08-0.05,0.17-0.09,0.24c0.02-0.04-0.01,0.02-0.02,0.03c0.01-0.01,0.02-0.03,0.04-0.04c0.05-0.01-0.12,0.02-0.08,0.01
			c-0.09,0.02-0.19,0.02-0.28,0.03c-0.19,0.02-0.38,0.03-0.56,0.04C12.75,5.6,12.56,5.6,12.38,5.6c-0.06,0-0.2-0.03-0.26-0.01
			c0.05,0.04,0.09,0.07,0.14,0.11c0.11,0.13,0.16,0.16,0.13,0.08c-0.01-0.04-0.01-0.03,0,0.01c0-0.02,0-0.04,0-0.06
			c0-0.31-0.01-0.62,0.01-0.93c0.02-0.18,0.03-0.26,0.06-0.44c0.03-0.17,0.08-0.33,0.13-0.5c0.08-0.24,0.25-0.57,0.42-0.76
			c-0.28-0.12-0.57-0.24-0.85-0.35c-0.04,0.5-0.12,1-0.23,1.49c-0.12,0.54-0.27,1.05-0.02,1.57c0.16,0.32,0.71,0.33,0.86,0
			C13,5.34,13.13,4.83,13.3,4.33c0.13-0.38,0.31-0.73,0.62-1.01C13.64,3.16,13.37,3,13.09,2.83c-0.08,0.54-0.3,1.04-0.46,1.56
			c-0.15,0.51-0.39,1.39,0.18,1.72c0.24,0.14,0.53,0.04,0.68-0.18c0.6-0.89,1.03-1.9,1.27-2.95c-0.33-0.04-0.65-0.09-0.98-0.13
			c-0.1,0.94-0.29,1.87-0.55,2.78c-0.07,0.26,0.09,0.54,0.35,0.62c0.26,0.07,0.54-0.09,0.62-0.35c0.29-1,0.48-2.02,0.58-3.05
			c0.03-0.24-0.21-0.46-0.43-0.49c-0.23-0.03-0.49,0.11-0.55,0.36c-0.22,0.98-0.61,1.88-1.17,2.71c0.23-0.06,0.46-0.12,0.68-0.18
			c0.08,0.04,0.12,0.1,0.14,0.18c0.01,0.04,0.01,0.03,0-0.04c0-0.05,0-0.1,0.01-0.15c0.01-0.09,0.02-0.15,0.04-0.26
			c0.05-0.21,0.11-0.41,0.18-0.62c0.14-0.42,0.3-0.83,0.37-1.27c0.03-0.22-0.02-0.44-0.23-0.56c-0.2-0.12-0.44-0.07-0.61,0.08
			c-0.39,0.34-0.63,0.8-0.82,1.28c-0.18,0.47-0.28,0.96-0.49,1.42c0.29,0,0.58,0,0.86,0c0.02,0.05-0.02-0.09-0.01-0.02
			c-0.01-0.04,0-0.08,0-0.12c0-0.11,0.01-0.13,0.04-0.25c0.05-0.23,0.11-0.45,0.15-0.68c0.1-0.49,0.16-0.99,0.21-1.49
			c0.04-0.42-0.58-0.68-0.85-0.35c-0.55,0.66-0.8,1.45-0.89,2.29c-0.04,0.38-0.05,0.77-0.02,1.15c0.03,0.27,0.13,0.53,0.38,0.66
			c0.22,0.12,0.5,0.1,0.74,0.1c0.49,0,0.99-0.03,1.47-0.11c0.22-0.03,0.42-0.11,0.58-0.28c0.18-0.19,0.26-0.44,0.34-0.68
			c0.14-0.43,0.26-0.86,0.36-1.3c0.09-0.43,0.18-0.9,0.03-1.32c-0.17-0.46-0.58-0.77-1.05-0.88c-0.51-0.12-1.03-0.01-1.54-0.07
			c-0.27-0.03-0.5,0.25-0.5,0.5C12.2,2.75,12.43,2.93,12.7,2.96L12.7,2.96z"/>
	</g>
	<g>
		<path class="st0" d="M12.31,7.76c0.53,0.21,1.12,0.55,1.71,0.44c0.7-0.13,1.23-0.85,0.98-1.56c-0.17-0.47-0.59-0.79-1.1-0.72
			c-0.44,0.07-0.93,0.48-0.87,0.98c0.08,0.68,0.14,1.49,0.48,2.1c0.34,0.6,0.97,0.88,1.59,1.09c0.57,0.19,1.17,0.3,1.76,0.45
			c0.26,0.07,0.54,0.14,0.79,0.25c0.07,0.03,0.5,0.28,0.47,0.31c-0.03,0.03-0.06-0.15-0.05-0.13c0.02-0.09,0.02-0.09,0-0.02
			c-0.04,0.12,0,0.07,0.1-0.15c0.1-0.1,0.22-0.13,0.34-0.11c-0.04-0.01-0.09-0.02-0.13-0.03c-0.13-0.05-0.28-0.08-0.41-0.13
			c-0.56-0.2-1.08-0.53-1.58-0.85c-0.51-0.33-1.01-0.69-1.5-1.04c-0.42-0.3-0.76-0.61-0.9-1.11c-0.28-1-1.6-0.89-1.93,0
			c-0.22,0.61-0.46,1.22-0.82,1.77c-0.3,0.46-0.72,0.86-1.04,1.32c-0.37,0.54-0.57,1.17-0.57,1.83c0,0.66,0.22,1.3,0.2,1.97
			c-0.02,0.54,0.47,1,1,1c0.56,0,0.98-0.46,1-1c0.02-0.62-0.16-1.21-0.19-1.83c-0.03-0.48,0.14-0.79,0.44-1.16
			c0.4-0.49,0.81-0.95,1.11-1.51c0.32-0.59,0.56-1.24,0.79-1.87c-0.64,0-1.29,0-1.93,0c0.44,1.6,2,2.51,3.32,3.35
			c1.08,0.7,3.14,2,4.25,0.73c0.52-0.6,0.55-1.5,0.12-2.16c-0.43-0.65-1.16-0.99-1.88-1.22c-0.69-0.23-1.42-0.33-2.11-0.54
			c-0.15-0.05-0.45-0.12-0.53-0.22c-0.09-0.12-0.1-0.43-0.13-0.58c-0.03-0.17-0.06-0.33-0.08-0.5c-0.65,0.09-1.31,0.18-1.96,0.27
			c0.01,0.03,0.02,0.06,0.03,0.09c0-0.18,0-0.35,0-0.53c-0.01,0.03-0.02,0.06-0.02,0.09c0.09-0.15,0.17-0.29,0.26-0.44
			c0.02-0.01,0.03-0.02,0.05-0.02c0.17-0.05,0.34-0.09,0.5-0.14c-0.26,0.02-0.77-0.28-1.05-0.39c-0.5-0.2-1.1,0.22-1.23,0.7
			C11.45,7.09,11.8,7.56,12.31,7.76L12.31,7.76z"/>
	</g>
	<g>
		<path class="st0" d="M9.53,13.56c0.05,0.39,0.1,0.78,0.21,1.16c0.05,0.16,0.1,0.31,0.16,0.47c0.05,0.12,0.1,0.25,0.15,0.37
			c0.06,0.14,0.07,0.17,0.04,0.09c0-0.18,0-0.35,0-0.53c0,0.02-0.01,0.05-0.01,0.07c0.23-0.23,0.47-0.47,0.7-0.7
			c-0.01,0-0.03,0.01-0.04,0.01c0.26,0.03,0.51,0.07,0.77,0.1c-0.01-0.01-0.02-0.02-0.04-0.03c0.15,0.38,0.31,0.75,0.46,1.13
			c0-0.01,0-0.02,0.01-0.03c-0.23,0.23-0.47,0.47-0.7,0.7c1.11-0.22,1.52-1.3,1.79-2.26c0.23-0.83,0.45-1.75,0.99-2.42
			c0.08-0.1,0.24-0.24,0.33-0.34c0.07-0.08,0.11-0.03,0.05-0.06c-0.13-0.04-0.18-0.04-0.16,0.02c0.01,0.05,0.05,0.07,0.12,0.08
			c0.14,0.15,0.39,0.26,0.55,0.38c0.17,0.12,0.33,0.24,0.49,0.37c0.76,0.6,1.45,1.27,2.09,1.98c-0.09-0.32-0.17-0.65-0.26-0.97
			c-0.06,0.26-0.09,0.53-0.19,0.78c0.09-0.15,0.17-0.29,0.26-0.44c0.02-0.01,0.03-0.02,0.05-0.03c0.17-0.05,0.34-0.09,0.5-0.14
			c0,0,0.08,0.02,0.09,0.03c-0.04-0.06-0.21-0.13-0.28-0.17c-0.15-0.09-0.29-0.19-0.44-0.29c-0.29-0.2-0.57-0.41-0.84-0.63
			c-0.58-0.49-1.12-1.03-1.61-1.61c-0.53-0.63-1.43-0.19-1.67,0.44c-0.54,1.42-0.87,2.88-1.04,4.38c-0.04,0.39,0.34,0.9,0.73,0.96
			c0.53,0.09,0.97-0.02,1.36-0.41c0.21-0.21,0.43-0.54,0.54-0.67c0.09-0.11,0.18-0.22,0.28-0.31c-0.11,0.09,0.23-0.06,0.07-0.04
			c-0.08,0.01,0.12,0.03,0.17,0.05c0.11,0.04,0.14,0.06,0.25,0.12c0.26,0.14,0.39,0.24,0.59,0.44c0.23,0.23,0.31,0.45,0.55,0.7
			c0.37,0.39,0.98,0.46,1.45,0.19c0.45-0.27,0.58-0.73,0.64-1.21c0.06-0.54-0.5-1-1-1c-0.59,0-0.94,0.46-1,1
			c0.05-0.12,0.1-0.24,0.15-0.36c0.15-0.09,0.29-0.17,0.44-0.26c-0.03,0.01-0.06,0.02-0.09,0.03c0.18,0,0.35,0,0.53,0
			c-0.03-0.01-0.06-0.01-0.09-0.02c0.15,0.09,0.29,0.17,0.44,0.26c0.19,0.17-0.06-0.09-0.11-0.15c-0.11-0.15-0.22-0.29-0.34-0.43
			c-0.16-0.18-0.33-0.33-0.51-0.48c-0.51-0.4-1.09-0.74-1.74-0.84c-0.67-0.1-1.28,0.11-1.78,0.56c-0.17,0.15-0.32,0.33-0.46,0.51
			c0.16-0.2-0.33,0.43-0.2,0.26c-0.04,0.06-0.09,0.11-0.14,0.17c-0.12,0.11-0.09,0.11,0.09-0.01c0.18,0,0.35,0,0.53,0
			c-0.03-0.01-0.07-0.01-0.1-0.02c0.24,0.32,0.49,0.64,0.73,0.96c0.15-1.32,0.49-2.62,0.97-3.85c-0.56,0.15-1.11,0.29-1.67,0.44
			c0.86,1.01,1.86,1.89,2.96,2.63c0.63,0.42,1.37,0.9,2.13,0.45c0.36-0.22,0.52-0.61,0.61-1.01c0.05-0.22,0.13-0.48,0.13-0.71
			c0-0.33-0.18-0.57-0.38-0.81c-0.88-1-1.92-1.88-3.01-2.64c-0.7-0.49-1.45-0.9-2.29-0.46c-0.58,0.31-1.06,0.87-1.41,1.42
			c-0.41,0.64-0.67,1.39-0.88,2.12c-0.1,0.35-0.18,0.7-0.29,1.04c-0.03,0.11-0.09,0.25-0.14,0.32c0.04-0.06-0.07,0.07-0.07,0.06
			c0.07-0.04,0.1-0.05-0.04-0.02c-0.32,0.06-0.64,0.38-0.7,0.7c0,0.01,0,0.02-0.01,0.03c-0.09,0.47,0.07,0.86,0.46,1.13
			c0.25,0.17,0.57,0.19,0.85,0.11c0.32-0.09,0.63-0.36,0.7-0.7c0.15-0.73-0.39-1.43-0.48-2.16c-0.07-0.54-0.41-1-1-1
			C10.04,12.56,9.46,13.02,9.53,13.56L9.53,13.56z"/>
	</g>
	<g>
		<path class="st0" d="M12.03,17.62c1.3,0.29,2.5-0.09,3.68-0.63c0.06-0.03,0.57-0.24,0.57-0.27c0.01,0.18-0.39-0.14-0.07,0.05
			c0.07,0.04,0.15,0.07,0.22,0.11c0.33,0.17,0.61,0.33,0.64,0.62c0.05,0.52-0.19,1.11-0.25,1.62c-0.08,0.59-0.1,1.17-0.07,1.77
			c0.03,0.63,0.11,1.25,0.22,1.87c0,0.02,0.08,0.56,0.09,0.56c0,0,0.28-0.25,0.17-0.16c-0.06,0.05-0.02-0.04,0.06,0.03
			c0.1,0.08-0.11-0.08-0.09-0.05c-0.11-0.14-0.17-0.3-0.22-0.47c-0.16-0.56-0.15-1.17-0.09-1.74c0.12-1.12,0.51-2.19,0.75-3.29
			c0.11-0.52,0.23-1.06,0.06-1.59c-0.24-0.71-0.96-1.07-1.68-0.89c-0.58,0.14-0.94,0.62-1.38,0.98c-0.37,0.3-0.87,0.23-1.32,0.37
			c-0.63,0.19-1.17,0.64-1.35,1.29c-0.18,0.63-0.23,1.34-0.34,1.99c-0.24,1.41-0.5,2.81-0.78,4.21c-0.1,0.53,0.15,1.08,0.7,1.23
			c0.49,0.14,1.12-0.17,1.23-0.7c0.36-1.81,0.69-3.63,0.99-5.45c0.03-0.2,0.09-0.42,0.1-0.62c0.01-0.04,0.02-0.08,0.03-0.12
			c-0.03,0.05-0.06,0.09-0.09,0.14c0,0.04-0.01-0.03,0.07-0.04c0.19-0.02,0.65-0.09,0.93-0.16c0.46-0.11,0.85-0.36,1.2-0.67
			c0.21-0.18,0.41-0.49,0.68-0.52c-0.18,0-0.35,0-0.53,0c-0.12-0.13-0.23-0.27-0.35-0.4c0-0.02-0.01-0.05-0.01-0.07
			c0,0-0.01,0.18,0.01,0.04c-0.03,0.23-0.09,0.47-0.15,0.7c-0.11,0.46-0.23,0.92-0.35,1.38c-0.23,0.9-0.43,1.83-0.46,2.76
			c-0.02,0.89,0.1,1.92,0.61,2.67c0.49,0.74,1.39,1.2,2.28,0.95c0.92-0.26,1.39-1.11,1.29-2.04c-0.1-0.92-0.3-1.8-0.3-2.74
			c0-0.42,0.02-0.84,0.1-1.25c0.09-0.47,0.22-0.94,0.24-1.43c0.03-0.95-0.47-1.7-1.22-2.24c-0.34-0.24-0.75-0.45-1.15-0.58
			c-0.58-0.19-1.07-0.01-1.59,0.24c-0.77,0.37-1.67,0.83-2.55,0.63c-0.53-0.12-1.08,0.16-1.23,0.7
			C11.2,16.89,11.51,17.5,12.03,17.62L12.03,17.62z"/>
	</g>
	<g>
		<path class="st0" d="M11.39,20.07c-0.65,2.09-1.31,4.18-1.96,6.27c-0.23,0.74,0.52,1.42,1.23,1.23c0.33-0.09,0.6-0.25,0.85-0.48
			c0.38-0.36,0.39-1.06,0-1.41c-0.41-0.38-1.01-0.38-1.41,0c0.04-0.04,0.24-0.09,0.04-0.03c0.41,0.41,0.82,0.82,1.23,1.23
			c0.66-2.09,1.31-4.18,1.96-6.27c0.16-0.5-0.18-1.11-0.7-1.23C12.07,19.25,11.55,19.53,11.39,20.07L11.39,20.07z"/>
	</g>
	<g>
		<path class="st0" d="M11.88,26.83c0.83-0.22,1.61-0.6,2.42-0.86c0.34-0.11,0.69-0.21,1.04-0.24c0.19-0.01,0.4-0.02,0.59,0.01
			c-0.06-0.01,0.15,0.03,0.12,0.03c0.06,0.01,0.13,0.03,0.19,0.05c0.13,0.05,0.09,0.02-0.12-0.09c-0.1-0.24-0.2-0.47-0.29-0.71
			c0,0.02,0.01,0.05,0.01,0.07c0.1-0.24,0.2-0.47,0.29-0.71c-0.02,0.02-0.04,0.04-0.06,0.07c0.15-0.09,0.29-0.17,0.44-0.26
			c-0.65,0.17-1.36,0.2-2.02,0.29c0.18,0.64,0.35,1.29,0.53,1.93c0.68-0.26,1.37-0.49,2.06-0.69c0.65-0.19,1.34-0.29,1.97-0.54
			c0.85-0.34,1.27-1.14,1.09-2.04c-0.14-0.68-0.59-1.27-1.02-1.8c-0.88-1.08-1.92-2.03-2.96-2.95c-0.56-0.5-1.23-1.32-2.07-1.11
			c-0.88,0.22-1.01,1.18-1.19,1.94c-0.39,1.64-0.64,3.32-0.76,5c-0.05,0.72,0.9,1.29,1.5,0.86c0.94-0.67,1.41-1.88,1.85-2.92
			c0.23-0.54,0.44-1.09,0.57-1.67c0.15-0.68,0.08-1.68-0.8-1.81c-0.7-0.1-1.18,0.27-1.27,0.96c-0.2,1.57-0.22,3.15-0.07,4.72
			c0.05,0.54,0.42,1,1,1c0.5,0,1.05-0.46,1-1c-0.15-1.57-0.12-3.15,0.07-4.72c-0.42,0.32-0.84,0.64-1.27,0.96
			c0.02,0,0.05,0.01,0.07,0.01c-0.15-0.09-0.29-0.17-0.44-0.26c0.02,0.02,0.03,0.03,0.05,0.05c-0.09-0.15-0.17-0.29-0.26-0.44
			c-0.01-0.02,0-0.12,0.01-0.15c-0.04,0.06-0.04,0.2-0.06,0.27c-0.05,0.2-0.1,0.4-0.17,0.59c-0.11,0.33-0.24,0.65-0.39,0.97
			c-0.16,0.33-0.32,0.66-0.49,0.99c-0.09,0.17-0.17,0.33-0.27,0.49c-0.06,0.09-0.12,0.19-0.16,0.21c0.5,0.29,1,0.58,1.5,0.86
			c0.06-0.93,0.17-1.85,0.33-2.76c0.08-0.45,0.17-0.9,0.27-1.35c0.05-0.24,0.11-0.47,0.17-0.71c0.03-0.12,0.06-0.23,0.09-0.35
			c0.01-0.05,0.03-0.09,0.04-0.14c0.07-0.22,0.04-0.19-0.09,0.08c-0.15,0.09-0.29,0.17-0.44,0.26c0.03-0.01,0.07-0.02,0.1-0.03
			c-0.18,0-0.35,0-0.53,0c-0.15-0.12-0.17-0.13-0.08-0.05c0.04,0.03,0.07,0.06,0.11,0.09c0.09,0.08,0.18,0.15,0.26,0.23
			c0.18,0.16,0.35,0.31,0.53,0.47c0.37,0.33,0.73,0.66,1.09,1c0.64,0.62,1.32,1.25,1.84,1.98c0.12,0.17,0.24,0.36,0.34,0.55
			c-0.04-0.09,0.06,0.14,0.02,0.06c0-0.06,0-0.03,0,0.09c0.02-0.07,0.04-0.13,0.05-0.2c0.05-0.09,0.23-0.12,0.12-0.12
			c-0.09,0-0.19,0.05-0.27,0.07c-0.23,0.06-0.47,0.11-0.7,0.18c-0.98,0.26-1.95,0.57-2.9,0.93c-0.51,0.19-0.85,0.68-0.7,1.23
			c0.16,0.58,0.69,0.77,1.23,0.7c0.42-0.06,0.84-0.11,1.26-0.17c0.47-0.06,0.92-0.07,1.27-0.44c0.46-0.48,0.34-1.24-0.17-1.62
			C17,23.88,16.47,23.79,16,23.74c-1.66-0.18-3.1,0.75-4.65,1.16C10.11,25.24,10.64,27.17,11.88,26.83L11.88,26.83z"/>
	</g>
</g>
<g id="Layer_2">
	<g>
		<path class="st1" d="M12.53,8.43c0.1-0.6-0.05-1.16-0.38-1.67c-0.29-0.45-0.7-0.81-0.99-1.26c-0.29-0.44-0.37-1.01-0.25-1.52
			c0.05-0.24,0.2-0.45,0.3-0.68c0.14-0.3,0.21-0.63,0.34-0.94c0.12-0.29,0.28-0.26,0.57-0.28c0.31-0.02,0.62-0.03,0.94-0.03
			c0.51,0,1.18,0.01,1.42,0.55c0.24,0.54,0.33,1.15,0.3,1.73c-0.03,0.61-0.27,1.19-0.32,1.8c-0.05,0.63,0.09,1.51,0.52,2.01
			c0.44,0.51,1.25,0.51,1.87,0.62c0.63,0.1,0.9-0.86,0.27-0.96c-0.31-0.05-0.63-0.1-0.94-0.16c-0.33-0.06-0.47-0.11-0.57-0.44
			c-0.1-0.32-0.17-0.66-0.14-0.99c0.02-0.34,0.14-0.67,0.21-1c0.14-0.67,0.16-1.34,0.03-2.01c-0.11-0.59-0.32-1.28-0.81-1.66
			c-0.51-0.39-1.2-0.46-1.82-0.46c-0.58,0-1.36-0.08-1.88,0.21c-0.58,0.32-0.62,1.08-0.87,1.62C10.17,3.16,10,3.41,9.93,3.71
			C9.86,4.03,9.86,4.39,9.87,4.72c0.04,0.69,0.34,1.23,0.77,1.76c0.37,0.45,1.03,1.03,0.92,1.68C11.45,8.79,12.42,9.06,12.53,8.43
			L12.53,8.43z"/>
	</g>
	<g>
		<path class="st1" d="M16.98,8.78c0.74,0.05,1.47,0.26,1.77,0.97c0.16,0.37,0.28,0.76,0.4,1.14c0.07,0.22,0.13,0.44,0.17,0.67
			c0.02,0.11,0.04,0.21,0.06,0.32c0,0.03,0.01,0.05,0.01,0.08c0,0.04,0.01,0.07,0.01,0.11c0,0.06,0.01,0.05,0.01-0.04
			c0.08-0.1,0.15-0.2,0.23-0.3c-0.01,0-0.02,0.01-0.03,0.01c0.08-0.02,0.17-0.05,0.25-0.07c-0.24,0.01-0.49-0.01-0.73-0.02
			c-0.27-0.01-0.5,0.24-0.5,0.5c0,0.28,0.23,0.49,0.5,0.5c0.16,0.01,0.33,0.01,0.49,0.02c0.17,0.01,0.34,0.02,0.49-0.06
			c0.38-0.21,0.28-0.64,0.23-0.99c-0.1-0.64-0.31-1.25-0.52-1.85c-0.1-0.28-0.21-0.58-0.38-0.83c-0.18-0.26-0.4-0.47-0.66-0.64
			c-0.53-0.35-1.18-0.47-1.8-0.51c-0.27-0.02-0.5,0.24-0.5,0.5C16.48,8.57,16.71,8.76,16.98,8.78L16.98,8.78z"/>
	</g>
	<g>
		<path class="st1" d="M18.68,12.09c-0.22,2.11-0.29,4.32-0.24,6.44c0.02,0.94,0.06,1.92,0.38,2.81c0.08,0.22,1.18,2.36,1.19,2.36
			c-0.57,0.3-0.07,1.16,0.5,0.86c0.94-0.49,0.3-1.54-0.06-2.19c-0.55-0.98-0.91-1.87-0.98-3.01c-0.07-1.18-0.04-2.37,0.02-3.56
			c0.05-1.23,0.06-2.49,0.2-3.72C19.75,11.45,18.75,11.46,18.68,12.09L18.68,12.09z"/>
	</g>
	<g>
		<path class="st1" d="M12.02,25.04c1.17-0.41,2.3-0.74,3.54-0.8c1.19-0.05,2.17-0.54,3.07-1.31c0.49-0.42-0.22-1.12-0.71-0.71
			c-0.39,0.33-0.83,0.63-1.31,0.81c-0.5,0.19-1,0.19-1.53,0.22c-1.15,0.07-2.25,0.44-3.33,0.81C11.15,24.29,11.41,25.25,12.02,25.04
			L12.02,25.04z"/>
	</g>
	<g>
		<path class="st1" d="M11.62,8.21C10.79,9.09,9.7,9.75,9.1,10.84c-0.61,1.11-0.44,2.49-0.21,3.69c0.18,0.96,0.48,2.61,1.74,2.65
			c1.07,0.03,2.07-0.88,2.46-1.82c0.24-0.58,0.3-1.26,0-1.83c-0.15-0.29-0.39-0.5-0.64-0.69c-0.18-0.14-0.61-0.36-0.53-0.64
			c0.16-0.62-0.8-0.89-0.96-0.27c-0.15,0.58,0.13,1.1,0.58,1.46c0.22,0.18,0.53,0.33,0.67,0.59c0.14,0.26,0.11,0.57,0.02,0.84
			c-0.14,0.46-0.46,0.86-0.87,1.11c-0.19,0.11-0.56,0.32-0.79,0.23c-0.21-0.09-0.31-0.41-0.38-0.6c-0.22-0.64-0.37-1.31-0.44-1.98
			c-0.07-0.61-0.14-1.3,0.06-1.9c0.41-1.19,1.69-1.89,2.51-2.76C12.77,8.44,12.06,7.74,11.62,8.21L11.62,8.21z"/>
	</g>
	<g>
		<path class="st1" d="M12.49,14.2c-0.65-0.08-1.33,0.18-1.79,0.64c-0.19,0.18-0.2,0.53,0,0.71c0.2,0.18,0.51,0.2,0.71,0
			c0.05-0.05,0.1-0.09,0.15-0.14c-0.03,0.03-0.07,0.05-0.1,0.08c0.12-0.09,0.25-0.17,0.39-0.23c-0.04,0.02-0.08,0.03-0.12,0.05
			c0.15-0.06,0.3-0.1,0.46-0.13c-0.04,0.01-0.09,0.01-0.13,0.02c0.14-0.02,0.29-0.02,0.43,0c0.12,0.01,0.27-0.07,0.35-0.15
			c0.09-0.09,0.15-0.23,0.15-0.35c-0.01-0.13-0.05-0.26-0.15-0.35C12.74,14.25,12.63,14.21,12.49,14.2L12.49,14.2z"/>
	</g>
	<g>
		<path class="st1" d="M15.33,14.34c0.26,0.39,0.65,0.66,1.11,0.79c0.49,0.13,1.02,0.08,1.51-0.04c0.25-0.06,0.43-0.36,0.35-0.62
			c-0.09-0.26-0.34-0.42-0.62-0.35c-0.1,0.03-0.2,0.04-0.31,0.06c-0.06,0.01-0.05,0.01,0.02,0c-0.02,0-0.04,0-0.06,0.01
			c-0.05,0-0.09,0.01-0.14,0.01c-0.1,0.01-0.21,0-0.31-0.01c-0.11,0,0.09,0.02-0.02,0c-0.04-0.01-0.09-0.02-0.13-0.03
			c-0.07-0.02-0.14-0.05-0.21-0.07c0.14,0.04,0.01,0-0.02-0.02c-0.04-0.02-0.07-0.04-0.11-0.06c-0.01-0.01-0.07-0.06-0.08-0.05
			c0.06,0.05,0.07,0.05,0.03,0.02c-0.02-0.01-0.03-0.03-0.05-0.04c-0.03-0.03-0.06-0.06-0.09-0.09c-0.03-0.04-0.03-0.03,0.02,0.03
			c-0.01-0.02-0.02-0.03-0.04-0.05c-0.15-0.22-0.45-0.33-0.68-0.18C15.3,13.79,15.18,14.1,15.33,14.34L15.33,14.34z"/>
	</g>
	<g>
		<path class="st1" d="M14.2,14.66c-0.04,0.07-0.09,0.13-0.14,0.19c0.03-0.03,0.05-0.07,0.08-0.1c-0.18,0.23-0.38,0.43-0.61,0.61
			c0.03-0.03,0.07-0.05,0.1-0.08c-0.06,0.05-0.13,0.1-0.19,0.14c-0.11,0.07-0.19,0.17-0.23,0.3c-0.03,0.12-0.02,0.28,0.05,0.39
			c0.07,0.11,0.17,0.2,0.3,0.23c0.13,0.03,0.27,0.02,0.39-0.05c0.45-0.3,0.82-0.67,1.12-1.12c0.07-0.1,0.08-0.27,0.05-0.39
			c-0.03-0.12-0.12-0.24-0.23-0.3c-0.12-0.06-0.26-0.09-0.39-0.05C14.37,14.47,14.27,14.54,14.2,14.66L14.2,14.66z"/>
	</g>
	<g>
		<path class="st1" d="M14.94,20.05c0.15,0,0.3,0,0.45,0c0.07,0,0.13-0.01,0.19-0.04c0.06-0.02,0.12-0.05,0.16-0.1
			c0.05-0.05,0.08-0.1,0.1-0.16c0.03-0.06,0.05-0.12,0.04-0.19c-0.01-0.04-0.01-0.09-0.02-0.13c-0.02-0.08-0.07-0.16-0.13-0.22
			c-0.03-0.03-0.07-0.05-0.1-0.08c-0.08-0.05-0.16-0.07-0.25-0.07c-0.15,0-0.3,0-0.45,0c-0.07,0-0.13,0.01-0.19,0.04
			c-0.06,0.02-0.12,0.05-0.16,0.1c-0.05,0.05-0.08,0.1-0.1,0.16c-0.03,0.06-0.05,0.12-0.04,0.19c0.01,0.04,0.01,0.09,0.02,0.13
			c0.02,0.08,0.07,0.16,0.13,0.22c0.03,0.03,0.07,0.05,0.1,0.08C14.77,20.03,14.85,20.05,14.94,20.05L14.94,20.05z"/>
	</g>
	<g>
		<path class="st1" d="M11.34,17.47c0.08,0.85-0.5,1.65-0.82,2.4c-0.35,0.81-0.64,1.64-0.78,2.51c-0.06,0.41-0.05,0.84-0.12,1.24
			c-0.08,0.43-0.32,0.77-0.54,1.13c-0.19,0.31-0.3,0.64-0.27,1.01c0.04,0.49,0.18,0.89,0.08,1.39c-0.12,0.63,0.84,0.9,0.96,0.27
			c0.08-0.44,0.11-0.87,0.03-1.31c-0.04-0.23-0.12-0.42-0.05-0.65c0.06-0.18,0.22-0.36,0.31-0.52c0.48-0.8,0.43-1.57,0.58-2.46
			c0.15-0.9,0.48-1.76,0.86-2.58c0.36-0.77,0.83-1.54,0.74-2.43C12.28,16.84,11.28,16.83,11.34,17.47L11.34,17.47z"/>
	</g>
	<g>
		<path class="st1" d="M8.89,26.79c-0.05,0.45-0.03,0.93,0.3,1.29c0.3,0.32,0.72,0.41,1.13,0.26c0.46-0.17,0.8-0.58,1.2-0.85
			c0.42-0.28,0.87-0.5,1.37-0.6c0.56-0.12,1.08,0,1.63,0.08c0.5,0.07,1,0.05,1.5-0.04c1.05-0.2,2.01-0.73,2.92-1.27
			c0.55-0.33,0.05-1.19-0.5-0.86c-0.77,0.45-1.56,0.9-2.44,1.11c-0.88,0.21-1.67-0.08-2.55-0.08c-0.76,0-1.51,0.25-2.16,0.63
			c-0.36,0.21-0.67,0.46-0.99,0.72c-0.06,0.05-0.28,0.26-0.35,0.24c-0.15-0.06-0.06-0.52-0.04-0.63
			C9.96,26.15,8.96,26.15,8.89,26.79L8.89,26.79z"/>
	</g>
	<g>
		<path class="st1" d="M18.86,25.7c0.49-0.3,1-0.59,1.48-0.91c0.28-0.19,0.52-0.41,0.64-0.74c0.13-0.34,0.04-0.72-0.19-0.99
			c-0.17-0.2-0.53-0.19-0.71,0c-0.19,0.21-0.18,0.5,0,0.71c-0.05-0.07-0.06-0.08-0.04-0.05c0.01,0.01,0.01,0.02,0.02,0.03
			c-0.01,0-0.04-0.13-0.02-0.04c0.02,0.06-0.02,0.04,0-0.05c0,0.02,0,0.04,0,0.06c0,0.06,0.03-0.13,0.01-0.04
			c-0.01,0.03-0.01,0.05-0.02,0.08c-0.02,0.08,0.05-0.09,0.01-0.04c-0.01,0.02-0.02,0.04-0.03,0.06c-0.04,0.08,0.06-0.06,0.01-0.02
			c-0.02,0.02-0.03,0.04-0.05,0.05c-0.02,0.02-0.04,0.04-0.07,0.06c-0.07,0.06,0.07-0.05,0.02-0.01c-0.09,0.06-0.18,0.12-0.27,0.18
			c-0.43,0.26-0.86,0.53-1.3,0.79c-0.22,0.14-0.33,0.45-0.18,0.68C18.32,25.74,18.62,25.85,18.86,25.7L18.86,25.7z"/>
	</g>
</g>
</svg>
